STARTFONT 2.1
FONT -memleek-leggie-medium-r-normal--24----c-120-CP437-0
SIZE 24 75 75
FONTBOUNDINGBOX 12 24 0 -4
COMMENT "Generated by fontforge, http://fontforge.sourceforge.net"
STARTPROPERTIES 18
AVERAGE_WIDTH 120
CAP_HEIGHT 14
CHARSET_ENCODING "0"
CHARSET_REGISTRY "CP437"
COMMENT "Please visit https://memleek.org/leggie"
COPYRIGHT "2012-2018 W. Kerr. Licensed under CC BY 4.0"
DEFAULT_CHAR 65535
FAMILY_NAME "leggie"
FONT "leggie"
FONT_ASCENT 20
FONT_DESCENT 4
FOUNDRY "memleek"
PIXEL_SIZE 24
SETWIDTH_NAME "Normal"
SLANT "R"
SPACING "C"
WEIGHT_NAME "Medium"
X_HEIGHT 10
ENDPROPERTIES
CHARS 1763
STARTCHAR SPACE
ENCODING 32
SWIDTH 480 0
DWIDTH 12 0
BBX 1 1 11 -4
BITMAP
00
ENDCHAR
STARTCHAR EXCLAMATION
ENCODING 33
SWIDTH 480 0
DWIDTH 12 0
BBX 2 14 5 0
BITMAP
C0
C0
C0
C0
C0
C0
C0
C0
C0
C0
00
00
C0
C0
ENDCHAR
STARTCHAR QUOTATION
ENCODING 34
SWIDTH 480 0
DWIDTH 12 0
BBX 6 6 3 10
BITMAP
CC
CC
CC
CC
CC
CC
ENDCHAR
STARTCHAR NUMBER
ENCODING 35
SWIDTH 480 0
DWIDTH 12 0
BBX 10 14 1 0
BITMAP
3300
3300
3300
3300
FFC0
FFC0
3300
3300
FFC0
FFC0
3300
3300
3300
3300
ENDCHAR
STARTCHAR DOLLAR
ENCODING 36
SWIDTH 480 0
DWIDTH 12 0
BBX 10 18 1 -2
BITMAP
0600
0600
3FC0
7FC0
C000
C000
C000
C000
7F00
3F80
00C0
00C0
00C0
00C0
FF80
FF00
1800
1800
ENDCHAR
STARTCHAR PERCENT
ENCODING 37
SWIDTH 480 0
DWIDTH 12 0
BBX 10 14 1 0
BITMAP
3000
7800
CCC0
CDC0
7B80
3700
0E00
1C00
3B00
7780
ECC0
CCC0
0780
0300
ENDCHAR
STARTCHAR AMPERSAND
ENCODING 38
SWIDTH 480 0
DWIDTH 12 0
BBX 10 14 1 0
BITMAP
3C00
7E00
C300
C300
C300
C300
7E00
7C00
C0C0
C180
C300
C700
7D80
38C0
ENDCHAR
STARTCHAR APOSTROPHE
ENCODING 39
SWIDTH 480 0
DWIDTH 12 0
BBX 2 6 5 10
BITMAP
C0
C0
C0
C0
C0
C0
ENDCHAR
STARTCHAR LEFT
ENCODING 40
SWIDTH 480 0
DWIDTH 12 0
BBX 4 22 5 -4
BITMAP
30
60
C0
C0
C0
C0
C0
C0
C0
C0
C0
C0
C0
C0
C0
C0
C0
C0
C0
C0
60
30
ENDCHAR
STARTCHAR RIGHT
ENCODING 41
SWIDTH 480 0
DWIDTH 12 0
BBX 4 22 3 -4
BITMAP
C0
60
30
30
30
30
30
30
30
30
30
30
30
30
30
30
30
30
30
30
60
C0
ENDCHAR
STARTCHAR ASTERISK
ENCODING 42
SWIDTH 480 0
DWIDTH 12 0
BBX 10 10 1 2
BITMAP
6180
3300
1E00
0C00
FFC0
FFC0
0C00
1E00
3300
6180
ENDCHAR
STARTCHAR PLUS
ENCODING 43
SWIDTH 480 0
DWIDTH 12 0
BBX 10 10 1 2
BITMAP
0C00
0C00
0C00
0C00
FFC0
FFC0
0C00
0C00
0C00
0C00
ENDCHAR
STARTCHAR COMMA
ENCODING 44
SWIDTH 480 0
DWIDTH 12 0
BBX 4 4 3 -2
BITMAP
30
30
60
C0
ENDCHAR
STARTCHAR HYPHEN-MINUS
ENCODING 45
SWIDTH 480 0
DWIDTH 12 0
BBX 10 2 1 6
BITMAP
FFC0
FFC0
ENDCHAR
STARTCHAR FULL
ENCODING 46
SWIDTH 480 0
DWIDTH 12 0
BBX 2 2 5 0
BITMAP
C0
C0
ENDCHAR
STARTCHAR SOLIDUS
ENCODING 47
SWIDTH 480 0
DWIDTH 12 0
BBX 10 18 1 -2
BITMAP
00C0
00C0
0180
0180
0300
0300
0600
0600
0C00
0C00
1800
1800
3000
3000
6000
6000
C000
C000
ENDCHAR
STARTCHAR DIGIT
ENCODING 48
SWIDTH 480 0
DWIDTH 12 0
BBX 10 14 1 0
BITMAP
3F00
7F80
C0C0
C0C0
C1C0
C2C0
C4C0
C8C0
D0C0
E0C0
C0C0
C0C0
7F80
3F00
ENDCHAR
STARTCHAR DIGIT
ENCODING 49
SWIDTH 480 0
DWIDTH 12 0
BBX 6 14 3 0
BITMAP
04
0C
1C
3C
6C
CC
0C
0C
0C
0C
0C
0C
0C
0C
ENDCHAR
STARTCHAR DIGIT
ENCODING 50
SWIDTH 480 0
DWIDTH 12 0
BBX 10 14 1 0
BITMAP
FF00
FF80
00C0
00C0
00C0
00C0
0180
0300
0600
0C00
1800
3000
7FC0
FFC0
ENDCHAR
STARTCHAR DIGIT
ENCODING 51
SWIDTH 480 0
DWIDTH 12 0
BBX 10 14 1 0
BITMAP
FF00
FF80
00C0
00C0
00C0
00C0
0F80
0F80
00C0
00C0
00C0
00C0
FF80
FF00
ENDCHAR
STARTCHAR DIGIT
ENCODING 52
SWIDTH 480 0
DWIDTH 12 0
BBX 10 14 1 0
BITMAP
0040
00C0
01C0
03C0
06C0
0CC0
18C0
30C0
7FC0
FFC0
00C0
00C0
00C0
00C0
ENDCHAR
STARTCHAR DIGIT
ENCODING 53
SWIDTH 480 0
DWIDTH 12 0
BBX 10 14 1 0
BITMAP
FFC0
FFC0
C000
C000
FF00
FF80
00C0
00C0
00C0
00C0
00C0
00C0
FF80
FF00
ENDCHAR
STARTCHAR DIGIT
ENCODING 54
SWIDTH 480 0
DWIDTH 12 0
BBX 10 14 1 0
BITMAP
3F00
7F00
C000
C000
FF00
FF80
C0C0
C0C0
C0C0
C0C0
C0C0
C0C0
7F80
3F00
ENDCHAR
STARTCHAR DIGIT
ENCODING 55
SWIDTH 480 0
DWIDTH 12 0
BBX 10 14 1 0
BITMAP
FFC0
FFC0
00C0
00C0
00C0
0180
0300
0600
0C00
0C00
0C00
0C00
0C00
0C00
ENDCHAR
STARTCHAR DIGIT
ENCODING 56
SWIDTH 480 0
DWIDTH 12 0
BBX 10 14 1 0
BITMAP
3F00
7F80
C0C0
C0C0
C0C0
C0C0
7F80
7F80
C0C0
C0C0
C0C0
C0C0
7F80
3F00
ENDCHAR
STARTCHAR DIGIT
ENCODING 57
SWIDTH 480 0
DWIDTH 12 0
BBX 10 14 1 0
BITMAP
3F00
7F80
C0C0
C0C0
C0C0
C0C0
C0C0
C0C0
7FC0
3FC0
00C0
00C0
3F80
3F00
ENDCHAR
STARTCHAR COLON
ENCODING 58
SWIDTH 480 0
DWIDTH 12 0
BBX 2 10 5 0
BITMAP
C0
C0
00
00
00
00
00
00
C0
C0
ENDCHAR
STARTCHAR SEMICOLON
ENCODING 59
SWIDTH 480 0
DWIDTH 12 0
BBX 4 12 3 -2
BITMAP
30
30
00
00
00
00
00
00
30
30
60
C0
ENDCHAR
STARTCHAR LESS-THAN
ENCODING 60
SWIDTH 480 0
DWIDTH 12 0
BBX 10 18 1 -2
BITMAP
00C0
0180
0300
0600
0C00
1800
3000
6000
C000
C000
6000
3000
1800
0C00
0600
0300
0180
00C0
ENDCHAR
STARTCHAR EQUALS
ENCODING 61
SWIDTH 480 0
DWIDTH 12 0
BBX 10 6 1 4
BITMAP
FFC0
FFC0
0000
0000
FFC0
FFC0
ENDCHAR
STARTCHAR GREATER-THAN
ENCODING 62
SWIDTH 480 0
DWIDTH 12 0
BBX 10 18 1 -2
BITMAP
C000
6000
3000
1800
0C00
0600
0300
0180
00C0
00C0
0180
0300
0600
0C00
1800
3000
6000
C000
ENDCHAR
STARTCHAR QUESTION
ENCODING 63
SWIDTH 480 0
DWIDTH 12 0
BBX 10 14 1 0
BITMAP
FF00
FF80
00C0
00C0
00C0
0180
0300
0600
0C00
0C00
0000
0000
0C00
0C00
ENDCHAR
STARTCHAR COMMERCIAL
ENCODING 64
SWIDTH 480 0
DWIDTH 12 0
BBX 10 16 1 -2
BITMAP
1E00
3F00
6180
C0C0
C7C0
CFC0
D8C0
D8C0
D8C0
D8C0
CF80
C700
C000
6000
3F00
1F00
ENDCHAR
STARTCHAR LATIN
ENCODING 65
SWIDTH 480 0
DWIDTH 12 0
BBX 10 14 1 0
BITMAP
3F00
7F80
C0C0
C0C0
C0C0
C0C0
C0C0
C0C0
FFC0
FFC0
C0C0
C0C0
C0C0
C0C0
ENDCHAR
STARTCHAR LATIN
ENCODING 66
SWIDTH 480 0
DWIDTH 12 0
BBX 10 14 1 0
BITMAP
FF00
FF80
C0C0
C0C0
C0C0
C0C0
FF80
FF80
C0C0
C0C0
C0C0
C0C0
FF80
FF00
ENDCHAR
STARTCHAR LATIN
ENCODING 67
SWIDTH 480 0
DWIDTH 12 0
BBX 10 14 1 0
BITMAP
3FC0
7FC0
C000
C000
C000
C000
C000
C000
C000
C000
C000
C000
7FC0
3FC0
ENDCHAR
STARTCHAR LATIN
ENCODING 68
SWIDTH 480 0
DWIDTH 12 0
BBX 10 14 1 0
BITMAP
FF00
FF80
C0C0
C0C0
C0C0
C0C0
C0C0
C0C0
C0C0
C0C0
C0C0
C0C0
FF80
FF00
ENDCHAR
STARTCHAR LATIN
ENCODING 69
SWIDTH 480 0
DWIDTH 12 0
BBX 10 14 1 0
BITMAP
FFC0
FFC0
C000
C000
C000
C000
FC00
FC00
C000
C000
C000
C000
FFC0
FFC0
ENDCHAR
STARTCHAR LATIN
ENCODING 70
SWIDTH 480 0
DWIDTH 12 0
BBX 10 14 1 0
BITMAP
FFC0
FFC0
C000
C000
C000
C000
FC00
FC00
C000
C000
C000
C000
C000
C000
ENDCHAR
STARTCHAR LATIN
ENCODING 71
SWIDTH 480 0
DWIDTH 12 0
BBX 10 14 1 0
BITMAP
3FC0
7FC0
C000
C000
C000
C000
C3C0
C3C0
C0C0
C0C0
C0C0
C0C0
7FC0
3FC0
ENDCHAR
STARTCHAR LATIN
ENCODING 72
SWIDTH 480 0
DWIDTH 12 0
BBX 10 14 1 0
BITMAP
C0C0
C0C0
C0C0
C0C0
C0C0
C0C0
FFC0
FFC0
C0C0
C0C0
C0C0
C0C0
C0C0
C0C0
ENDCHAR
STARTCHAR LATIN
ENCODING 73
SWIDTH 480 0
DWIDTH 12 0
BBX 4 14 4 0
BITMAP
F0
F0
60
60
60
60
60
60
60
60
60
60
F0
F0
ENDCHAR
STARTCHAR LATIN
ENCODING 74
SWIDTH 480 0
DWIDTH 12 0
BBX 10 14 1 0
BITMAP
00C0
00C0
00C0
00C0
00C0
00C0
00C0
00C0
00C0
00C0
00C0
C0C0
7F80
3F00
ENDCHAR
STARTCHAR LATIN
ENCODING 75
SWIDTH 480 0
DWIDTH 12 0
BBX 10 14 1 0
BITMAP
C0C0
C180
C300
C600
CC00
D800
F000
F000
D800
CC00
C600
C300
C180
C0C0
ENDCHAR
STARTCHAR LATIN
ENCODING 76
SWIDTH 480 0
DWIDTH 12 0
BBX 10 14 1 0
BITMAP
C000
C000
C000
C000
C000
C000
C000
C000
C000
C000
C000
C000
FFC0
FFC0
ENDCHAR
STARTCHAR LATIN
ENCODING 77
SWIDTH 480 0
DWIDTH 12 0
BBX 10 14 1 0
BITMAP
8040
C0C0
E1C0
F3C0
DEC0
CCC0
C0C0
C0C0
C0C0
C0C0
C0C0
C0C0
C0C0
C0C0
ENDCHAR
STARTCHAR LATIN
ENCODING 78
SWIDTH 480 0
DWIDTH 12 0
BBX 10 14 1 0
BITMAP
C0C0
C0C0
C0C0
E0C0
F0C0
D8C0
CCC0
C6C0
C3C0
C1C0
C0C0
C0C0
C0C0
C0C0
ENDCHAR
STARTCHAR LATIN
ENCODING 79
SWIDTH 480 0
DWIDTH 12 0
BBX 10 14 1 0
BITMAP
3F00
7F80
C0C0
C0C0
C0C0
C0C0
C0C0
C0C0
C0C0
C0C0
C0C0
C0C0
7F80
3F00
ENDCHAR
STARTCHAR LATIN
ENCODING 80
SWIDTH 480 0
DWIDTH 12 0
BBX 10 14 1 0
BITMAP
FF00
FF80
C0C0
C0C0
C0C0
C0C0
C0C0
C0C0
FF80
FF00
C000
C000
C000
C000
ENDCHAR
STARTCHAR LATIN
ENCODING 81
SWIDTH 480 0
DWIDTH 12 0
BBX 10 14 1 0
BITMAP
3F00
7F80
C0C0
C0C0
C0C0
C0C0
C0C0
C0C0
C0C0
C0C0
C6C0
C340
7D80
3EC0
ENDCHAR
STARTCHAR LATIN
ENCODING 82
SWIDTH 480 0
DWIDTH 12 0
BBX 10 14 1 0
BITMAP
FF00
FF80
C0C0
C0C0
C0C0
C0C0
C0C0
C0C0
FF80
FF00
C600
C300
C180
C0C0
ENDCHAR
STARTCHAR LATIN
ENCODING 83
SWIDTH 480 0
DWIDTH 12 0
BBX 10 14 1 0
BITMAP
3FC0
7FC0
C000
C000
C000
C000
7F00
3F80
00C0
00C0
00C0
00C0
FF80
FF00
ENDCHAR
STARTCHAR LATIN
ENCODING 84
SWIDTH 480 0
DWIDTH 12 0
BBX 10 14 1 0
BITMAP
FFC0
FFC0
0C00
0C00
0C00
0C00
0C00
0C00
0C00
0C00
0C00
0C00
0C00
0C00
ENDCHAR
STARTCHAR LATIN
ENCODING 85
SWIDTH 480 0
DWIDTH 12 0
BBX 10 14 1 0
BITMAP
C0C0
C0C0
C0C0
C0C0
C0C0
C0C0
C0C0
C0C0
C0C0
C0C0
C0C0
C0C0
7F80
3F00
ENDCHAR
STARTCHAR LATIN
ENCODING 86
SWIDTH 480 0
DWIDTH 12 0
BBX 10 14 1 0
BITMAP
C0C0
C0C0
C0C0
C0C0
6180
6180
6180
3300
3300
3300
1E00
1E00
0C00
0C00
ENDCHAR
STARTCHAR LATIN
ENCODING 87
SWIDTH 480 0
DWIDTH 12 0
BBX 10 14 1 0
BITMAP
C0C0
C0C0
C0C0
C0C0
C0C0
C0C0
C0C0
C0C0
CCC0
DEC0
F3C0
E1C0
C0C0
8040
ENDCHAR
STARTCHAR X
ENCODING 88
SWIDTH 480 0
DWIDTH 12 0
BBX 10 9 1 1
BITMAP
FFC0
FFC0
CCC0
E1C0
F3C0
E1C0
CCC0
FFC0
FFC0
ENDCHAR
STARTCHAR LATIN
ENCODING 89
SWIDTH 480 0
DWIDTH 12 0
BBX 10 14 1 0
BITMAP
C0C0
C0C0
C0C0
C0C0
6180
3300
1E00
0C00
0C00
0C00
0C00
0C00
0C00
0C00
ENDCHAR
STARTCHAR LATIN
ENCODING 90
SWIDTH 480 0
DWIDTH 12 0
BBX 10 14 1 0
BITMAP
FFC0
FFC0
00C0
0180
0300
0600
0C00
1800
3000
6000
C000
C000
FFC0
FFC0
ENDCHAR
STARTCHAR LEFT
ENCODING 91
SWIDTH 480 0
DWIDTH 12 0
BBX 4 22 5 -4
BITMAP
F0
F0
C0
C0
C0
C0
C0
C0
C0
C0
C0
C0
C0
C0
C0
C0
C0
C0
C0
C0
F0
F0
ENDCHAR
STARTCHAR REVERSE
ENCODING 92
SWIDTH 480 0
DWIDTH 12 0
BBX 10 18 1 -2
BITMAP
C000
C000
6000
6000
3000
3000
1800
1800
0C00
0C00
0600
0600
0300
0300
0180
0180
00C0
00C0
ENDCHAR
STARTCHAR RIGHT
ENCODING 93
SWIDTH 480 0
DWIDTH 12 0
BBX 4 22 3 -4
BITMAP
F0
F0
30
30
30
30
30
30
30
30
30
30
30
30
30
30
30
30
30
30
F0
F0
ENDCHAR
STARTCHAR CIRCUMFLEX
ENCODING 94
SWIDTH 480 0
DWIDTH 12 0
BBX 10 5 1 11
BITMAP
0C00
1E00
3300
6180
C0C0
ENDCHAR
STARTCHAR LOW
ENCODING 95
SWIDTH 480 0
DWIDTH 12 0
BBX 10 2 1 -2
BITMAP
FFC0
FFC0
ENDCHAR
STARTCHAR GRAVE
ENCODING 96
SWIDTH 480 0
DWIDTH 12 0
BBX 6 5 3 11
BITMAP
C0
60
30
18
0C
ENDCHAR
STARTCHAR LATIN
ENCODING 97
SWIDTH 480 0
DWIDTH 12 0
BBX 10 10 1 0
BITMAP
3F00
3F80
00C0
00C0
3FC0
7FC0
C0C0
C0C0
7FC0
3FC0
ENDCHAR
STARTCHAR LATIN
ENCODING 98
SWIDTH 480 0
DWIDTH 12 0
BBX 10 16 1 0
BITMAP
C000
C000
C000
C000
C000
C000
FF00
FF80
C0C0
C0C0
C0C0
C0C0
C0C0
C0C0
FF80
FF00
ENDCHAR
STARTCHAR LATIN
ENCODING 99
SWIDTH 480 0
DWIDTH 12 0
BBX 10 10 1 0
BITMAP
3FC0
7FC0
C000
C000
C000
C000
C000
C000
7FC0
3FC0
ENDCHAR
STARTCHAR LATIN
ENCODING 100
SWIDTH 480 0
DWIDTH 12 0
BBX 10 16 1 0
BITMAP
00C0
00C0
00C0
00C0
00C0
00C0
3FC0
7FC0
C0C0
C0C0
C0C0
C0C0
C0C0
C0C0
7FC0
3FC0
ENDCHAR
STARTCHAR LATIN
ENCODING 101
SWIDTH 480 0
DWIDTH 12 0
BBX 10 10 1 0
BITMAP
3F00
7F80
C0C0
C0C0
FFC0
FFC0
C000
C000
7F00
3F00
ENDCHAR
STARTCHAR LATIN
ENCODING 102
SWIDTH 480 0
DWIDTH 12 0
BBX 6 16 3 0
BITMAP
3C
7C
C0
C0
C0
C0
F0
F0
C0
C0
C0
C0
C0
C0
C0
C0
ENDCHAR
STARTCHAR LATIN
ENCODING 103
SWIDTH 480 0
DWIDTH 12 0
BBX 10 14 1 -4
BITMAP
3FC0
7FC0
C0C0
C0C0
C0C0
C0C0
C0C0
C0C0
7FC0
3FC0
00C0
00C0
1F80
1F00
ENDCHAR
STARTCHAR LATIN
ENCODING 104
SWIDTH 480 0
DWIDTH 12 0
BBX 10 16 1 0
BITMAP
C000
C000
C000
C000
C000
C000
FF00
FF80
C0C0
C0C0
C0C0
C0C0
C0C0
C0C0
C0C0
C0C0
ENDCHAR
STARTCHAR LATIN
ENCODING 105
SWIDTH 480 0
DWIDTH 12 0
BBX 3 14 4 0
BITMAP
60
60
00
00
E0
E0
60
60
60
60
60
60
60
60
ENDCHAR
STARTCHAR LATIN
ENCODING 106
SWIDTH 480 0
DWIDTH 12 0
BBX 4 18 3 -4
BITMAP
30
30
00
00
70
70
30
30
30
30
30
30
30
30
30
30
60
C0
ENDCHAR
STARTCHAR LATIN
ENCODING 107
SWIDTH 480 0
DWIDTH 12 0
BBX 8 16 2 0
BITMAP
C0
C0
C0
C0
C0
C0
C3
C6
CC
D8
F0
F0
D8
CC
C6
C3
ENDCHAR
STARTCHAR LATIN
ENCODING 108
SWIDTH 480 0
DWIDTH 12 0
BBX 6 16 3 0
BITMAP
C0
C0
C0
C0
C0
C0
C0
C0
C0
C0
C0
C0
C0
C0
7C
3C
ENDCHAR
STARTCHAR LATIN
ENCODING 109
SWIDTH 480 0
DWIDTH 12 0
BBX 10 10 1 0
BITMAP
F300
FF80
CCC0
CCC0
CCC0
CCC0
CCC0
CCC0
C0C0
C0C0
ENDCHAR
STARTCHAR LATIN
ENCODING 110
SWIDTH 480 0
DWIDTH 12 0
BBX 10 10 1 0
BITMAP
FF00
FF80
C0C0
C0C0
C0C0
C0C0
C0C0
C0C0
C0C0
C0C0
ENDCHAR
STARTCHAR LATIN
ENCODING 111
SWIDTH 480 0
DWIDTH 12 0
BBX 10 10 1 0
BITMAP
3F00
7F80
C0C0
C0C0
C0C0
C0C0
C0C0
C0C0
7F80
3F00
ENDCHAR
STARTCHAR LATIN
ENCODING 112
SWIDTH 480 0
DWIDTH 12 0
BBX 10 14 1 -4
BITMAP
FF00
FF80
C0C0
C0C0
C0C0
C0C0
C0C0
C0C0
FF80
FF00
C000
C000
C000
C000
ENDCHAR
STARTCHAR LATIN
ENCODING 113
SWIDTH 480 0
DWIDTH 12 0
BBX 10 14 1 -4
BITMAP
3FC0
7FC0
C0C0
C0C0
C0C0
C0C0
C0C0
C0C0
7FC0
3FC0
00C0
00C0
00C0
00C0
ENDCHAR
STARTCHAR LATIN
ENCODING 114
SWIDTH 480 0
DWIDTH 12 0
BBX 10 10 1 0
BITMAP
CFC0
DFC0
F000
E000
C000
C000
C000
C000
C000
C000
ENDCHAR
STARTCHAR LATIN
ENCODING 115
SWIDTH 480 0
DWIDTH 12 0
BBX 10 10 1 0
BITMAP
3FC0
7FC0
C000
C000
7F00
3F80
00C0
00C0
FF80
FF00
ENDCHAR
STARTCHAR LATIN
ENCODING 116
SWIDTH 480 0
DWIDTH 12 0
BBX 8 16 2 0
BITMAP
30
30
30
30
30
30
FC
FC
30
30
30
30
30
30
1F
0F
ENDCHAR
STARTCHAR LATIN
ENCODING 117
SWIDTH 480 0
DWIDTH 12 0
BBX 10 10 1 0
BITMAP
C0C0
C0C0
C0C0
C0C0
C0C0
C0C0
C0C0
C0C0
7FC0
3FC0
ENDCHAR
STARTCHAR LATIN
ENCODING 118
SWIDTH 480 0
DWIDTH 12 0
BBX 10 10 1 0
BITMAP
C0C0
C0C0
C0C0
6180
6180
3300
3300
1E00
1E00
0C00
ENDCHAR
STARTCHAR LATIN
ENCODING 119
SWIDTH 480 0
DWIDTH 12 0
BBX 10 10 1 0
BITMAP
C0C0
C0C0
C0C0
C0C0
CCC0
DEC0
F3C0
E1C0
C0C0
8040
ENDCHAR
STARTCHAR LATIN
ENCODING 120
SWIDTH 480 0
DWIDTH 12 0
BBX 10 10 1 0
BITMAP
C0C0
6180
3300
1E00
0C00
0C00
1E00
3300
6180
C0C0
ENDCHAR
STARTCHAR LATIN
ENCODING 121
SWIDTH 480 0
DWIDTH 12 0
BBX 10 14 1 -4
BITMAP
C0C0
C0C0
C0C0
C0C0
C0C0
C0C0
C0C0
C0C0
7FC0
3FC0
00C0
00C0
1F80
1F00
ENDCHAR
STARTCHAR LATIN
ENCODING 122
SWIDTH 480 0
DWIDTH 12 0
BBX 10 10 1 0
BITMAP
FFC0
FF80
0300
0600
0C00
1800
3000
6000
FFC0
FFC0
ENDCHAR
STARTCHAR LEFT
ENCODING 123
SWIDTH 480 0
DWIDTH 12 0
BBX 6 22 3 -4
BITMAP
0C
18
30
30
30
30
30
30
30
30
E0
E0
30
30
30
30
30
30
30
30
18
0C
ENDCHAR
STARTCHAR VERTICAL
ENCODING 124
SWIDTH 480 0
DWIDTH 12 0
BBX 2 24 5 -4
BITMAP
C0
C0
C0
C0
C0
C0
C0
C0
C0
C0
C0
C0
C0
C0
C0
C0
C0
C0
C0
C0
C0
C0
C0
C0
ENDCHAR
STARTCHAR RIGHT
ENCODING 125
SWIDTH 480 0
DWIDTH 12 0
BBX 6 22 3 -4
BITMAP
C0
60
30
30
30
30
30
30
30
30
1C
1C
30
30
30
30
30
30
30
30
60
C0
ENDCHAR
STARTCHAR TILDE
ENCODING 126
SWIDTH 480 0
DWIDTH 12 0
BBX 10 4 1 4
BITMAP
38C0
7CC0
CF80
C700
ENDCHAR
STARTCHAR LATIN
ENCODING 128
SWIDTH 480 0
DWIDTH 12 0
BBX 10 18 1 -4
BITMAP
3FC0
7FC0
C000
C000
C000
C000
C000
C000
C000
C000
C000
C000
7FC0
3FC0
0600
0300
3F00
1E00
ENDCHAR
STARTCHAR LATIN
ENCODING 129
SWIDTH 480 0
DWIDTH 12 0
BBX 10 14 1 0
BITMAP
3300
3300
0000
0000
C0C0
C0C0
C0C0
C0C0
C0C0
C0C0
C0C0
C0C0
7FC0
3FC0
ENDCHAR
STARTCHAR LATIN
ENCODING 130
SWIDTH 480 0
DWIDTH 12 0
BBX 10 16 1 0
BITMAP
0180
0300
0600
0C00
0000
0000
3F00
7F80
C0C0
C0C0
FFC0
FFC0
C000
C000
7F00
3F00
ENDCHAR
STARTCHAR LATIN
ENCODING 131
SWIDTH 480 0
DWIDTH 12 0
BBX 10 16 1 0
BITMAP
0C00
1E00
3300
6180
0000
0000
3F00
3F80
00C0
00C0
3FC0
7FC0
C0C0
C0C0
7FC0
3FC0
ENDCHAR
STARTCHAR LATIN
ENCODING 132
SWIDTH 480 0
DWIDTH 12 0
BBX 10 14 1 0
BITMAP
3300
3300
0000
0000
3F00
3F80
00C0
00C0
3FC0
7FC0
C0C0
C0C0
7FC0
3FC0
ENDCHAR
STARTCHAR LATIN
ENCODING 133
SWIDTH 480 0
DWIDTH 12 0
BBX 10 16 1 0
BITMAP
6000
3000
1800
0C00
0000
0000
3F00
3F80
00C0
00C0
3FC0
7FC0
C0C0
C0C0
7FC0
3FC0
ENDCHAR
STARTCHAR LATIN
ENCODING 134
SWIDTH 480 0
DWIDTH 12 0
BBX 10 18 1 0
BITMAP
0C00
1E00
3300
3300
1E00
0C00
0000
0000
3F00
3F80
00C0
00C0
3FC0
7FC0
C0C0
C0C0
7FC0
3FC0
ENDCHAR
STARTCHAR LATIN
ENCODING 135
SWIDTH 480 0
DWIDTH 12 0
BBX 10 14 1 -4
BITMAP
3FC0
7FC0
C000
C000
C000
C000
C000
C000
7FC0
3FC0
0600
0300
3F00
1E00
ENDCHAR
STARTCHAR LATIN
ENCODING 136
SWIDTH 480 0
DWIDTH 12 0
BBX 10 16 1 0
BITMAP
0C00
1E00
3300
6180
0000
0000
3F00
7F80
C0C0
C0C0
FFC0
FFC0
C000
C000
7F00
3F00
ENDCHAR
STARTCHAR LATIN
ENCODING 137
SWIDTH 480 0
DWIDTH 12 0
BBX 10 14 1 0
BITMAP
3300
3300
0000
0000
3F00
7F80
C0C0
C0C0
FFC0
FFC0
C000
C000
7F00
3F00
ENDCHAR
STARTCHAR LATIN
ENCODING 138
SWIDTH 480 0
DWIDTH 12 0
BBX 10 16 1 0
BITMAP
6000
3000
1800
0C00
0000
0000
3F00
7F80
C0C0
C0C0
FFC0
FFC0
C000
C000
7F00
3F00
ENDCHAR
STARTCHAR LATIN
ENCODING 139
SWIDTH 480 0
DWIDTH 12 0
BBX 6 14 3 0
BITMAP
CC
CC
00
00
70
70
30
30
30
30
30
30
30
30
ENDCHAR
STARTCHAR LATIN
ENCODING 140
SWIDTH 480 0
DWIDTH 12 0
BBX 8 16 2 0
BITMAP
18
3C
66
C3
00
00
38
38
18
18
18
18
18
18
18
18
ENDCHAR
STARTCHAR LATIN
ENCODING 141
SWIDTH 480 0
DWIDTH 12 0
BBX 5 16 2 0
BITMAP
C0
60
30
18
00
00
38
38
18
18
18
18
18
18
18
18
ENDCHAR
STARTCHAR LATIN
ENCODING 142
SWIDTH 480 0
DWIDTH 12 0
BBX 10 18 1 0
BITMAP
3300
3300
0000
0000
3F00
7F80
C0C0
C0C0
C0C0
C0C0
C0C0
C0C0
FFC0
FFC0
C0C0
C0C0
C0C0
C0C0
ENDCHAR
STARTCHAR LATIN
ENCODING 143
SWIDTH 480 0
DWIDTH 12 0
BBX 10 20 1 0
BITMAP
0C00
1E00
3300
1E00
0C00
0000
3F00
7F80
C0C0
C0C0
C0C0
C0C0
C0C0
C0C0
FFC0
FFC0
C0C0
C0C0
C0C0
C0C0
ENDCHAR
STARTCHAR LATIN
ENCODING 144
SWIDTH 480 0
DWIDTH 12 0
BBX 10 20 1 0
BITMAP
0180
0300
0600
0C00
0000
0000
FFC0
FFC0
C000
C000
C000
C000
FC00
FC00
C000
C000
C000
C000
FFC0
FFC0
ENDCHAR
STARTCHAR LATIN
ENCODING 145
SWIDTH 480 0
DWIDTH 12 0
BBX 12 10 0 0
BITMAP
39C0
3FE0
0630
0630
3FF0
7FF0
C600
C600
7FE0
39E0
ENDCHAR
STARTCHAR LATIN
ENCODING 146
SWIDTH 480 0
DWIDTH 12 0
BBX 12 14 0 0
BITMAP
3FF0
7FF0
C600
C600
C600
C600
C7C0
C7C0
FE00
FE00
C600
C600
C7F0
C7F0
ENDCHAR
STARTCHAR LATIN
ENCODING 147
SWIDTH 480 0
DWIDTH 12 0
BBX 10 16 1 0
BITMAP
0C00
1E00
3300
6180
0000
0000
3F00
7F80
C0C0
C0C0
C0C0
C0C0
C0C0
C0C0
7F80
3F00
ENDCHAR
STARTCHAR LATIN
ENCODING 148
SWIDTH 480 0
DWIDTH 12 0
BBX 10 14 1 0
BITMAP
3300
3300
0000
0000
3F00
7F80
C0C0
C0C0
C0C0
C0C0
C0C0
C0C0
7F80
3F00
ENDCHAR
STARTCHAR LATIN
ENCODING 149
SWIDTH 480 0
DWIDTH 12 0
BBX 10 16 1 0
BITMAP
6000
3000
1800
0C00
0000
0000
3F00
7F80
C0C0
C0C0
C0C0
C0C0
C0C0
C0C0
7F80
3F00
ENDCHAR
STARTCHAR LATIN
ENCODING 150
SWIDTH 480 0
DWIDTH 12 0
BBX 10 16 1 0
BITMAP
0C00
1E00
3300
6180
0000
0000
C0C0
C0C0
C0C0
C0C0
C0C0
C0C0
C0C0
C0C0
7FC0
3FC0
ENDCHAR
STARTCHAR LATIN
ENCODING 151
SWIDTH 480 0
DWIDTH 12 0
BBX 10 16 1 0
BITMAP
6000
3000
1800
0C00
0000
0000
C0C0
C0C0
C0C0
C0C0
C0C0
C0C0
C0C0
C0C0
7FC0
3FC0
ENDCHAR
STARTCHAR LATIN
ENCODING 152
SWIDTH 480 0
DWIDTH 12 0
BBX 10 18 1 -4
BITMAP
3300
3300
0000
0000
C0C0
C0C0
C0C0
C0C0
C0C0
C0C0
C0C0
C0C0
7FC0
3FC0
00C0
00C0
1F00
1F00
ENDCHAR
STARTCHAR LATIN
ENCODING 153
SWIDTH 480 0
DWIDTH 12 0
BBX 10 18 1 0
BITMAP
3300
3300
0000
0000
3F00
7F80
C0C0
C0C0
C0C0
C0C0
C0C0
C0C0
C0C0
C0C0
C0C0
C0C0
7F80
3F00
ENDCHAR
STARTCHAR LATIN
ENCODING 154
SWIDTH 480 0
DWIDTH 12 0
BBX 10 18 1 0
BITMAP
3300
3300
0000
0000
C0C0
C0C0
C0C0
C0C0
C0C0
C0C0
C0C0
C0C0
C0C0
C0C0
C0C0
C0C0
7F80
3F00
ENDCHAR
STARTCHAR CENT
ENCODING 155
SWIDTH 480 0
DWIDTH 12 0
BBX 10 14 1 -2
BITMAP
0300
0300
3FC0
7FC0
C000
C000
C000
C000
C000
C000
7FC0
3FC0
0C00
0C00
ENDCHAR
STARTCHAR POUND
ENCODING 156
SWIDTH 480 0
DWIDTH 12 0
BBX 10 14 1 0
BITMAP
0F80
1F80
3000
3000
3000
3000
FC00
FC00
3000
3000
3000
3000
FFC0
FFC0
ENDCHAR
STARTCHAR YEN
ENCODING 157
SWIDTH 480 0
DWIDTH 12 0
BBX 10 14 1 0
BITMAP
C0C0
C0C0
C0C0
C0C0
6180
3300
1E00
0C00
7F80
0C00
7F80
0C00
0C00
0C00
ENDCHAR
STARTCHAR PESETA
ENCODING 158
SWIDTH 480 0
DWIDTH 12 0
BBX 12 16 0 0
BITMAP
0180
0180
F980
FD80
C780
C780
C7E0
C7E0
C780
C780
FD80
F980
C180
C180
C0F0
C070
ENDCHAR
STARTCHAR LATIN
ENCODING 159
SWIDTH 480 0
DWIDTH 12 0
BBX 10 20 1 -4
BITMAP
03C0
07C0
0C00
0C00
0C00
0C00
3F00
3F00
0C00
0C00
0C00
0C00
0C00
0C00
0C00
0C00
0C00
0C00
F800
F000
ENDCHAR
STARTCHAR LATIN
ENCODING 160
SWIDTH 480 0
DWIDTH 12 0
BBX 10 16 1 0
BITMAP
0180
0300
0600
0C00
0000
0000
3F00
3F80
00C0
00C0
3FC0
7FC0
C0C0
C0C0
7FC0
3FC0
ENDCHAR
STARTCHAR LATIN
ENCODING 161
SWIDTH 480 0
DWIDTH 12 0
BBX 6 16 4 0
BITMAP
0C
18
30
60
00
00
E0
E0
60
60
60
60
60
60
60
60
ENDCHAR
STARTCHAR LATIN
ENCODING 162
SWIDTH 480 0
DWIDTH 12 0
BBX 10 16 1 0
BITMAP
0180
0300
0600
0C00
0000
0000
3F00
7F80
C0C0
C0C0
C0C0
C0C0
C0C0
C0C0
7F80
3F00
ENDCHAR
STARTCHAR LATIN
ENCODING 163
SWIDTH 480 0
DWIDTH 12 0
BBX 10 16 1 0
BITMAP
0180
0300
0600
0C00
0000
0000
C0C0
C0C0
C0C0
C0C0
C0C0
C0C0
C0C0
C0C0
7FC0
3FC0
ENDCHAR
STARTCHAR LATIN
ENCODING 164
SWIDTH 480 0
DWIDTH 12 0
BBX 10 16 1 0
BITMAP
30C0
7CC0
CF80
C300
0000
0000
FF00
FF80
C0C0
C0C0
C0C0
C0C0
C0C0
C0C0
C0C0
C0C0
ENDCHAR
STARTCHAR LATIN
ENCODING 165
SWIDTH 480 0
DWIDTH 12 0
BBX 10 20 1 0
BITMAP
30C0
7CC0
CF80
C300
0000
0000
C0C0
C0C0
C0C0
E0C0
F0C0
D8C0
CCC0
C6C0
C3C0
C1C0
C0C0
C0C0
C0C0
C0C0
ENDCHAR
STARTCHAR FEMININE
ENCODING 166
SWIDTH 480 0
DWIDTH 12 0
BBX 10 10 1 6
BITMAP
3F00
3F80
00C0
00C0
3FC0
7FC0
C0C0
C0C0
7FC0
3FC0
ENDCHAR
STARTCHAR MASCULINE
ENCODING 167
SWIDTH 480 0
DWIDTH 12 0
BBX 10 10 1 6
BITMAP
3F00
7F80
C0C0
C0C0
C0C0
C0C0
C0C0
C0C0
7F80
3F00
ENDCHAR
STARTCHAR INVERTED
ENCODING 168
SWIDTH 480 0
DWIDTH 12 0
BBX 10 14 1 -4
BITMAP
0C00
0C00
0000
0000
0C00
0C00
1800
3000
6000
C000
C000
C000
7FC0
3FC0
ENDCHAR
STARTCHAR REVERSED
ENCODING 169
SWIDTH 480 0
DWIDTH 12 0
BBX 10 4 1 4
BITMAP
FFC0
FFC0
C000
C000
ENDCHAR
STARTCHAR NOT
ENCODING 170
SWIDTH 480 0
DWIDTH 12 0
BBX 10 4 1 4
BITMAP
FFC0
FFC0
00C0
00C0
ENDCHAR
STARTCHAR VULGAR
ENCODING 171
SWIDTH 480 0
DWIDTH 12 0
BBX 12 24 0 -4
BITMAP
0400
0C00
1C00
3C00
6C00
CC00
0C00
0C00
0C00
0C00
0C00
0C00
0FC0
0FE0
0030
0030
0030
0030
0060
00C0
0180
0300
07F0
0FF0
ENDCHAR
STARTCHAR VULGAR
ENCODING 172
SWIDTH 480 0
DWIDTH 12 0
BBX 12 24 0 -4
BITMAP
0400
0C00
1C00
3C00
6C00
CC00
0C00
0C00
0C00
0C00
0C00
0C00
0010
0030
0070
00F0
01B0
0330
07F0
0FF0
0030
0030
0030
0030
ENDCHAR
STARTCHAR INVERTED
ENCODING 173
SWIDTH 480 0
DWIDTH 12 0
BBX 2 14 5 -4
BITMAP
C0
C0
00
00
C0
C0
C0
C0
C0
C0
C0
C0
C0
C0
ENDCHAR
STARTCHAR LEFT-POINTING
ENCODING 174
SWIDTH 480 0
DWIDTH 12 0
BBX 10 10 1 2
BITMAP
0CC0
1980
3300
6600
CC00
CC00
6600
3300
1980
0CC0
ENDCHAR
STARTCHAR RIGHT-POINTING
ENCODING 175
SWIDTH 480 0
DWIDTH 12 0
BBX 10 10 1 2
BITMAP
CC00
6600
3300
1980
0CC0
0CC0
1980
3300
6600
CC00
ENDCHAR
STARTCHAR LIGHT
ENCODING 176
SWIDTH 480 0
DWIDTH 12 0
BBX 12 23 0 -3
BITMAP
4920
0000
2490
0000
9240
0000
4920
0000
2490
0000
9240
0000
4920
0000
2490
0000
9240
0000
4920
0000
2490
0000
9240
ENDCHAR
STARTCHAR MEDIUM
ENCODING 177
SWIDTH 480 0
DWIDTH 12 0
BBX 12 24 0 -4
BITMAP
5550
AAA0
5550
AAA0
5550
AAA0
5550
AAA0
5550
AAA0
5550
AAA0
5550
AAA0
5550
AAA0
5550
AAA0
5550
AAA0
5550
AAA0
5550
AAA0
ENDCHAR
STARTCHAR DARK
ENCODING 178
SWIDTH 480 0
DWIDTH 12 0
BBX 12 24 0 -4
BITMAP
B6D0
FFF0
DB60
FFF0
6DB0
FFF0
B6D0
FFF0
DB60
FFF0
6DB0
FFF0
B6D0
FFF0
DB60
FFF0
6DB0
FFF0
B6D0
FFF0
DB60
FFF0
6DB0
FFF0
ENDCHAR
STARTCHAR BOX
ENCODING 179
SWIDTH 480 0
DWIDTH 12 0
BBX 2 24 5 -4
BITMAP
C0
C0
C0
C0
C0
C0
C0
C0
C0
C0
C0
C0
C0
C0
C0
C0
C0
C0
C0
C0
C0
C0
C0
C0
ENDCHAR
STARTCHAR BOX
ENCODING 180
SWIDTH 480 0
DWIDTH 12 0
BBX 7 24 0 -4
BITMAP
06
06
06
06
06
06
06
06
06
06
06
FE
FE
06
06
06
06
06
06
06
06
06
06
06
ENDCHAR
STARTCHAR BOX
ENCODING 181
SWIDTH 480 0
DWIDTH 12 0
BBX 7 24 0 -4
BITMAP
06
06
06
06
06
06
06
06
06
FE
FE
06
06
FE
FE
06
06
06
06
06
06
06
06
06
ENDCHAR
STARTCHAR BOX
ENCODING 182
SWIDTH 480 0
DWIDTH 12 0
BBX 9 24 0 -4
BITMAP
1980
1980
1980
1980
1980
1980
1980
1980
1980
1980
1980
F980
F980
1980
1980
1980
1980
1980
1980
1980
1980
1980
1980
1980
ENDCHAR
STARTCHAR BOX
ENCODING 183
SWIDTH 480 0
DWIDTH 12 0
BBX 9 13 0 -4
BITMAP
F000
F980
1980
1980
1980
1980
1980
1980
1980
1980
1980
1980
1980
ENDCHAR
STARTCHAR BOX
ENCODING 184
SWIDTH 480 0
DWIDTH 12 0
BBX 7 15 0 -4
BITMAP
FC
FC
00
00
FC
FE
06
06
06
06
06
06
06
06
06
ENDCHAR
STARTCHAR BOX
ENCODING 185
SWIDTH 480 0
DWIDTH 12 0
BBX 9 24 0 -4
BITMAP
1980
1980
1980
1980
1980
1980
1980
1980
1980
F980
F180
0180
0180
F180
F980
1980
1980
1980
1980
1980
1980
1980
1980
1980
ENDCHAR
STARTCHAR BOX
ENCODING 186
SWIDTH 480 0
DWIDTH 12 0
BBX 6 24 3 -4
BITMAP
CC
CC
CC
CC
CC
CC
CC
CC
CC
CC
CC
CC
CC
CC
CC
CC
CC
CC
CC
CC
CC
CC
CC
CC
ENDCHAR
STARTCHAR BOX
ENCODING 187
SWIDTH 480 0
DWIDTH 12 0
BBX 9 15 0 -4
BITMAP
F000
FC00
0E00
0300
F300
F980
1980
1980
1980
1980
1980
1980
1980
1980
1980
ENDCHAR
STARTCHAR BOX
ENCODING 188
SWIDTH 480 0
DWIDTH 12 0
BBX 9 15 0 5
BITMAP
1980
1980
1980
1980
1980
1980
1980
1980
1980
F980
F300
0300
0E00
FC00
F000
ENDCHAR
STARTCHAR BOX
ENCODING 189
SWIDTH 480 0
DWIDTH 12 0
BBX 9 13 0 7
BITMAP
1980
1980
1980
1980
1980
1980
1980
1980
1980
1980
1980
F980
F000
ENDCHAR
STARTCHAR BOX
ENCODING 190
SWIDTH 480 0
DWIDTH 12 0
BBX 7 15 0 5
BITMAP
06
06
06
06
06
06
06
06
06
FE
FC
00
00
FC
FC
ENDCHAR
STARTCHAR BOX
ENCODING 191
SWIDTH 480 0
DWIDTH 12 0
BBX 7 13 0 -4
BITMAP
FC
FE
06
06
06
06
06
06
06
06
06
06
06
ENDCHAR
STARTCHAR BOX
ENCODING 192
SWIDTH 480 0
DWIDTH 12 0
BBX 7 13 5 7
BITMAP
C0
C0
C0
C0
C0
C0
C0
C0
C0
C0
C0
FE
7E
ENDCHAR
STARTCHAR BOX
ENCODING 193
SWIDTH 480 0
DWIDTH 12 0
BBX 12 13 0 7
BITMAP
0600
0600
0600
0600
0600
0600
0600
0600
0600
0600
0600
FFF0
FFF0
ENDCHAR
STARTCHAR BOX
ENCODING 194
SWIDTH 480 0
DWIDTH 12 0
BBX 12 13 0 -4
BITMAP
FFF0
FFF0
0600
0600
0600
0600
0600
0600
0600
0600
0600
0600
0600
ENDCHAR
STARTCHAR BOX
ENCODING 195
SWIDTH 480 0
DWIDTH 12 0
BBX 7 24 5 -4
BITMAP
C0
C0
C0
C0
C0
C0
C0
C0
C0
C0
C0
FE
FE
C0
C0
C0
C0
C0
C0
C0
C0
C0
C0
C0
ENDCHAR
STARTCHAR BOX
ENCODING 196
SWIDTH 480 0
DWIDTH 12 0
BBX 12 2 0 7
BITMAP
FFF0
FFF0
ENDCHAR
STARTCHAR BOX
ENCODING 197
SWIDTH 480 0
DWIDTH 12 0
BBX 12 24 0 -4
BITMAP
0600
0600
0600
0600
0600
0600
0600
0600
0600
0600
0600
FFF0
FFF0
0600
0600
0600
0600
0600
0600
0600
0600
0600
0600
0600
ENDCHAR
STARTCHAR BOX
ENCODING 198
SWIDTH 480 0
DWIDTH 12 0
BBX 7 24 5 -4
BITMAP
C0
C0
C0
C0
C0
C0
C0
C0
C0
FE
FE
C0
C0
FE
FE
C0
C0
C0
C0
C0
C0
C0
C0
C0
ENDCHAR
STARTCHAR BOX
ENCODING 199
SWIDTH 480 0
DWIDTH 12 0
BBX 9 24 3 -4
BITMAP
CC00
CC00
CC00
CC00
CC00
CC00
CC00
CC00
CC00
CC00
CC00
CF80
CF80
CC00
CC00
CC00
CC00
CC00
CC00
CC00
CC00
CC00
CC00
CC00
ENDCHAR
STARTCHAR BOX
ENCODING 200
SWIDTH 480 0
DWIDTH 12 0
BBX 9 15 3 5
BITMAP
CC00
CC00
CC00
CC00
CC00
CC00
CC00
CC00
CC00
CF80
6780
6000
3800
1F80
0780
ENDCHAR
STARTCHAR BOX
ENCODING 201
SWIDTH 480 0
DWIDTH 12 0
BBX 9 15 3 -4
BITMAP
0780
1F80
3800
6000
6780
CF80
CC00
CC00
CC00
CC00
CC00
CC00
CC00
CC00
CC00
ENDCHAR
STARTCHAR BOX
ENCODING 202
SWIDTH 480 0
DWIDTH 12 0
BBX 12 15 0 5
BITMAP
1980
1980
1980
1980
1980
1980
1980
1980
1980
F9F0
F0F0
0000
0000
FFF0
FFF0
ENDCHAR
STARTCHAR BOX
ENCODING 203
SWIDTH 480 0
DWIDTH 12 0
BBX 12 15 0 -4
BITMAP
FFF0
FFF0
0000
0000
F0F0
F9F0
1980
1980
1980
1980
1980
1980
1980
1980
1980
ENDCHAR
STARTCHAR BOX
ENCODING 204
SWIDTH 480 0
DWIDTH 12 0
BBX 9 24 3 -4
BITMAP
CC00
CC00
CC00
CC00
CC00
CC00
CC00
CC00
CC00
CF80
C780
C000
C000
C780
CF80
CC00
CC00
CC00
CC00
CC00
CC00
CC00
CC00
CC00
ENDCHAR
STARTCHAR BOX
ENCODING 205
SWIDTH 480 0
DWIDTH 12 0
BBX 12 6 0 5
BITMAP
FFF0
FFF0
0000
0000
FFF0
FFF0
ENDCHAR
STARTCHAR BOX
ENCODING 206
SWIDTH 480 0
DWIDTH 12 0
BBX 12 24 0 -4
BITMAP
1980
1980
1980
1980
1980
1980
1980
1980
1980
F9F0
F0F0
0600
0600
F0F0
F9F0
1980
1980
1980
1980
1980
1980
1980
1980
1980
ENDCHAR
STARTCHAR BOX
ENCODING 207
SWIDTH 480 0
DWIDTH 12 0
BBX 12 15 0 5
BITMAP
0600
0600
0600
0600
0600
0600
0600
0600
0600
FFF0
FFF0
0000
0000
FFF0
FFF0
ENDCHAR
STARTCHAR BOX
ENCODING 208
SWIDTH 480 0
DWIDTH 12 0
BBX 12 13 0 7
BITMAP
1980
1980
1980
1980
1980
1980
1980
1980
1980
1980
1980
FFF0
FFF0
ENDCHAR
STARTCHAR BOX
ENCODING 209
SWIDTH 480 0
DWIDTH 12 0
BBX 12 15 0 -4
BITMAP
FFF0
FFF0
0000
0000
FFF0
FFF0
0600
0600
0600
0600
0600
0600
0600
0600
0600
ENDCHAR
STARTCHAR BOX
ENCODING 210
SWIDTH 480 0
DWIDTH 12 0
BBX 12 13 0 -4
BITMAP
FFF0
FFF0
1980
1980
1980
1980
1980
1980
1980
1980
1980
1980
1980
ENDCHAR
STARTCHAR BOX
ENCODING 211
SWIDTH 480 0
DWIDTH 12 0
BBX 9 13 3 7
BITMAP
CC00
CC00
CC00
CC00
CC00
CC00
CC00
CC00
CC00
CC00
CC00
CF80
0780
ENDCHAR
STARTCHAR BOX
ENCODING 212
SWIDTH 480 0
DWIDTH 12 0
BBX 7 15 5 5
BITMAP
C0
C0
C0
C0
C0
C0
C0
C0
C0
7E
3E
00
00
7E
7E
ENDCHAR
STARTCHAR BOX
ENCODING 213
SWIDTH 480 0
DWIDTH 12 0
BBX 7 15 5 -4
BITMAP
7E
7E
00
00
7E
FE
C0
C0
C0
C0
C0
C0
C0
C0
C0
ENDCHAR
STARTCHAR BOX
ENCODING 214
SWIDTH 480 0
DWIDTH 12 0
BBX 9 15 3 -4
BITMAP
0780
CF80
CC00
CC00
CC00
CC00
CC00
CC00
CC00
CC00
CC00
CC00
CC00
CC00
CC00
ENDCHAR
STARTCHAR BOX
ENCODING 215
SWIDTH 480 0
DWIDTH 12 0
BBX 12 24 0 -4
BITMAP
1980
1980
1980
1980
1980
1980
1980
1980
1980
1980
1980
F9F0
F9F0
1980
1980
1980
1980
1980
1980
1980
1980
1980
1980
1980
ENDCHAR
STARTCHAR BOX
ENCODING 216
SWIDTH 480 0
DWIDTH 12 0
BBX 12 24 0 -4
BITMAP
0600
0600
0600
0600
0600
0600
0600
0600
0600
FFF0
FFF0
0000
0000
FFF0
FFF0
0600
0600
0600
0600
0600
0600
0600
0600
0600
ENDCHAR
STARTCHAR BOX
ENCODING 217
SWIDTH 480 0
DWIDTH 12 0
BBX 7 13 0 7
BITMAP
06
06
06
06
06
06
06
06
06
06
06
FE
FC
ENDCHAR
STARTCHAR BOX
ENCODING 218
SWIDTH 480 0
DWIDTH 12 0
BBX 7 13 5 -4
BITMAP
7E
FE
C0
C0
C0
C0
C0
C0
C0
C0
C0
C0
C0
ENDCHAR
STARTCHAR FULL
ENCODING 219
SWIDTH 480 0
DWIDTH 12 0
BBX 12 24 0 -4
BITMAP
FFF0
FFF0
FFF0
FFF0
FFF0
FFF0
FFF0
FFF0
FFF0
FFF0
FFF0
FFF0
FFF0
FFF0
FFF0
FFF0
FFF0
FFF0
FFF0
FFF0
FFF0
FFF0
FFF0
FFF0
ENDCHAR
STARTCHAR LOWER
ENCODING 220
SWIDTH 480 0
DWIDTH 12 0
BBX 12 12 0 -4
BITMAP
FFF0
FFF0
FFF0
FFF0
FFF0
FFF0
FFF0
FFF0
FFF0
FFF0
FFF0
FFF0
ENDCHAR
STARTCHAR LEFT
ENCODING 221
SWIDTH 480 0
DWIDTH 12 0
BBX 6 24 0 -4
BITMAP
FC
FC
FC
FC
FC
FC
FC
FC
FC
FC
FC
FC
FC
FC
FC
FC
FC
FC
FC
FC
FC
FC
FC
FC
ENDCHAR
STARTCHAR RIGHT
ENCODING 222
SWIDTH 480 0
DWIDTH 12 0
BBX 6 24 6 -4
BITMAP
FC
FC
FC
FC
FC
FC
FC
FC
FC
FC
FC
FC
FC
FC
FC
FC
FC
FC
FC
FC
FC
FC
FC
FC
ENDCHAR
STARTCHAR UPPER
ENCODING 223
SWIDTH 480 0
DWIDTH 12 0
BBX 12 12 0 8
BITMAP
FFF0
FFF0
FFF0
FFF0
FFF0
FFF0
FFF0
FFF0
FFF0
FFF0
FFF0
FFF0
ENDCHAR
STARTCHAR GREEK
ENCODING 224
SWIDTH 480 0
DWIDTH 12 0
BBX 10 10 1 0
BITMAP
3EC0
7FC0
C180
C180
C180
C180
C180
C180
7FC0
3EC0
ENDCHAR
STARTCHAR LATIN
ENCODING 225
SWIDTH 480 0
DWIDTH 12 0
BBX 10 16 1 0
BITMAP
3C00
7E00
C300
C300
C300
C300
C600
CC00
C600
C300
C180
C0C0
C0C0
C0C0
DF80
DF00
ENDCHAR
STARTCHAR GREEK
ENCODING 226
SWIDTH 480 0
DWIDTH 12 0
BBX 10 14 1 0
BITMAP
FFC0
FFC0
C000
C000
C000
C000
C000
C000
C000
C000
C000
C000
C000
C000
ENDCHAR
STARTCHAR GREEK
ENCODING 227
SWIDTH 480 0
DWIDTH 12 0
BBX 10 10 1 0
BITMAP
FFC0
FFC0
3300
3300
3300
3300
3300
3300
E3C0
C1C0
ENDCHAR
STARTCHAR GREEK
ENCODING 228
SWIDTH 480 0
DWIDTH 12 0
BBX 10 14 1 0
BITMAP
FFC0
FFC0
C000
6000
3000
1800
0C00
0C00
1800
3000
6000
C000
FFC0
FFC0
ENDCHAR
STARTCHAR GREEK
ENCODING 229
SWIDTH 480 0
DWIDTH 12 0
BBX 10 10 1 0
BITMAP
3FC0
7FC0
C180
C0C0
C0C0
C0C0
C0C0
C0C0
7F80
3F00
ENDCHAR
STARTCHAR MICRO
ENCODING 230
SWIDTH 480 0
DWIDTH 12 0
BBX 10 14 1 -4
BITMAP
C0C0
C0C0
C0C0
C0C0
C0C0
C0C0
C0C0
C0C0
FF80
FF00
C000
C000
C000
C000
ENDCHAR
STARTCHAR GREEK
ENCODING 231
SWIDTH 480 0
DWIDTH 12 0
BBX 10 10 1 0
BITMAP
FFC0
FFC0
0C00
0C00
0C00
0C00
0C00
0C00
0C00
0600
ENDCHAR
STARTCHAR GREEK
ENCODING 232
SWIDTH 480 0
DWIDTH 12 0
BBX 10 14 1 0
BITMAP
0C00
0C00
3F00
7F80
CCC0
CCC0
CCC0
CCC0
CCC0
CCC0
7F80
3F00
0C00
0C00
ENDCHAR
STARTCHAR GREEK
ENCODING 233
SWIDTH 480 0
DWIDTH 12 0
BBX 10 14 1 0
BITMAP
3F00
7F80
C0C0
C0C0
C0C0
C0C0
FFC0
FFC0
C0C0
C0C0
C0C0
C0C0
7F80
3F00
ENDCHAR
STARTCHAR GREEK
ENCODING 234
SWIDTH 480 0
DWIDTH 12 0
BBX 10 14 1 0
BITMAP
3F00
7F80
C0C0
C0C0
C0C0
C0C0
C0C0
C0C0
C0C0
C0C0
7380
3300
F3C0
F3C0
ENDCHAR
STARTCHAR GREEK
ENCODING 235
SWIDTH 480 0
DWIDTH 12 0
BBX 10 16 1 0
BITMAP
3F00
7F00
C000
C000
7000
1C00
3F00
7F80
C0C0
C0C0
C0C0
C0C0
C0C0
C0C0
7F80
3F00
ENDCHAR
STARTCHAR INFINITY
ENCODING 236
SWIDTH 480 0
DWIDTH 12 0
BBX 12 10 0 2
BITMAP
39C0
7FE0
C630
C630
C630
C630
C630
C630
7FE0
39C0
ENDCHAR
STARTCHAR GREEK
ENCODING 237
SWIDTH 480 0
DWIDTH 12 0
BBX 10 14 1 -4
BITMAP
0300
C780
CCC0
CCC0
CCC0
CCC0
CCC0
CCC0
7F80
3F00
0C00
0C00
0C00
0C00
ENDCHAR
STARTCHAR GREEK
ENCODING 238
SWIDTH 480 0
DWIDTH 12 0
BBX 10 10 1 0
BITMAP
3FC0
7FC0
C000
C000
7C00
7C00
C000
C000
7FC0
3FC0
ENDCHAR
STARTCHAR INTERSECTION
ENCODING 239
SWIDTH 480 0
DWIDTH 12 0
BBX 10 12 1 0
BITMAP
3F00
7F80
C0C0
C0C0
C0C0
C0C0
C0C0
C0C0
C0C0
C0C0
C0C0
C0C0
ENDCHAR
STARTCHAR IDENTICAL
ENCODING 240
SWIDTH 480 0
DWIDTH 12 0
BBX 10 8 1 3
BITMAP
FFC0
FFC0
0000
FFC0
FFC0
0000
FFC0
FFC0
ENDCHAR
STARTCHAR PLUS-MINUS
ENCODING 241
SWIDTH 480 0
DWIDTH 12 0
BBX 10 14 1 0
BITMAP
0C00
0C00
0C00
0C00
FFC0
FFC0
0C00
0C00
0C00
0C00
0000
0000
FFC0
FFC0
ENDCHAR
STARTCHAR GREATER-THAN
ENCODING 242
SWIDTH 480 0
DWIDTH 12 0
BBX 10 13 1 0
BITMAP
C000
F000
3C00
0F00
03C0
03C0
0F00
3C00
F000
C000
0000
FFC0
FFC0
ENDCHAR
STARTCHAR LESS-THAN
ENCODING 243
SWIDTH 480 0
DWIDTH 12 0
BBX 10 13 1 0
BITMAP
00C0
03C0
0F00
3C00
F000
F000
3C00
0F00
03C0
00C0
0000
FFC0
FFC0
ENDCHAR
STARTCHAR TOP
ENCODING 244
SWIDTH 480 0
DWIDTH 12 0
BBX 7 22 5 -4
BITMAP
3E
7E
C0
C0
C0
C0
C0
C0
C0
C0
C0
C0
C0
C0
C0
C0
C0
C0
C0
C0
C0
C0
ENDCHAR
STARTCHAR BOTTOM
ENCODING 245
SWIDTH 480 0
DWIDTH 12 0
BBX 7 22 0 -2
BITMAP
06
06
06
06
06
06
06
06
06
06
06
06
06
06
06
06
06
06
06
06
FC
F8
ENDCHAR
STARTCHAR DIVISION
ENCODING 246
SWIDTH 480 0
DWIDTH 12 0
BBX 10 10 1 2
BITMAP
0C00
0C00
0000
0000
FFC0
FFC0
0000
0000
0C00
0C00
ENDCHAR
STARTCHAR ALMOST
ENCODING 247
SWIDTH 480 0
DWIDTH 12 0
BBX 10 8 1 2
BITMAP
38C0
7CC0
CF80
C700
38C0
7CC0
CF80
C700
ENDCHAR
STARTCHAR DEGREE
ENCODING 248
SWIDTH 480 0
DWIDTH 12 0
BBX 6 6 3 8
BITMAP
30
78
CC
CC
78
30
ENDCHAR
STARTCHAR BULLET
ENCODING 249
SWIDTH 480 0
DWIDTH 12 0
BBX 6 6 3 4
BITMAP
30
78
FC
FC
78
30
ENDCHAR
STARTCHAR MIDDLE
ENCODING 250
SWIDTH 480 0
DWIDTH 12 0
BBX 2 2 5 6
BITMAP
C0
C0
ENDCHAR
STARTCHAR SQUARE
ENCODING 251
SWIDTH 480 0
DWIDTH 12 0
BBX 12 14 0 0
BITMAP
0030
0030
0060
0060
00C0
00C0
0180
0180
0300
C300
6600
3600
1C00
0C00
ENDCHAR
STARTCHAR SUPERSCRIPT
ENCODING 252
SWIDTH 480 0
DWIDTH 12 0
BBX 10 10 1 6
BITMAP
FF00
FF80
C0C0
C0C0
C0C0
C0C0
C0C0
C0C0
C0C0
C0C0
ENDCHAR
STARTCHAR SUPERSCRIPT
ENCODING 253
SWIDTH 480 0
DWIDTH 12 0
BBX 10 14 1 6
BITMAP
FF00
FF80
00C0
00C0
00C0
00C0
0180
0300
0600
0C00
1800
3000
7FC0
FFC0
ENDCHAR
STARTCHAR BLACK
ENCODING 254
SWIDTH 480 0
DWIDTH 12 0
BBX 10 10 1 2
BITMAP
FFC0
FFC0
FFC0
FFC0
FFC0
FFC0
FFC0
FFC0
FFC0
FFC0
ENDCHAR
STARTCHAR NO-BREAK
ENCODING 255
SWIDTH 480 0
DWIDTH 12 0
BBX 1 1 11 -4
BITMAP
00
ENDCHAR
STARTCHAR CURRENCY
ENCODING -1
SWIDTH 480 0
DWIDTH 12 0
BBX 10 10 1 2
BITMAP
C0C0
6180
5E80
3F00
3300
3300
3F00
5E80
6180
C0C0
ENDCHAR
STARTCHAR BROKEN
ENCODING -1
SWIDTH 480 0
DWIDTH 12 0
BBX 2 24 5 -4
BITMAP
C0
C0
C0
C0
C0
C0
C0
C0
C0
C0
00
00
00
00
C0
C0
C0
C0
C0
C0
C0
C0
C0
C0
ENDCHAR
STARTCHAR SECTION
ENCODING -1
SWIDTH 480 0
DWIDTH 12 0
BBX 10 22 1 -4
BITMAP
3FC0
7FC0
C000
C000
C000
C000
7F00
7F80
C0C0
C0C0
C0C0
C0C0
C0C0
C0C0
7F80
3F80
00C0
00C0
00C0
00C0
FF80
FF00
ENDCHAR
STARTCHAR DIAERESIS
ENCODING -1
SWIDTH 480 0
DWIDTH 12 0
BBX 6 2 3 16
BITMAP
CC
CC
ENDCHAR
STARTCHAR COPYRIGHT
ENCODING -1
SWIDTH 480 0
DWIDTH 12 0
BBX 12 16 0 -1
BITMAP
1F80
3FC0
6060
C030
C7B0
CFB0
D830
D830
D830
D830
CFB0
C7B0
C030
6060
3FC0
1F80
ENDCHAR
STARTCHAR SOFT
ENCODING -1
SWIDTH 480 0
DWIDTH 12 0
BBX 6 2 3 6
BITMAP
FC
FC
ENDCHAR
STARTCHAR REGISTERED
ENCODING -1
SWIDTH 480 0
DWIDTH 12 0
BBX 12 16 0 3
BITMAP
1F80
3FC0
6060
C030
DE30
DF30
D9B0
D9B0
DF30
DE30
DB30
D9B0
C030
6060
3FC0
1F80
ENDCHAR
STARTCHAR MACRON
ENCODING -1
SWIDTH 480 0
DWIDTH 12 0
BBX 10 2 1 14
BITMAP
FFC0
FFC0
ENDCHAR
STARTCHAR SUPERSCRIPT
ENCODING -1
SWIDTH 480 0
DWIDTH 12 0
BBX 10 14 1 6
BITMAP
FF00
FF80
00C0
00C0
00C0
00C0
0F80
0F80
00C0
00C0
00C0
00C0
FF80
FF00
ENDCHAR
STARTCHAR ACUTE
ENCODING -1
SWIDTH 480 0
DWIDTH 12 0
BBX 6 5 3 11
BITMAP
0C
18
30
60
C0
ENDCHAR
STARTCHAR PILCROW
ENCODING -1
SWIDTH 480 0
DWIDTH 12 0
BBX 10 16 1 0
BITMAP
3FC0
7FC0
FCC0
FCC0
FCC0
FCC0
FCC0
FCC0
7CC0
3CC0
0CC0
0CC0
0CC0
0CC0
0CC0
0CC0
ENDCHAR
STARTCHAR CEDILLA
ENCODING -1
SWIDTH 480 0
DWIDTH 12 0
BBX 6 4 3 -4
BITMAP
18
0C
FC
78
ENDCHAR
STARTCHAR SUPERSCRIPT
ENCODING -1
SWIDTH 480 0
DWIDTH 12 0
BBX 6 14 3 6
BITMAP
04
0C
1C
3C
6C
CC
0C
0C
0C
0C
0C
0C
0C
0C
ENDCHAR
STARTCHAR VULGAR
ENCODING -1
SWIDTH 480 0
DWIDTH 12 0
BBX 12 24 0 -4
BITMAP
FE00
FF00
0180
0180
0180
0180
0F00
0F00
0180
0180
0180
0180
FF10
FE30
0070
00F0
01B0
0330
07F0
0FF0
0030
0030
0030
0030
ENDCHAR
STARTCHAR LATIN
ENCODING -1
SWIDTH 480 0
DWIDTH 12 0
BBX 10 20 1 0
BITMAP
6000
3000
1800
0C00
0000
0000
3F00
7F80
C0C0
C0C0
C0C0
C0C0
C0C0
C0C0
FFC0
FFC0
C0C0
C0C0
C0C0
C0C0
ENDCHAR
STARTCHAR LATIN
ENCODING -1
SWIDTH 480 0
DWIDTH 12 0
BBX 10 20 1 0
BITMAP
0180
0300
0600
0C00
0000
0000
3F00
7F80
C0C0
C0C0
C0C0
C0C0
C0C0
C0C0
FFC0
FFC0
C0C0
C0C0
C0C0
C0C0
ENDCHAR
STARTCHAR LATIN
ENCODING -1
SWIDTH 480 0
DWIDTH 12 0
BBX 10 20 1 0
BITMAP
0C00
1E00
3300
6180
0000
0000
3F00
7F80
C0C0
C0C0
C0C0
C0C0
C0C0
C0C0
FFC0
FFC0
C0C0
C0C0
C0C0
C0C0
ENDCHAR
STARTCHAR LATIN
ENCODING -1
SWIDTH 480 0
DWIDTH 12 0
BBX 10 20 1 0
BITMAP
30C0
7CC0
CF80
C300
0000
0000
3F00
7F80
C0C0
C0C0
C0C0
C0C0
C0C0
C0C0
FFC0
FFC0
C0C0
C0C0
C0C0
C0C0
ENDCHAR
STARTCHAR LATIN
ENCODING -1
SWIDTH 480 0
DWIDTH 12 0
BBX 10 20 1 0
BITMAP
6000
3000
1800
0C00
0000
0000
FFC0
FFC0
C000
C000
C000
C000
FC00
FC00
C000
C000
C000
C000
FFC0
FFC0
ENDCHAR
STARTCHAR LATIN
ENCODING -1
SWIDTH 480 0
DWIDTH 12 0
BBX 10 20 1 0
BITMAP
0C00
1E00
3300
6180
0000
0000
FFC0
FFC0
C000
C000
C000
C000
FC00
FC00
C000
C000
C000
C000
FFC0
FFC0
ENDCHAR
STARTCHAR LATIN
ENCODING -1
SWIDTH 480 0
DWIDTH 12 0
BBX 10 18 1 0
BITMAP
3300
3300
0000
0000
FFC0
FFC0
C000
C000
C000
C000
FC00
FC00
C000
C000
C000
C000
FFC0
FFC0
ENDCHAR
STARTCHAR LATIN
ENCODING -1
SWIDTH 480 0
DWIDTH 12 0
BBX 6 20 2 0
BITMAP
C0
60
30
18
00
00
3C
3C
18
18
18
18
18
18
18
18
18
18
3C
3C
ENDCHAR
STARTCHAR LATIN
ENCODING -1
SWIDTH 480 0
DWIDTH 12 0
BBX 6 20 4 0
BITMAP
0C
18
30
60
00
00
F0
F0
60
60
60
60
60
60
60
60
60
60
F0
F0
ENDCHAR
STARTCHAR LATIN
ENCODING -1
SWIDTH 480 0
DWIDTH 12 0
BBX 8 20 2 0
BITMAP
18
3C
66
C3
00
00
3C
3C
18
18
18
18
18
18
18
18
18
18
3C
3C
ENDCHAR
STARTCHAR LATIN
ENCODING -1
SWIDTH 480 0
DWIDTH 12 0
BBX 6 18 3 0
BITMAP
CC
CC
00
00
78
78
30
30
30
30
30
30
30
30
30
30
78
78
ENDCHAR
STARTCHAR LATIN
ENCODING -1
SWIDTH 480 0
DWIDTH 12 0
BBX 12 14 0 0
BITMAP
3FC0
3FE0
3030
3030
3030
3030
FF30
FF30
3030
3030
3030
3030
3FE0
3FC0
ENDCHAR
STARTCHAR LATIN
ENCODING -1
SWIDTH 480 0
DWIDTH 12 0
BBX 10 20 1 0
BITMAP
6000
3000
1800
0C00
0000
0000
3F00
7F80
C0C0
C0C0
C0C0
C0C0
C0C0
C0C0
C0C0
C0C0
C0C0
C0C0
7F80
3F00
ENDCHAR
STARTCHAR LATIN
ENCODING -1
SWIDTH 480 0
DWIDTH 12 0
BBX 10 20 1 0
BITMAP
0180
0300
0600
0C00
0000
0000
3F00
7F80
C0C0
C0C0
C0C0
C0C0
C0C0
C0C0
C0C0
C0C0
C0C0
C0C0
7F80
3F00
ENDCHAR
STARTCHAR LATIN
ENCODING -1
SWIDTH 480 0
DWIDTH 12 0
BBX 10 20 1 0
BITMAP
0C00
1E00
3300
6180
0000
0000
3F00
7F80
C0C0
C0C0
C0C0
C0C0
C0C0
C0C0
C0C0
C0C0
C0C0
C0C0
7F80
3F00
ENDCHAR
STARTCHAR LATIN
ENCODING -1
SWIDTH 480 0
DWIDTH 12 0
BBX 10 20 1 0
BITMAP
30C0
7CC0
CF80
C300
0000
0000
3F00
7F80
C0C0
C0C0
C0C0
C0C0
C0C0
C0C0
C0C0
C0C0
C0C0
C0C0
7F80
3F00
ENDCHAR
STARTCHAR MULTIPLICATION
ENCODING -1
SWIDTH 480 0
DWIDTH 12 0
BBX 10 10 1 2
BITMAP
4080
E1C0
7380
3F00
1E00
1E00
3F00
7380
E1C0
4080
ENDCHAR
STARTCHAR LATIN
ENCODING -1
SWIDTH 480 0
DWIDTH 12 0
BBX 10 14 1 0
BITMAP
3FC0
7FC0
C3C0
C3C0
C6C0
C6C0
CCC0
CCC0
D8C0
D8C0
F0C0
F0C0
FF80
FF00
ENDCHAR
STARTCHAR LATIN
ENCODING -1
SWIDTH 480 0
DWIDTH 12 0
BBX 10 20 1 0
BITMAP
6000
3000
1800
0C00
0000
0000
C0C0
C0C0
C0C0
C0C0
C0C0
C0C0
C0C0
C0C0
C0C0
C0C0
C0C0
C0C0
7F80
3F00
ENDCHAR
STARTCHAR LATIN
ENCODING -1
SWIDTH 480 0
DWIDTH 12 0
BBX 10 20 1 0
BITMAP
0180
0300
0600
0C00
0000
0000
C0C0
C0C0
C0C0
C0C0
C0C0
C0C0
C0C0
C0C0
C0C0
C0C0
C0C0
C0C0
7F80
3F00
ENDCHAR
STARTCHAR LATIN
ENCODING -1
SWIDTH 480 0
DWIDTH 12 0
BBX 10 20 1 0
BITMAP
0C00
1E00
3300
6180
0000
0000
C0C0
C0C0
C0C0
C0C0
C0C0
C0C0
C0C0
C0C0
C0C0
C0C0
C0C0
C0C0
7F80
3F00
ENDCHAR
STARTCHAR LATIN
ENCODING -1
SWIDTH 480 0
DWIDTH 12 0
BBX 10 20 1 0
BITMAP
0180
0300
0600
0C00
0000
0000
C0C0
C0C0
C0C0
C0C0
6180
3300
1E00
0C00
0C00
0C00
0C00
0C00
0C00
0C00
ENDCHAR
STARTCHAR LATIN
ENCODING -1
SWIDTH 480 0
DWIDTH 12 0
BBX 10 14 2 0
BITMAP
C000
C000
FF00
FF80
C0C0
C0C0
C0C0
C0C0
C0C0
C0C0
FF80
FF00
C000
C000
ENDCHAR
STARTCHAR LATIN
ENCODING -1
SWIDTH 480 0
DWIDTH 12 0
BBX 10 16 1 0
BITMAP
30C0
7CC0
CF80
C300
0000
0000
3F00
3F80
00C0
00C0
3FC0
7FC0
C0C0
C0C0
7FC0
3FC0
ENDCHAR
STARTCHAR LATIN
ENCODING -1
SWIDTH 480 0
DWIDTH 12 0
BBX 10 18 1 0
BITMAP
3180
1B00
0E00
0E00
1B00
3180
0180
00C0
3FC0
7FC0
C0C0
C0C0
C0C0
C0C0
C0C0
C0C0
7F80
3F00
ENDCHAR
STARTCHAR LATIN
ENCODING -1
SWIDTH 480 0
DWIDTH 12 0
BBX 10 16 1 0
BITMAP
30C0
7CC0
CF80
C300
0000
0000
3F00
7F80
C0C0
C0C0
C0C0
C0C0
C0C0
C0C0
7F80
3F00
ENDCHAR
STARTCHAR LATIN
ENCODING -1
SWIDTH 480 0
DWIDTH 12 0
BBX 10 10 1 0
BITMAP
3FC0
7FC0
C3C0
C7C0
CEC0
DCC0
F8C0
F0C0
FF80
FF00
ENDCHAR
STARTCHAR LATIN
ENCODING -1
SWIDTH 480 0
DWIDTH 12 0
BBX 10 20 1 -4
BITMAP
0180
0300
0600
0C00
0000
0000
C0C0
C0C0
C0C0
C0C0
C0C0
C0C0
C0C0
C0C0
7FC0
3FC0
00C0
00C0
1F80
1F00
ENDCHAR
STARTCHAR LATIN
ENCODING -1
SWIDTH 480 0
DWIDTH 12 0
BBX 10 18 1 -4
BITMAP
C000
C000
C000
C000
FF00
FF80
C0C0
C0C0
C0C0
C0C0
C0C0
C0C0
FF80
FF00
C000
C000
C000
C000
ENDCHAR
STARTCHAR LATIN
ENCODING -1
SWIDTH 480 0
DWIDTH 12 0
BBX 10 18 1 0
BITMAP
7F80
7F80
0000
0000
3F00
7F80
C0C0
C0C0
C0C0
C0C0
C0C0
C0C0
FFC0
FFC0
C0C0
C0C0
C0C0
C0C0
ENDCHAR
STARTCHAR LATIN
ENCODING -1
SWIDTH 480 0
DWIDTH 12 0
BBX 10 14 1 0
BITMAP
7F80
7F80
0000
0000
3F00
3F80
00C0
00C0
3FC0
7FC0
C0C0
C0C0
7FC0
3FC0
ENDCHAR
STARTCHAR LATIN
ENCODING -1
SWIDTH 480 0
DWIDTH 12 0
BBX 10 19 1 0
BITMAP
C0C0
7F80
3F00
0000
0000
3F00
7F80
C0C0
C0C0
C0C0
C0C0
C0C0
C0C0
FFC0
FFC0
C0C0
C0C0
C0C0
C0C0
ENDCHAR
STARTCHAR LATIN
ENCODING -1
SWIDTH 480 0
DWIDTH 12 0
BBX 10 15 1 0
BITMAP
6180
3F00
1E00
0000
0000
3F00
3F80
00C0
00C0
3FC0
7FC0
C0C0
C0C0
7FC0
3FC0
ENDCHAR
STARTCHAR LATIN
ENCODING -1
SWIDTH 480 0
DWIDTH 12 0
BBX 11 18 1 -4
BITMAP
3F00
7F80
C0C0
C0C0
C0C0
C0C0
C0C0
C0C0
FFC0
FFC0
C0C0
C0C0
C0C0
C0C0
0180
0180
00E0
0060
ENDCHAR
STARTCHAR LATIN
ENCODING -1
SWIDTH 480 0
DWIDTH 12 0
BBX 11 14 1 -4
BITMAP
3F00
3F80
00C0
00C0
3FC0
7FC0
C0C0
C0C0
7FC0
3FC0
0180
0180
00E0
0060
ENDCHAR
STARTCHAR LATIN
ENCODING -1
SWIDTH 480 0
DWIDTH 12 0
BBX 10 20 1 0
BITMAP
0180
0300
0600
0C00
0000
0000
3FC0
7FC0
C000
C000
C000
C000
C000
C000
C000
C000
C000
C000
7FC0
3FC0
ENDCHAR
STARTCHAR LATIN
ENCODING -1
SWIDTH 480 0
DWIDTH 12 0
BBX 10 16 1 0
BITMAP
0180
0300
0600
0C00
0000
0000
3FC0
7FC0
C000
C000
C000
C000
C000
C000
7FC0
3FC0
ENDCHAR
STARTCHAR LATIN
ENCODING -1
SWIDTH 480 0
DWIDTH 12 0
BBX 10 20 1 0
BITMAP
0C00
1E00
3300
6180
0000
0000
3FC0
7FC0
C000
C000
C000
C000
C000
C000
C000
C000
C000
C000
7FC0
3FC0
ENDCHAR
STARTCHAR LATIN
ENCODING -1
SWIDTH 480 0
DWIDTH 12 0
BBX 10 16 1 0
BITMAP
0C00
1E00
3300
6180
0000
0000
3FC0
7FC0
C000
C000
C000
C000
C000
C000
7FC0
3FC0
ENDCHAR
STARTCHAR LATIN
ENCODING -1
SWIDTH 480 0
DWIDTH 12 0
BBX 10 18 1 0
BITMAP
0C00
0C00
0000
0000
3FC0
7FC0
C000
C000
C000
C000
C000
C000
C000
C000
C000
C000
7FC0
3FC0
ENDCHAR
STARTCHAR LATIN
ENCODING -1
SWIDTH 480 0
DWIDTH 12 0
BBX 10 14 1 0
BITMAP
0C00
0C00
0000
0000
3FC0
7FC0
C000
C000
C000
C000
C000
C000
7FC0
3FC0
ENDCHAR
STARTCHAR LATIN
ENCODING -1
SWIDTH 480 0
DWIDTH 12 0
BBX 10 20 1 0
BITMAP
6180
3300
1E00
0C00
0000
0000
3FC0
7FC0
C000
C000
C000
C000
C000
C000
C000
C000
C000
C000
7FC0
3FC0
ENDCHAR
STARTCHAR LATIN
ENCODING -1
SWIDTH 480 0
DWIDTH 12 0
BBX 10 16 1 0
BITMAP
6180
3300
1E00
0C00
0000
0000
3FC0
7FC0
C000
C000
C000
C000
C000
C000
7FC0
3FC0
ENDCHAR
STARTCHAR LATIN
ENCODING -1
SWIDTH 480 0
DWIDTH 12 0
BBX 10 20 1 0
BITMAP
6180
3300
1E00
0C00
0000
0000
FF00
FF80
C0C0
C0C0
C0C0
C0C0
C0C0
C0C0
C0C0
C0C0
C0C0
C0C0
FF80
FF00
ENDCHAR
STARTCHAR LATIN
ENCODING -1
SWIDTH 480 0
DWIDTH 12 0
BBX 12 20 0 0
BITMAP
0030
0030
0060
00C0
0000
00C0
00C0
00C0
00C0
00C0
3FC0
7FC0
C0C0
C0C0
C0C0
C0C0
C0C0
C0C0
7FC0
3FC0
ENDCHAR
STARTCHAR LATIN
ENCODING -1
SWIDTH 480 0
DWIDTH 12 0
BBX 12 14 0 0
BITMAP
3FC0
3FE0
3030
3030
3030
3030
FE30
FE30
3030
3030
3030
3030
3FE0
3FC0
ENDCHAR
STARTCHAR LATIN
ENCODING -1
SWIDTH 480 0
DWIDTH 12 0
BBX 12 16 0 0
BITMAP
00C0
00C0
07F0
07F0
00C0
00C0
3FC0
7FC0
C0C0
C0C0
C0C0
C0C0
C0C0
C0C0
7FC0
3FC0
ENDCHAR
STARTCHAR LATIN
ENCODING -1
SWIDTH 480 0
DWIDTH 12 0
BBX 10 18 1 0
BITMAP
7F80
7F80
0000
0000
FFC0
FFC0
C000
C000
C000
C000
FC00
FC00
C000
C000
C000
C000
FFC0
FFC0
ENDCHAR
STARTCHAR LATIN
ENCODING -1
SWIDTH 480 0
DWIDTH 12 0
BBX 10 14 1 0
BITMAP
7F80
7F80
0000
0000
3F00
7F80
C0C0
C0C0
FFC0
FFC0
C000
C000
7F00
3F00
ENDCHAR
STARTCHAR LATIN
ENCODING -1
SWIDTH 480 0
DWIDTH 12 0
BBX 10 19 1 0
BITMAP
C0C0
7F80
3F00
0000
0000
FFC0
FFC0
C000
C000
C000
C000
FC00
FC00
C000
C000
C000
C000
FFC0
FFC0
ENDCHAR
STARTCHAR LATIN
ENCODING -1
SWIDTH 480 0
DWIDTH 12 0
BBX 10 15 1 0
BITMAP
C0C0
7F80
3F00
0000
0000
3F00
7F80
C0C0
C0C0
FFC0
FFC0
C000
C000
7F00
3F00
ENDCHAR
STARTCHAR LATIN
ENCODING -1
SWIDTH 480 0
DWIDTH 12 0
BBX 10 18 1 0
BITMAP
0C00
0C00
0000
0000
FFC0
FFC0
C000
C000
C000
C000
FC00
FC00
C000
C000
C000
C000
FFC0
FFC0
ENDCHAR
STARTCHAR LATIN
ENCODING -1
SWIDTH 480 0
DWIDTH 12 0
BBX 10 14 1 0
BITMAP
0C00
0C00
0000
0000
3F00
7F80
C0C0
C0C0
FFC0
FFC0
C000
C000
7F00
3F00
ENDCHAR
STARTCHAR LATIN
ENCODING -1
SWIDTH 480 0
DWIDTH 12 0
BBX 11 18 1 -4
BITMAP
FFC0
FFC0
C000
C000
C000
C000
FC00
FC00
C000
C000
C000
C000
FFC0
FFC0
0180
0180
00E0
0060
ENDCHAR
STARTCHAR LATIN
ENCODING -1
SWIDTH 480 0
DWIDTH 12 0
BBX 10 14 1 -4
BITMAP
3F00
7F80
C0C0
C0C0
FFC0
FFC0
C000
C000
7F00
3F00
0300
0300
01C0
00C0
ENDCHAR
STARTCHAR LATIN
ENCODING -1
SWIDTH 480 0
DWIDTH 12 0
BBX 10 20 1 0
BITMAP
6180
3300
1E00
0C00
0000
0000
FFC0
FFC0
C000
C000
C000
C000
FC00
FC00
C000
C000
C000
C000
FFC0
FFC0
ENDCHAR
STARTCHAR LATIN
ENCODING -1
SWIDTH 480 0
DWIDTH 12 0
BBX 10 16 1 0
BITMAP
6180
3300
1E00
0C00
0000
0000
3F00
7F80
C0C0
C0C0
FFC0
FFC0
C000
C000
7F00
3F00
ENDCHAR
STARTCHAR LATIN
ENCODING -1
SWIDTH 480 0
DWIDTH 12 0
BBX 10 20 1 0
BITMAP
0C00
1E00
3300
6180
0000
0000
3FC0
7FC0
C000
C000
C000
C000
C3C0
C3C0
C0C0
C0C0
C0C0
C0C0
7FC0
3FC0
ENDCHAR
STARTCHAR LATIN
ENCODING -1
SWIDTH 480 0
DWIDTH 12 0
BBX 10 20 1 -4
BITMAP
0C00
1E00
3300
6180
0000
0000
3FC0
7FC0
C0C0
C0C0
C0C0
C0C0
C0C0
C0C0
7FC0
3FC0
00C0
00C0
1F80
1F00
ENDCHAR
STARTCHAR LATIN
ENCODING -1
SWIDTH 480 0
DWIDTH 12 0
BBX 10 19 1 0
BITMAP
C0C0
7F80
3F00
0000
0000
3FC0
7FC0
C000
C000
C000
C000
C3C0
C3C0
C0C0
C0C0
C0C0
C0C0
7FC0
3FC0
ENDCHAR
STARTCHAR LATIN
ENCODING -1
SWIDTH 480 0
DWIDTH 12 0
BBX 10 19 1 -4
BITMAP
C0C0
7F80
3F00
0000
0000
3FC0
7FC0
C0C0
C0C0
C0C0
C0C0
C0C0
C0C0
7FC0
3FC0
00C0
00C0
1F80
1F00
ENDCHAR
STARTCHAR LATIN
ENCODING -1
SWIDTH 480 0
DWIDTH 12 0
BBX 10 18 1 0
BITMAP
0C00
0C00
0000
0000
3FC0
7FC0
C000
C000
C000
C000
C3C0
C3C0
C0C0
C0C0
C0C0
C0C0
7FC0
3FC0
ENDCHAR
STARTCHAR LATIN
ENCODING -1
SWIDTH 480 0
DWIDTH 12 0
BBX 10 18 1 -4
BITMAP
0C00
0C00
0000
0000
3FC0
7FC0
C0C0
C0C0
C0C0
C0C0
C0C0
C0C0
7FC0
3FC0
00C0
00C0
1F80
1F00
ENDCHAR
STARTCHAR LATIN
ENCODING -1
SWIDTH 480 0
DWIDTH 12 0
BBX 10 18 1 -4
BITMAP
3FC0
7FC0
C000
C000
C000
C000
C3C0
C3C0
C0C0
C0C0
C0C0
C0C0
7FC0
3FC0
0600
0300
3F00
1E00
ENDCHAR
STARTCHAR LATIN
ENCODING -1
SWIDTH 480 0
DWIDTH 12 0
BBX 10 20 1 -4
BITMAP
0300
0600
0C00
0C00
0000
0000
3FC0
7FC0
C0C0
C0C0
C0C0
C0C0
C0C0
C0C0
7FC0
3FC0
00C0
00C0
1F80
1F00
ENDCHAR
STARTCHAR LATIN
ENCODING -1
SWIDTH 480 0
DWIDTH 12 0
BBX 10 20 1 0
BITMAP
0C00
1E00
3300
6180
0000
0000
C0C0
C0C0
C0C0
C0C0
C0C0
C0C0
FFC0
FFC0
C0C0
C0C0
C0C0
C0C0
C0C0
C0C0
ENDCHAR
STARTCHAR LATIN
ENCODING -1
SWIDTH 480 0
DWIDTH 12 0
BBX 10 20 1 0
BITMAP
0C00
1E00
3300
6180
C000
C000
C000
C000
C000
C000
FF00
FF80
C0C0
C0C0
C0C0
C0C0
C0C0
C0C0
C0C0
C0C0
ENDCHAR
STARTCHAR LATIN
ENCODING -1
SWIDTH 480 0
DWIDTH 12 0
BBX 12 14 0 0
BITMAP
6060
6060
FFF0
FFF0
6060
6060
7FE0
7FE0
6060
6060
6060
6060
6060
6060
ENDCHAR
STARTCHAR LATIN
ENCODING -1
SWIDTH 480 0
DWIDTH 12 0
BBX 12 16 0 0
BITMAP
3000
3000
FE00
FE00
3000
3000
3FC0
3FE0
3030
3030
3030
3030
3030
3030
3030
3030
ENDCHAR
STARTCHAR LATIN
ENCODING -1
SWIDTH 480 0
DWIDTH 12 0
BBX 10 20 1 0
BITMAP
30C0
7CC0
CF80
C300
0000
0000
1E00
1E00
0C00
0C00
0C00
0C00
0C00
0C00
0C00
0C00
0C00
0C00
1E00
1E00
ENDCHAR
STARTCHAR LATIN
ENCODING -1
SWIDTH 480 0
DWIDTH 12 0
BBX 10 16 1 0
BITMAP
30C0
7CC0
CF80
C300
0000
0000
1C00
1C00
0C00
0C00
0C00
0C00
0C00
0C00
0C00
0C00
ENDCHAR
STARTCHAR LATIN
ENCODING -1
SWIDTH 480 0
DWIDTH 12 0
BBX 6 18 3 0
BITMAP
FC
FC
00
00
78
78
30
30
30
30
30
30
30
30
30
30
78
78
ENDCHAR
STARTCHAR LATIN
ENCODING -1
SWIDTH 480 0
DWIDTH 12 0
BBX 4 14 4 0
BITMAP
F0
F0
00
00
E0
E0
60
60
60
60
60
60
60
60
ENDCHAR
STARTCHAR LATIN
ENCODING -1
SWIDTH 480 0
DWIDTH 12 0
BBX 8 19 2 0
BITMAP
C3
7E
3C
00
00
3C
3C
18
18
18
18
18
18
18
18
18
18
3C
3C
ENDCHAR
STARTCHAR LATIN
ENCODING -1
SWIDTH 480 0
DWIDTH 12 0
BBX 8 15 2 0
BITMAP
C3
7E
3C
00
00
38
38
18
18
18
18
18
18
18
18
ENDCHAR
STARTCHAR LATIN
ENCODING -1
SWIDTH 480 0
DWIDTH 12 0
BBX 5 18 4 -4
BITMAP
F0
F0
60
60
60
60
60
60
60
60
60
60
F0
F0
60
60
38
18
ENDCHAR
STARTCHAR LATIN
ENCODING -1
SWIDTH 480 0
DWIDTH 12 0
BBX 5 18 4 -4
BITMAP
60
60
00
00
E0
E0
60
60
60
60
60
60
60
60
60
60
38
18
ENDCHAR
STARTCHAR LATIN
ENCODING -1
SWIDTH 480 0
DWIDTH 12 0
BBX 4 18 4 0
BITMAP
60
60
00
00
F0
F0
60
60
60
60
60
60
60
60
60
60
F0
F0
ENDCHAR
STARTCHAR LATIN
ENCODING -1
SWIDTH 480 0
DWIDTH 12 0
BBX 3 10 4 0
BITMAP
E0
E0
60
60
60
60
60
60
60
60
ENDCHAR
STARTCHAR LATIN
ENCODING -1
SWIDTH 480 0
DWIDTH 12 0
BBX 12 14 0 0
BITMAP
F030
F030
6030
6030
6030
6030
6030
6030
6030
6030
6030
6C30
F7E0
F3C0
ENDCHAR
STARTCHAR LATIN
ENCODING -1
SWIDTH 480 0
DWIDTH 12 0
BBX 8 18 2 -4
BITMAP
63
63
00
00
E7
E7
63
63
63
63
63
63
63
63
03
03
06
0C
ENDCHAR
STARTCHAR LATIN
ENCODING -1
SWIDTH 480 0
DWIDTH 12 0
BBX 11 20 1 0
BITMAP
0300
0780
0CC0
1860
0000
0000
00C0
00C0
00C0
00C0
00C0
00C0
00C0
00C0
00C0
00C0
00C0
C0C0
7F80
3F00
ENDCHAR
STARTCHAR LATIN
ENCODING -1
SWIDTH 480 0
DWIDTH 12 0
BBX 8 20 2 -4
BITMAP
18
3C
66
C3
00
00
38
38
18
18
18
18
18
18
18
18
18
18
30
60
ENDCHAR
STARTCHAR LATIN
ENCODING -1
SWIDTH 480 0
DWIDTH 12 0
BBX 10 18 1 -4
BITMAP
C0C0
C180
C300
C600
CC00
D800
F000
F000
D800
CC00
C600
C300
C180
CCC0
0600
0300
3F00
1E00
ENDCHAR
STARTCHAR LATIN
ENCODING -1
SWIDTH 480 0
DWIDTH 12 0
BBX 8 20 2 -4
BITMAP
C0
C0
C0
C0
C0
C0
C3
C6
CC
D8
F0
F0
D8
CC
C6
DB
0C
06
7E
3C
ENDCHAR
STARTCHAR LATIN
ENCODING -1
SWIDTH 480 0
DWIDTH 12 0
BBX 8 10 2 0
BITMAP
C3
C6
CC
D8
F0
F0
D8
CC
C6
C3
ENDCHAR
STARTCHAR LATIN
ENCODING -1
SWIDTH 480 0
DWIDTH 12 0
BBX 10 20 1 0
BITMAP
1800
3000
6000
C000
0000
0000
C000
C000
C000
C000
C000
C000
C000
C000
C000
C000
C000
C000
FFC0
FFC0
ENDCHAR
STARTCHAR LATIN
ENCODING -1
SWIDTH 480 0
DWIDTH 12 0
BBX 6 20 3 0
BITMAP
18
30
60
C0
00
C0
C0
C0
C0
C0
C0
C0
C0
C0
C0
C0
C0
C0
7C
3C
ENDCHAR
STARTCHAR LATIN
ENCODING -1
SWIDTH 480 0
DWIDTH 12 0
BBX 10 18 1 -4
BITMAP
C000
C000
C000
C000
C000
C000
C000
C000
C000
C000
C000
C000
FFC0
FFC0
0600
0300
3F00
1E00
ENDCHAR
STARTCHAR LATIN
ENCODING -1
SWIDTH 480 0
DWIDTH 12 0
BBX 6 20 3 -4
BITMAP
C0
C0
C0
C0
C0
C0
C0
C0
C0
C0
C0
C0
C0
C0
7C
3C
18
0C
FC
78
ENDCHAR
STARTCHAR LATIN
ENCODING -1
SWIDTH 480 0
DWIDTH 12 0
BBX 10 14 1 0
BITMAP
C300
C300
C600
CC00
C000
C000
C000
C000
C000
C000
C000
C000
FFC0
FFC0
ENDCHAR
STARTCHAR LATIN
ENCODING -1
SWIDTH 480 0
DWIDTH 12 0
BBX 7 16 3 0
BITMAP
C6
C6
CC
D8
C0
C0
C0
C0
C0
C0
C0
C0
C0
C0
7C
3C
ENDCHAR
STARTCHAR LATIN
ENCODING -1
SWIDTH 480 0
DWIDTH 12 0
BBX 10 14 1 0
BITMAP
C000
C000
C000
C000
C600
C600
C000
C000
C000
C000
C000
C000
FFC0
FFC0
ENDCHAR
STARTCHAR LATIN
ENCODING -1
SWIDTH 480 0
DWIDTH 12 0
BBX 6 16 3 0
BITMAP
C0
C0
C0
C0
CC
CC
C0
C0
C0
C0
C0
C0
C0
C0
7C
3C
ENDCHAR
STARTCHAR LATIN
ENCODING -1
SWIDTH 480 0
DWIDTH 12 0
BBX 12 14 0 0
BITMAP
3000
3000
3180
3300
3600
3C00
3800
3000
7000
F000
3000
3000
3FF0
3FF0
ENDCHAR
STARTCHAR LATIN
ENCODING -1
SWIDTH 480 0
DWIDTH 12 0
BBX 8 16 1 0
BITMAP
30
30
30
30
30
30
3C
38
70
F0
30
30
30
30
1F
0F
ENDCHAR
STARTCHAR LATIN
ENCODING -1
SWIDTH 480 0
DWIDTH 12 0
BBX 10 20 1 0
BITMAP
0180
0300
0600
0C00
0000
0000
C0C0
C0C0
C0C0
E0C0
F0C0
D8C0
CCC0
C6C0
C3C0
C1C0
C0C0
C0C0
C0C0
C0C0
ENDCHAR
STARTCHAR LATIN
ENCODING -1
SWIDTH 480 0
DWIDTH 12 0
BBX 10 16 1 0
BITMAP
0180
0300
0600
0C00
0000
0000
FF00
FF80
C0C0
C0C0
C0C0
C0C0
C0C0
C0C0
C0C0
C0C0
ENDCHAR
STARTCHAR LATIN
ENCODING -1
SWIDTH 480 0
DWIDTH 12 0
BBX 10 18 1 -4
BITMAP
C0C0
C0C0
C0C0
E0C0
F0C0
D8C0
CCC0
C6C0
C3C0
C1C0
C0C0
C0C0
C0C0
CCC0
0600
0300
3F00
1E00
ENDCHAR
STARTCHAR LATIN
ENCODING -1
SWIDTH 480 0
DWIDTH 12 0
BBX 10 14 1 -4
BITMAP
FF00
FF80
C0C0
C0C0
C0C0
C0C0
C0C0
C0C0
C0C0
CCC0
0600
0300
3F00
1E00
ENDCHAR
STARTCHAR LATIN
ENCODING -1
SWIDTH 480 0
DWIDTH 12 0
BBX 10 20 1 0
BITMAP
6180
3300
1E00
0C00
0000
0000
C0C0
C0C0
C0C0
E0C0
F0C0
D8C0
CCC0
C6C0
C3C0
C1C0
C0C0
C0C0
C0C0
C0C0
ENDCHAR
STARTCHAR LATIN
ENCODING -1
SWIDTH 480 0
DWIDTH 12 0
BBX 10 16 1 0
BITMAP
6180
3300
1E00
0C00
0000
0000
FF00
FF80
C0C0
C0C0
C0C0
C0C0
C0C0
C0C0
C0C0
C0C0
ENDCHAR
STARTCHAR LATIN
ENCODING -1
SWIDTH 480 0
DWIDTH 12 0
BBX 12 14 0 0
BITMAP
3000
3000
6000
C000
3FC0
3FE0
3030
3030
3030
3030
3030
3030
3030
3030
ENDCHAR
STARTCHAR LATIN
ENCODING -1
SWIDTH 480 0
DWIDTH 12 0
BBX 10 18 1 -4
BITMAP
C0C0
C0C0
C0C0
E0C0
F0C0
D8C0
CCC0
C6C0
C3C0
C1C0
C0C0
C0C0
C0C0
C0C0
00C0
00C0
0380
0300
ENDCHAR
STARTCHAR LATIN
ENCODING -1
SWIDTH 480 0
DWIDTH 12 0
BBX 10 14 1 -4
BITMAP
FF00
FF80
C0C0
C0C0
C0C0
C0C0
C0C0
C0C0
C0C0
C0C0
00C0
00C0
0380
0300
ENDCHAR
STARTCHAR LATIN
ENCODING -1
SWIDTH 480 0
DWIDTH 12 0
BBX 10 18 1 0
BITMAP
7F80
7F80
0000
0000
3F00
7F80
C0C0
C0C0
C0C0
C0C0
C0C0
C0C0
C0C0
C0C0
C0C0
C0C0
7F80
3F00
ENDCHAR
STARTCHAR LATIN
ENCODING -1
SWIDTH 480 0
DWIDTH 12 0
BBX 10 14 1 0
BITMAP
7F80
7F80
0000
0000
3F00
7F80
C0C0
C0C0
C0C0
C0C0
C0C0
C0C0
7F80
3F00
ENDCHAR
STARTCHAR LATIN
ENCODING -1
SWIDTH 480 0
DWIDTH 12 0
BBX 10 19 1 0
BITMAP
C0C0
7F80
3F00
0000
0000
3F00
7F80
C0C0
C0C0
C0C0
C0C0
C0C0
C0C0
C0C0
C0C0
C0C0
C0C0
7F80
3F00
ENDCHAR
STARTCHAR LATIN
ENCODING -1
SWIDTH 480 0
DWIDTH 12 0
BBX 10 15 1 0
BITMAP
C0C0
7F80
3F00
0000
0000
3F00
7F80
C0C0
C0C0
C0C0
C0C0
C0C0
C0C0
7F80
3F00
ENDCHAR
STARTCHAR LATIN
ENCODING -1
SWIDTH 480 0
DWIDTH 12 0
BBX 11 20 1 0
BITMAP
0660
0CC0
1980
3300
0000
0000
3F00
7F80
C0C0
C0C0
C0C0
C0C0
C0C0
C0C0
C0C0
C0C0
C0C0
C0C0
7F80
3F00
ENDCHAR
STARTCHAR LATIN
ENCODING -1
SWIDTH 480 0
DWIDTH 12 0
BBX 11 16 1 0
BITMAP
0660
0CC0
1980
3300
0000
0000
3F00
7F80
C0C0
C0C0
C0C0
C0C0
C0C0
C0C0
7F80
3F00
ENDCHAR
STARTCHAR LATIN
ENCODING -1
SWIDTH 480 0
DWIDTH 12 0
BBX 12 14 0 0
BITMAP
3FF0
7FF0
C600
C600
C600
C600
C7C0
C7C0
C600
C600
C600
C600
7FF0
3FF0
ENDCHAR
STARTCHAR LATIN
ENCODING -1
SWIDTH 480 0
DWIDTH 12 0
BBX 12 10 0 0
BITMAP
39C0
7FE0
C630
C630
C7F0
C7F0
C600
C600
7FE0
39E0
ENDCHAR
STARTCHAR LATIN
ENCODING -1
SWIDTH 480 0
DWIDTH 12 0
BBX 10 20 1 0
BITMAP
0180
0300
0600
0C00
0000
0000
FF00
FF80
C0C0
C0C0
C0C0
C0C0
C0C0
C0C0
FF80
FF00
C600
C300
C180
C0C0
ENDCHAR
STARTCHAR LATIN
ENCODING -1
SWIDTH 480 0
DWIDTH 12 0
BBX 10 16 1 0
BITMAP
0180
0300
0600
0C00
0000
0000
CFC0
DFC0
F000
E000
C000
C000
C000
C000
C000
C000
ENDCHAR
STARTCHAR LATIN
ENCODING -1
SWIDTH 480 0
DWIDTH 12 0
BBX 10 18 1 -4
BITMAP
FF00
FF80
C0C0
C0C0
C0C0
C0C0
C0C0
C0C0
FF80
FF00
C600
C300
C180
CCC0
0600
0300
3F00
1E00
ENDCHAR
STARTCHAR LATIN
ENCODING -1
SWIDTH 480 0
DWIDTH 12 0
BBX 12 14 0 -4
BITMAP
33F0
37F0
3C00
3800
3000
3000
3000
3000
3000
3000
1800
0C00
FC00
7800
ENDCHAR
STARTCHAR LATIN
ENCODING -1
SWIDTH 480 0
DWIDTH 12 0
BBX 10 20 1 0
BITMAP
6180
3300
1E00
0C00
0000
0000
FF00
FF80
C0C0
C0C0
C0C0
C0C0
C0C0
C0C0
FF80
FF00
C600
C300
C180
C0C0
ENDCHAR
STARTCHAR LATIN
ENCODING -1
SWIDTH 480 0
DWIDTH 12 0
BBX 10 16 1 0
BITMAP
6180
3300
1E00
0C00
0000
0000
CFC0
DFC0
F000
E000
C000
C000
C000
C000
C000
C000
ENDCHAR
STARTCHAR LATIN
ENCODING -1
SWIDTH 480 0
DWIDTH 12 0
BBX 10 20 1 0
BITMAP
0180
0300
0600
0C00
0000
0000
3FC0
7FC0
C000
C000
C000
C000
7F00
3F80
00C0
00C0
00C0
00C0
FF80
FF00
ENDCHAR
STARTCHAR LATIN
ENCODING -1
SWIDTH 480 0
DWIDTH 12 0
BBX 10 16 1 0
BITMAP
0180
0300
0600
0C00
0000
0000
3FC0
7FC0
C000
C000
7F00
3F80
00C0
00C0
FF80
FF00
ENDCHAR
STARTCHAR LATIN
ENCODING -1
SWIDTH 480 0
DWIDTH 12 0
BBX 10 20 1 0
BITMAP
0C00
1E00
3300
6180
0000
0000
3FC0
7FC0
C000
C000
C000
C000
7F00
3F80
00C0
00C0
00C0
00C0
FF80
FF00
ENDCHAR
STARTCHAR LATIN
ENCODING -1
SWIDTH 480 0
DWIDTH 12 0
BBX 10 16 1 0
BITMAP
0C00
1E00
3300
6180
0000
0000
3FC0
7FC0
C000
C000
7F00
3F80
00C0
00C0
FF80
FF00
ENDCHAR
STARTCHAR LATIN
ENCODING -1
SWIDTH 480 0
DWIDTH 12 0
BBX 10 18 1 -4
BITMAP
3FC0
7FC0
C000
C000
C000
C000
7F00
3F80
00C0
00C0
00C0
00C0
FF80
FF00
0600
0300
3F00
1E00
ENDCHAR
STARTCHAR LATIN
ENCODING -1
SWIDTH 480 0
DWIDTH 12 0
BBX 10 14 1 -4
BITMAP
3FC0
7FC0
C000
C000
7F00
3F80
00C0
00C0
FF80
FF00
0600
0300
3F00
1E00
ENDCHAR
STARTCHAR LATIN
ENCODING -1
SWIDTH 480 0
DWIDTH 12 0
BBX 10 20 1 0
BITMAP
6180
3300
1E00
0C00
0000
0000
3FC0
7FC0
C000
C000
C000
C000
7F00
3F80
00C0
00C0
00C0
00C0
FF80
FF00
ENDCHAR
STARTCHAR LATIN
ENCODING -1
SWIDTH 480 0
DWIDTH 12 0
BBX 10 16 1 0
BITMAP
6180
3300
1E00
0C00
0000
0000
3FC0
7FC0
C000
C000
7F00
3F80
00C0
00C0
FF80
FF00
ENDCHAR
STARTCHAR LATIN
ENCODING -1
SWIDTH 480 0
DWIDTH 12 0
BBX 10 18 1 -4
BITMAP
FFC0
FFC0
0C00
0C00
0C00
0C00
0C00
0C00
0C00
0C00
0C00
0C00
0C00
0C00
0600
0300
3F00
1E00
ENDCHAR
STARTCHAR LATIN
ENCODING -1
SWIDTH 480 0
DWIDTH 12 0
BBX 8 20 2 -4
BITMAP
30
30
30
30
30
30
FC
FC
30
30
30
30
30
30
1F
0F
0C
06
7E
3C
ENDCHAR
STARTCHAR LATIN
ENCODING -1
SWIDTH 480 0
DWIDTH 12 0
BBX 10 20 1 0
BITMAP
6180
3300
1E00
0C00
0000
0000
FFC0
FFC0
0C00
0C00
0C00
0C00
0C00
0C00
0C00
0C00
0C00
0C00
0C00
0C00
ENDCHAR
STARTCHAR LATIN
ENCODING -1
SWIDTH 480 0
DWIDTH 12 0
BBX 9 18 2 0
BITMAP
0180
0180
3300
3600
3000
3000
3000
3000
FC00
FC00
3000
3000
3000
3000
3000
3000
1F00
0F00
ENDCHAR
STARTCHAR LATIN
ENCODING -1
SWIDTH 480 0
DWIDTH 12 0
BBX 10 14 1 0
BITMAP
FFC0
FFC0
0C00
0C00
0C00
0C00
3F00
3F00
0C00
0C00
0C00
0C00
0C00
0C00
ENDCHAR
STARTCHAR LATIN
ENCODING -1
SWIDTH 480 0
DWIDTH 12 0
BBX 8 16 2 0
BITMAP
30
30
30
30
FC
FC
30
30
FC
FC
30
30
30
30
1F
0F
ENDCHAR
STARTCHAR LATIN
ENCODING -1
SWIDTH 480 0
DWIDTH 12 0
BBX 10 20 1 0
BITMAP
30C0
7CC0
CF80
C300
0000
0000
C0C0
C0C0
C0C0
C0C0
C0C0
C0C0
C0C0
C0C0
C0C0
C0C0
C0C0
C0C0
7F80
3F00
ENDCHAR
STARTCHAR LATIN
ENCODING -1
SWIDTH 480 0
DWIDTH 12 0
BBX 10 16 1 0
BITMAP
30C0
7CC0
CF80
C300
0000
0000
C0C0
C0C0
C0C0
C0C0
C0C0
C0C0
C0C0
C0C0
7FC0
3FC0
ENDCHAR
STARTCHAR LATIN
ENCODING -1
SWIDTH 480 0
DWIDTH 12 0
BBX 10 18 1 0
BITMAP
7F80
7F80
0000
0000
C0C0
C0C0
C0C0
C0C0
C0C0
C0C0
C0C0
C0C0
C0C0
C0C0
C0C0
C0C0
7F80
3F00
ENDCHAR
STARTCHAR LATIN
ENCODING -1
SWIDTH 480 0
DWIDTH 12 0
BBX 10 14 1 0
BITMAP
7F80
7F80
0000
0000
C0C0
C0C0
C0C0
C0C0
C0C0
C0C0
C0C0
C0C0
7FC0
3FC0
ENDCHAR
STARTCHAR LATIN
ENCODING -1
SWIDTH 480 0
DWIDTH 12 0
BBX 10 19 1 0
BITMAP
C0C0
7F80
3F00
0000
0000
C0C0
C0C0
C0C0
C0C0
C0C0
C0C0
C0C0
C0C0
C0C0
C0C0
C0C0
C0C0
7F80
3F00
ENDCHAR
STARTCHAR LATIN
ENCODING -1
SWIDTH 480 0
DWIDTH 12 0
BBX 10 15 1 0
BITMAP
C0C0
7F80
3F00
0000
0000
C0C0
C0C0
C0C0
C0C0
C0C0
C0C0
C0C0
C0C0
7FC0
3FC0
ENDCHAR
STARTCHAR LATIN
ENCODING -1
SWIDTH 480 0
DWIDTH 12 0
BBX 10 20 1 0
BITMAP
0C00
1E00
3300
1E00
0C00
0000
C0C0
C0C0
C0C0
C0C0
C0C0
C0C0
C0C0
C0C0
C0C0
C0C0
C0C0
C0C0
7F80
3F00
ENDCHAR
STARTCHAR LATIN
ENCODING -1
SWIDTH 480 0
DWIDTH 12 0
BBX 10 18 1 0
BITMAP
0C00
1E00
3300
3300
1E00
0C00
0000
0000
C0C0
C0C0
C0C0
C0C0
C0C0
C0C0
C0C0
C0C0
7FC0
3FC0
ENDCHAR
STARTCHAR LATIN
ENCODING -1
SWIDTH 480 0
DWIDTH 12 0
BBX 11 20 1 0
BITMAP
0660
0CC0
1980
3300
0000
0000
C0C0
C0C0
C0C0
C0C0
C0C0
C0C0
C0C0
C0C0
C0C0
C0C0
C0C0
C0C0
7F80
3F00
ENDCHAR
STARTCHAR LATIN
ENCODING -1
SWIDTH 480 0
DWIDTH 12 0
BBX 11 16 1 0
BITMAP
0660
0CC0
1980
3300
0000
0000
C0C0
C0C0
C0C0
C0C0
C0C0
C0C0
C0C0
C0C0
7FC0
3FC0
ENDCHAR
STARTCHAR LATIN
ENCODING -1
SWIDTH 480 0
DWIDTH 12 0
BBX 10 18 1 -4
BITMAP
C0C0
C0C0
C0C0
C0C0
C0C0
C0C0
C0C0
C0C0
C0C0
C0C0
C0C0
C0C0
7F80
3F00
0C00
0C00
0700
0300
ENDCHAR
STARTCHAR LATIN
ENCODING -1
SWIDTH 480 0
DWIDTH 12 0
BBX 10 14 1 -4
BITMAP
C0C0
C0C0
C0C0
C0C0
C0C0
C0C0
C0C0
C0C0
7FC0
3FC0
0C00
0C00
0700
0300
ENDCHAR
STARTCHAR LATIN
ENCODING -1
SWIDTH 480 0
DWIDTH 12 0
BBX 10 20 1 0
BITMAP
0C00
1E00
3300
6180
0000
0000
C0C0
C0C0
C0C0
C0C0
C0C0
C0C0
C0C0
C0C0
CCC0
DEC0
FFC0
F3C0
C0C0
8040
ENDCHAR
STARTCHAR LATIN
ENCODING -1
SWIDTH 480 0
DWIDTH 12 0
BBX 10 16 1 0
BITMAP
0C00
1E00
3300
6180
0000
0000
C0C0
C0C0
C0C0
C0C0
CCC0
DEC0
FFC0
F3C0
C0C0
8040
ENDCHAR
STARTCHAR LATIN
ENCODING -1
SWIDTH 480 0
DWIDTH 12 0
BBX 10 20 1 0
BITMAP
0C00
1E00
3300
6180
0000
0000
C0C0
C0C0
C0C0
C0C0
6180
3300
1E00
0C00
0C00
0C00
0C00
0C00
0C00
0C00
ENDCHAR
STARTCHAR LATIN
ENCODING -1
SWIDTH 480 0
DWIDTH 12 0
BBX 10 20 1 -4
BITMAP
0C00
1E00
3300
6180
0000
0000
C0C0
C0C0
C0C0
C0C0
C0C0
C0C0
C0C0
C0C0
7FC0
3FC0
00C0
00C0
1F80
1F00
ENDCHAR
STARTCHAR LATIN
ENCODING -1
SWIDTH 480 0
DWIDTH 12 0
BBX 10 18 1 0
BITMAP
3300
3300
0000
0000
C0C0
C0C0
C0C0
C0C0
6180
3300
1E00
0C00
0C00
0C00
0C00
0C00
0C00
0C00
ENDCHAR
STARTCHAR LATIN
ENCODING -1
SWIDTH 480 0
DWIDTH 12 0
BBX 10 20 1 0
BITMAP
0180
0300
0600
0C00
0000
0000
FFC0
FFC0
00C0
0180
0300
0600
0C00
1800
3000
6000
C000
C000
FFC0
FFC0
ENDCHAR
STARTCHAR LATIN
ENCODING -1
SWIDTH 480 0
DWIDTH 12 0
BBX 10 16 1 0
BITMAP
0180
0300
0600
0C00
0000
0000
FFC0
FF80
0300
0600
0C00
1800
3000
6000
FFC0
FFC0
ENDCHAR
STARTCHAR LATIN
ENCODING -1
SWIDTH 480 0
DWIDTH 12 0
BBX 10 18 1 0
BITMAP
0C00
0C00
0000
0000
FFC0
FFC0
00C0
0180
0300
0600
0C00
1800
3000
6000
C000
C000
FFC0
FFC0
ENDCHAR
STARTCHAR LATIN
ENCODING -1
SWIDTH 480 0
DWIDTH 12 0
BBX 10 14 1 0
BITMAP
0C00
0C00
0000
0000
FFC0
FF80
0300
0600
0C00
1800
3000
6000
FFC0
FFC0
ENDCHAR
STARTCHAR LATIN
ENCODING -1
SWIDTH 480 0
DWIDTH 12 0
BBX 10 20 1 0
BITMAP
6180
3300
1E00
0C00
0000
0000
FFC0
FFC0
00C0
0180
0300
0600
0C00
1800
3000
6000
C000
C000
FFC0
FFC0
ENDCHAR
STARTCHAR LATIN
ENCODING -1
SWIDTH 480 0
DWIDTH 12 0
BBX 10 16 1 0
BITMAP
6180
3300
1E00
0C00
0000
0000
FFC0
FF80
0300
0600
0C00
1800
3000
6000
FFC0
FFC0
ENDCHAR
STARTCHAR LATIN
ENCODING -1
SWIDTH 480 0
DWIDTH 12 0
BBX 6 16 3 0
BITMAP
3C
7C
C0
C0
C0
C0
C0
C0
C0
C0
C0
C0
C0
C0
C0
C0
ENDCHAR
STARTCHAR LATIN
ENCODING -1
SWIDTH 480 0
DWIDTH 12 0
BBX 10 14 1 0
BITMAP
FFC0
FFC0
00C0
00C0
00C0
00C0
0FC0
0FC0
00C0
00C0
00C0
00C0
FFC0
FFC0
ENDCHAR
STARTCHAR LATIN
ENCODING -1
SWIDTH 480 0
DWIDTH 12 0
BBX 10 14 1 0
BITMAP
3F00
3F80
00C0
00C0
00C0
00C0
FFC0
FFC0
C0C0
C0C0
C0C0
C0C0
7F80
3F00
ENDCHAR
STARTCHAR LATIN
ENCODING -1
SWIDTH 480 0
DWIDTH 12 0
BBX 12 15 0 0
BITMAP
0030
3F30
7FB0
C0F0
C0E0
C0C0
C0C0
C0C0
C0C0
C0C0
C0C0
C0C0
C0C0
7F80
3F00
ENDCHAR
STARTCHAR LATIN
ENCODING -1
SWIDTH 480 0
DWIDTH 12 0
BBX 12 11 0 0
BITMAP
0030
3F30
7FB0
C0F0
C0E0
C0C0
C0C0
C0C0
C0C0
7F80
3F00
ENDCHAR
STARTCHAR LATIN
ENCODING -1
SWIDTH 480 0
DWIDTH 12 0
BBX 12 15 0 0
BITMAP
0030
C0F0
C0F0
C0F0
C0E0
C0C0
C0C0
C0C0
C0C0
C0C0
C0C0
C0C0
C0C0
7F80
3F00
ENDCHAR
STARTCHAR LATIN
ENCODING -1
SWIDTH 480 0
DWIDTH 12 0
BBX 12 11 0 0
BITMAP
0030
C0F0
C0F0
C0F0
C0E0
C0C0
C0C0
C0C0
C0C0
7FC0
3FC0
ENDCHAR
STARTCHAR LATIN
ENCODING -1
SWIDTH 480 0
DWIDTH 12 0
BBX 10 14 1 0
BITMAP
FFC0
FFC0
00C0
0180
0300
0600
7F80
7F80
3000
6000
C000
C000
FFC0
FFC0
ENDCHAR
STARTCHAR LATIN
ENCODING -1
SWIDTH 480 0
DWIDTH 12 0
BBX 10 10 1 0
BITMAP
FFC0
FF80
0300
0600
7F80
7F80
3000
6000
FFC0
FFC0
ENDCHAR
STARTCHAR LATIN
ENCODING -1
SWIDTH 480 0
DWIDTH 12 0
BBX 10 14 1 0
BITMAP
FFC0
FF80
0300
0600
0C00
0600
0300
0180
00C0
00C0
00C0
00C0
FF80
FF00
ENDCHAR
STARTCHAR LATIN
ENCODING -1
SWIDTH 480 0
DWIDTH 12 0
BBX 10 20 1 0
BITMAP
6180
3300
1E00
0C00
0000
0000
3F00
7F80
C0C0
C0C0
C0C0
C0C0
C0C0
C0C0
FFC0
FFC0
C0C0
C0C0
C0C0
C0C0
ENDCHAR
STARTCHAR LATIN
ENCODING -1
SWIDTH 480 0
DWIDTH 12 0
BBX 10 16 1 0
BITMAP
6180
3300
1E00
0C00
0000
0000
3F00
3F80
00C0
00C0
3FC0
7FC0
C0C0
C0C0
7FC0
3FC0
ENDCHAR
STARTCHAR LATIN
ENCODING -1
SWIDTH 480 0
DWIDTH 12 0
BBX 8 20 2 0
BITMAP
C3
66
3C
18
00
00
3C
3C
18
18
18
18
18
18
18
18
18
18
3C
3C
ENDCHAR
STARTCHAR LATIN
ENCODING -1
SWIDTH 480 0
DWIDTH 12 0
BBX 8 16 2 0
BITMAP
C3
66
3C
18
00
00
38
38
18
18
18
18
18
18
18
18
ENDCHAR
STARTCHAR LATIN
ENCODING -1
SWIDTH 480 0
DWIDTH 12 0
BBX 10 20 1 0
BITMAP
6180
3300
1E00
0C00
0000
0000
3F00
7F80
C0C0
C0C0
C0C0
C0C0
C0C0
C0C0
C0C0
C0C0
C0C0
C0C0
7F80
3F00
ENDCHAR
STARTCHAR LATIN
ENCODING -1
SWIDTH 480 0
DWIDTH 12 0
BBX 10 16 1 0
BITMAP
6180
3300
1E00
0C00
0000
0000
3F00
7F80
C0C0
C0C0
C0C0
C0C0
C0C0
C0C0
7F80
3F00
ENDCHAR
STARTCHAR LATIN
ENCODING -1
SWIDTH 480 0
DWIDTH 12 0
BBX 10 20 1 0
BITMAP
6180
3300
1E00
0C00
0000
0000
C0C0
C0C0
C0C0
C0C0
C0C0
C0C0
C0C0
C0C0
C0C0
C0C0
C0C0
C0C0
7F80
3F00
ENDCHAR
STARTCHAR LATIN
ENCODING -1
SWIDTH 480 0
DWIDTH 12 0
BBX 10 16 1 0
BITMAP
6180
3300
1E00
0C00
0000
0000
C0C0
C0C0
C0C0
C0C0
C0C0
C0C0
C0C0
C0C0
7FC0
3FC0
ENDCHAR
STARTCHAR LATIN
ENCODING -1
SWIDTH 480 0
DWIDTH 12 0
BBX 10 20 1 0
BITMAP
7F80
7F80
0000
3300
3300
0000
C0C0
C0C0
C0C0
C0C0
C0C0
C0C0
C0C0
C0C0
C0C0
C0C0
C0C0
C0C0
7F80
3F00
ENDCHAR
STARTCHAR LATIN
ENCODING -1
SWIDTH 480 0
DWIDTH 12 0
BBX 10 18 1 0
BITMAP
7F80
7F80
0000
0000
3300
3300
0000
0000
C0C0
C0C0
C0C0
C0C0
C0C0
C0C0
C0C0
C0C0
7FC0
3FC0
ENDCHAR
STARTCHAR LATIN
ENCODING -1
SWIDTH 480 0
DWIDTH 12 0
BBX 10 20 1 0
BITMAP
0180
0300
0600
CCC0
C0C0
0000
C0C0
C0C0
C0C0
C0C0
C0C0
C0C0
C0C0
C0C0
C0C0
C0C0
C0C0
C0C0
7F80
3F00
ENDCHAR
STARTCHAR LATIN
ENCODING -1
SWIDTH 480 0
DWIDTH 12 0
BBX 10 20 1 0
BITMAP
0180
0300
0600
0C00
0000
0000
3300
3300
0000
0000
C0C0
C0C0
C0C0
C0C0
C0C0
C0C0
C0C0
C0C0
7FC0
3FC0
ENDCHAR
STARTCHAR LATIN
ENCODING -1
SWIDTH 480 0
DWIDTH 12 0
BBX 10 20 1 0
BITMAP
6180
3300
1E00
CCC0
C0C0
0000
C0C0
C0C0
C0C0
C0C0
C0C0
C0C0
C0C0
C0C0
C0C0
C0C0
C0C0
C0C0
7F80
3F00
ENDCHAR
STARTCHAR LATIN
ENCODING -1
SWIDTH 480 0
DWIDTH 12 0
BBX 10 20 1 0
BITMAP
6180
3300
1E00
0C00
0000
0000
3300
3300
0000
0000
C0C0
C0C0
C0C0
C0C0
C0C0
C0C0
C0C0
C0C0
7FC0
3FC0
ENDCHAR
STARTCHAR LATIN
ENCODING -1
SWIDTH 480 0
DWIDTH 12 0
BBX 10 20 1 0
BITMAP
6000
3000
1800
CCC0
C0C0
0000
C0C0
C0C0
C0C0
C0C0
C0C0
C0C0
C0C0
C0C0
C0C0
C0C0
C0C0
C0C0
7F80
3F00
ENDCHAR
STARTCHAR LATIN
ENCODING -1
SWIDTH 480 0
DWIDTH 12 0
BBX 10 20 1 0
BITMAP
6000
3000
1800
0C00
0000
0000
3300
3300
0000
0000
C0C0
C0C0
C0C0
C0C0
C0C0
C0C0
C0C0
C0C0
7FC0
3FC0
ENDCHAR
STARTCHAR LATIN
ENCODING -1
SWIDTH 480 0
DWIDTH 12 0
BBX 10 10 1 0
BITMAP
3F00
3F80
00C0
00C0
FFC0
FFC0
C0C0
C0C0
7F80
3F00
ENDCHAR
STARTCHAR LATIN
ENCODING -1
SWIDTH 480 0
DWIDTH 12 0
BBX 11 14 1 0
BITMAP
3FC0
7FC0
C000
C000
C000
C000
C3C0
C3C0
C0C0
C7E0
C7E0
C0C0
7FC0
3FC0
ENDCHAR
STARTCHAR LATIN
ENCODING -1
SWIDTH 480 0
DWIDTH 12 0
BBX 12 14 0 -4
BITMAP
1FE0
3FE0
6060
6060
FFF0
FFF0
6060
6060
3FE0
1FE0
0060
0060
0FC0
0F80
ENDCHAR
STARTCHAR LATIN
ENCODING -1
SWIDTH 480 0
DWIDTH 12 0
BBX 10 20 1 0
BITMAP
6180
3300
1E00
0C00
0000
0000
3FC0
7FC0
C000
C000
C000
C000
C3C0
C3C0
C0C0
C0C0
C0C0
C0C0
7FC0
3FC0
ENDCHAR
STARTCHAR LATIN
ENCODING -1
SWIDTH 480 0
DWIDTH 12 0
BBX 10 20 1 -4
BITMAP
6180
3300
1E00
0C00
0000
0000
3FC0
7FC0
C0C0
C0C0
C0C0
C0C0
C0C0
C0C0
7FC0
3FC0
00C0
00C0
1F80
1F00
ENDCHAR
STARTCHAR LATIN
ENCODING -1
SWIDTH 480 0
DWIDTH 12 0
BBX 10 20 1 0
BITMAP
6180
3300
1E00
0C00
0000
0000
C0C0
C180
C300
C600
CC00
D800
F000
F000
D800
CC00
C600
C300
C180
C0C0
ENDCHAR
STARTCHAR LATIN
ENCODING -1
SWIDTH 480 0
DWIDTH 12 0
BBX 8 20 2 0
BITMAP
C3
66
3C
18
C0
C0
C0
C0
C0
C0
C3
C6
CC
D8
F0
F0
D8
CC
C6
C3
ENDCHAR
STARTCHAR LATIN
ENCODING -1
SWIDTH 480 0
DWIDTH 12 0
BBX 10 20 1 0
BITMAP
6180
3300
1E00
0C00
0000
0000
FFC0
FF80
0300
0600
0C00
0600
0300
0180
00C0
00C0
00C0
00C0
FF80
FF00
ENDCHAR
STARTCHAR LATIN
ENCODING -1
SWIDTH 480 0
DWIDTH 12 0
BBX 10 20 1 -4
BITMAP
6180
3300
1E00
0C00
0000
0000
FFC0
FF80
0300
0600
0C00
0600
0300
0180
00C0
00C0
00C0
00C0
FF80
FF00
ENDCHAR
STARTCHAR LATIN
ENCODING -1
SWIDTH 480 0
DWIDTH 12 0
BBX 10 20 1 0
BITMAP
0300
0600
0C00
1E00
3300
1E00
3F00
7F80
C0C0
C0C0
C0C0
C0C0
C0C0
C0C0
FFC0
FFC0
C0C0
C0C0
C0C0
C0C0
ENDCHAR
STARTCHAR LATIN
ENCODING -1
SWIDTH 480 0
DWIDTH 12 0
BBX 10 20 1 0
BITMAP
0180
0300
0600
0C00
0C00
1E00
3300
3300
1E00
0C00
3F00
3F80
00C0
00C0
3FC0
7FC0
C0C0
C0C0
7FC0
3FC0
ENDCHAR
STARTCHAR LATIN
ENCODING -1
SWIDTH 480 0
DWIDTH 12 0
BBX 12 20 0 0
BITMAP
00C0
0180
0300
0600
0000
0000
3FF0
7FF0
C600
C600
C600
C600
C7C0
C7C0
FE00
FE00
C600
C600
C7F0
C7F0
ENDCHAR
STARTCHAR LATIN
ENCODING -1
SWIDTH 480 0
DWIDTH 12 0
BBX 12 16 0 0
BITMAP
00C0
0180
0300
0600
0000
0000
39C0
3FE0
0630
0630
3FF0
7FF0
C600
C600
7FE0
39E0
ENDCHAR
STARTCHAR LATIN
ENCODING -1
SWIDTH 480 0
DWIDTH 12 0
BBX 10 20 1 0
BITMAP
0180
0300
0600
0C00
0000
0000
3FC0
7FC0
C3C0
C3C0
C6C0
C6C0
CCC0
CCC0
D8C0
D8C0
F0C0
F0C0
FF80
FF00
ENDCHAR
STARTCHAR LATIN
ENCODING -1
SWIDTH 480 0
DWIDTH 12 0
BBX 10 16 1 0
BITMAP
0180
0300
0600
0C00
0000
0000
3FC0
7FC0
C3C0
C7C0
CEC0
DCC0
F8C0
F0C0
FF80
FF00
ENDCHAR
STARTCHAR LATIN
ENCODING -1
SWIDTH 480 0
DWIDTH 12 0
BBX 10 18 1 -4
BITMAP
3FC0
7FC0
C000
C000
C000
C000
7F00
3F80
00C0
00C0
00C0
00C0
FF80
FF00
0C00
0C00
1800
3000
ENDCHAR
STARTCHAR LATIN
ENCODING -1
SWIDTH 480 0
DWIDTH 12 0
BBX 10 14 1 -4
BITMAP
3FC0
7FC0
C000
C000
7F00
3F80
00C0
00C0
FF80
FF00
0C00
0C00
1800
3000
ENDCHAR
STARTCHAR LATIN
ENCODING -1
SWIDTH 480 0
DWIDTH 12 0
BBX 10 18 1 -4
BITMAP
FFC0
FFC0
0C00
0C00
0C00
0C00
0C00
0C00
0C00
0C00
0C00
0C00
0C00
0C00
0C00
0C00
1800
3000
ENDCHAR
STARTCHAR LATIN
ENCODING -1
SWIDTH 480 0
DWIDTH 12 0
BBX 8 20 2 -4
BITMAP
30
30
30
30
30
30
FC
FC
30
30
30
30
30
30
1F
0F
06
06
0C
18
ENDCHAR
STARTCHAR LATIN
ENCODING -1
SWIDTH 480 0
DWIDTH 12 0
BBX 10 10 1 0
BITMAP
FF00
FF80
C0C0
C0C0
FF80
FF00
C000
C000
7F00
3F00
ENDCHAR
STARTCHAR LATIN
ENCODING -1
SWIDTH 480 0
DWIDTH 12 0
BBX 10 10 1 0
BITMAP
3FC0
7FC0
C0C0
C0C0
C0C0
C0C0
C0C0
C0C0
7FC0
3FC0
ENDCHAR
STARTCHAR LATIN
ENCODING -1
SWIDTH 480 0
DWIDTH 12 0
BBX 10 10 1 0
BITMAP
FF00
FF80
C0C0
C0C0
C0C0
C0C0
C0C0
C0C0
FF80
FF00
ENDCHAR
STARTCHAR LATIN
ENCODING -1
SWIDTH 480 0
DWIDTH 12 0
BBX 10 18 1 0
BITMAP
3000
6000
C000
C000
C000
C000
C000
C000
FF00
FF80
C0C0
C0C0
C0C0
C0C0
C0C0
C0C0
FF80
FF00
ENDCHAR
STARTCHAR LATIN
ENCODING -1
SWIDTH 480 0
DWIDTH 12 0
BBX 10 10 1 0
BITMAP
FF00
FF80
00C0
00C0
00C0
00C0
00C0
00C0
FF80
FF00
ENDCHAR
STARTCHAR LATIN
ENCODING -1
SWIDTH 480 0
DWIDTH 12 0
BBX 10 12 1 -2
BITMAP
3FC0
7FC0
C000
C000
C000
C380
C7C0
C6C0
7FC0
3F80
0600
0600
ENDCHAR
STARTCHAR LATIN
ENCODING -1
SWIDTH 480 0
DWIDTH 12 0
BBX 12 20 0 -4
BITMAP
00C0
00C0
00C0
00C0
00C0
00C0
3FC0
7FC0
C0C0
C0C0
C0C0
C0C0
C0C0
C0C0
7FC0
3FC0
00C0
00C0
0060
0030
ENDCHAR
STARTCHAR LATIN
ENCODING -1
SWIDTH 480 0
DWIDTH 12 0
BBX 12 18 0 0
BITMAP
0030
0060
00C0
00C0
00C0
00C0
00C0
00C0
3FC0
7FC0
C0C0
C0C0
C0C0
C0C0
C0C0
C0C0
7FC0
3FC0
ENDCHAR
STARTCHAR LATIN
ENCODING -1
SWIDTH 480 0
DWIDTH 12 0
BBX 10 10 1 0
BITMAP
3F00
7F80
C0C0
C0C0
FFC0
FFC0
00C0
00C0
3F80
3F00
ENDCHAR
STARTCHAR LATIN
ENCODING -1
SWIDTH 480 0
DWIDTH 12 0
BBX 10 10 1 0
BITMAP
3F00
3F80
00C0
00C0
FFC0
FFC0
C0C0
C0C0
7F80
3F00
ENDCHAR
STARTCHAR LATIN
ENCODING -1
SWIDTH 480 0
DWIDTH 12 0
BBX 12 10 0 0
BITMAP
3E00
3F00
0180
0180
FFE0
FFF0
C190
C180
7F00
3E00
ENDCHAR
STARTCHAR LATIN
ENCODING -1
SWIDTH 480 0
DWIDTH 12 0
BBX 10 10 1 0
BITMAP
3FC0
7FC0
C000
C000
7C00
7C00
C000
C000
7FC0
3FC0
ENDCHAR
STARTCHAR LATIN
ENCODING -1
SWIDTH 480 0
DWIDTH 12 0
BBX 10 10 1 0
BITMAP
FF00
FF80
00C0
00C0
0F80
0F80
00C0
00C0
FF80
FF00
ENDCHAR
STARTCHAR LATIN
ENCODING -1
SWIDTH 480 0
DWIDTH 12 0
BBX 12 10 0 0
BITMAP
FE00
FF00
01E0
01F0
1F10
1F00
0180
0180
FF00
FE00
ENDCHAR
STARTCHAR LATIN
ENCODING -1
SWIDTH 480 0
DWIDTH 12 0
BBX 10 10 1 0
BITMAP
3F00
7F80
C0C0
C0C0
CF80
CF80
C0C0
C0C0
7F80
3F00
ENDCHAR
STARTCHAR LATIN
ENCODING -1
SWIDTH 480 0
DWIDTH 12 0
BBX 6 14 3 -4
BITMAP
70
70
30
30
FC
FC
30
30
30
30
30
30
60
C0
ENDCHAR
STARTCHAR LATIN
ENCODING -1
SWIDTH 480 0
DWIDTH 12 0
BBX 12 18 0 -4
BITMAP
0030
0060
00C0
00C0
3FC0
7FC0
C0C0
C0C0
C0C0
C0C0
C0C0
C0C0
7FC0
3FC0
00C0
00C0
1F80
1F00
ENDCHAR
STARTCHAR LATIN
ENCODING -1
SWIDTH 480 0
DWIDTH 12 0
BBX 10 14 1 -4
BITMAP
3FC0
7FC0
C0C0
C0C0
C0C0
C0C0
C1C0
C3C0
7EC0
3CC0
00C0
00C0
1F80
1F00
ENDCHAR
STARTCHAR LATIN
ENCODING -1
SWIDTH 480 0
DWIDTH 12 0
BBX 10 10 1 0
BITMAP
3FC0
7FC0
C000
C000
C7C0
C7C0
C0C0
C0C0
7FC0
3FC0
ENDCHAR
STARTCHAR LATIN
ENCODING -1
SWIDTH 480 0
DWIDTH 12 0
BBX 10 14 1 -4
BITMAP
C0C0
C0C0
C0C0
6180
6180
6180
3300
3300
1E00
1E00
3300
3300
1E00
0C00
ENDCHAR
STARTCHAR LATIN
ENCODING -1
SWIDTH 480 0
DWIDTH 12 0
BBX 10 10 1 0
BITMAP
C0C0
6180
3300
1E00
0C00
1E00
3300
3300
1E00
0C00
ENDCHAR
STARTCHAR LATIN
ENCODING -1
SWIDTH 480 0
DWIDTH 12 0
BBX 10 14 1 -4
BITMAP
C0C0
C0C0
C0C0
C0C0
C0C0
C0C0
C0C0
C0C0
7FC0
3FC0
00C0
00C0
00C0
00C0
ENDCHAR
STARTCHAR LATIN
ENCODING -1
SWIDTH 480 0
DWIDTH 12 0
BBX 10 18 1 0
BITMAP
3000
6000
C000
C000
C000
C000
C000
C000
FF00
FF80
C0C0
C0C0
C0C0
C0C0
C0C0
C0C0
C0C0
C0C0
ENDCHAR
STARTCHAR LATIN
ENCODING -1
SWIDTH 480 0
DWIDTH 12 0
BBX 10 22 1 -4
BITMAP
3000
7000
C000
C000
C000
C000
C000
C000
FF00
FF80
C0C0
C0C0
C0C0
C0C0
C0C0
C0C0
C0C0
C0C0
00C0
00C0
0380
0300
ENDCHAR
STARTCHAR LATIN
ENCODING -1
SWIDTH 480 0
DWIDTH 12 0
BBX 6 14 3 0
BITMAP
30
30
00
00
70
70
30
30
FC
FC
30
30
30
30
ENDCHAR
STARTCHAR LATIN
ENCODING -1
SWIDTH 480 0
DWIDTH 12 0
BBX 3 10 5 0
BITMAP
C0
C0
C0
C0
C0
C0
C0
C0
C0
60
ENDCHAR
STARTCHAR LATIN
ENCODING -1
SWIDTH 480 0
DWIDTH 12 0
BBX 4 10 4 0
BITMAP
F0
F0
60
60
60
60
60
60
F0
F0
ENDCHAR
STARTCHAR LATIN
ENCODING -1
SWIDTH 480 0
DWIDTH 12 0
BBX 10 16 1 0
BITMAP
0C00
0C00
0C00
0C00
0C00
0C00
3CC0
7CC0
CF80
CF00
0C00
0C00
0C00
0C00
07C0
03C0
ENDCHAR
STARTCHAR LATIN
ENCODING -1
SWIDTH 480 0
DWIDTH 12 0
BBX 10 16 1 0
BITMAP
0C00
0C00
0C00
0C00
0C00
7C00
FC00
CC00
FFC0
7FC0
0C00
0C00
0C00
0C00
07C0
03C0
ENDCHAR
STARTCHAR LATIN
ENCODING -1
SWIDTH 480 0
DWIDTH 12 0
BBX 8 20 3 -4
BITMAP
C0
C0
C0
C0
C0
C0
C0
C0
C0
C0
C0
C0
C0
C0
7C
3C
0C
0C
06
03
ENDCHAR
STARTCHAR LATIN
ENCODING -1
SWIDTH 480 0
DWIDTH 12 0
BBX 12 20 0 -4
BITMAP
C000
C000
C000
C000
C000
C000
DFF0
DFE0
C0C0
C180
C300
C180
C0C0
C060
7C30
3C30
0030
0030
0FE0
0FC0
ENDCHAR
STARTCHAR LATIN
ENCODING -1
SWIDTH 480 0
DWIDTH 12 0
BBX 10 10 1 0
BITMAP
C0C0
C0C0
CCC0
CCC0
CCC0
CCC0
CCC0
CCC0
7FC0
33C0
ENDCHAR
STARTCHAR LATIN
ENCODING -1
SWIDTH 480 0
DWIDTH 12 0
BBX 10 14 1 -4
BITMAP
C0C0
C0C0
CCC0
CCC0
CCC0
CCC0
CCC0
CCC0
7FC0
33C0
00C0
00C0
00C0
00C0
ENDCHAR
STARTCHAR LATIN
ENCODING -1
SWIDTH 480 0
DWIDTH 12 0
BBX 10 14 1 -4
BITMAP
F300
FF80
CCC0
CCC0
CCC0
CCC0
CCC0
CCC0
C0C0
C0C0
00C0
00C0
0380
0300
ENDCHAR
STARTCHAR LATIN
ENCODING -1
SWIDTH 480 0
DWIDTH 12 0
BBX 12 14 0 -4
BITMAP
3FC0
3FE0
3030
3030
3030
3030
3030
3030
3030
3030
3000
3000
E000
C000
ENDCHAR
STARTCHAR LATIN
ENCODING -1
SWIDTH 480 0
DWIDTH 12 0
BBX 12 14 0 -4
BITMAP
FF00
FF80
C0C0
C0C0
C0C0
C0C0
C0C0
C0C0
C0C0
C0C0
00C0
00C0
0070
0030
ENDCHAR
STARTCHAR LATIN
ENCODING -1
SWIDTH 480 0
DWIDTH 12 0
BBX 10 10 1 0
BITMAP
C0C0
E0C0
F0C0
D8C0
CCC0
C6C0
C3C0
C1C0
C0C0
C0C0
ENDCHAR
STARTCHAR LATIN
ENCODING -1
SWIDTH 480 0
DWIDTH 12 0
BBX 10 10 1 0
BITMAP
3F00
7F80
C0C0
C0C0
FFC0
FFC0
C0C0
C0C0
7F80
3F00
ENDCHAR
STARTCHAR LATIN
ENCODING -1
SWIDTH 480 0
DWIDTH 12 0
BBX 12 10 0 0
BITMAP
3FF0
7FF0
C600
C600
C7C0
C7C0
C600
C600
7FF0
3FF0
ENDCHAR
STARTCHAR LATIN
ENCODING -1
SWIDTH 480 0
DWIDTH 12 0
BBX 10 10 2 0
BITMAP
3F00
7F80
C0C0
C0C0
CCC0
CCC0
CCC0
CCC0
7F80
3300
ENDCHAR
STARTCHAR LATIN
ENCODING -1
SWIDTH 480 0
DWIDTH 12 0
BBX 10 18 1 -4
BITMAP
0C00
0C00
0C00
0C00
3F00
7F80
CCC0
CCC0
CCC0
CCC0
CCC0
CCC0
7F80
3F00
0C00
0C00
0C00
0C00
ENDCHAR
STARTCHAR LATIN
ENCODING -1
SWIDTH 480 0
DWIDTH 12 0
BBX 10 10 1 0
BITMAP
00C0
00C0
00C0
00C0
00C0
00C0
01C0
03C0
FEC0
FCC0
ENDCHAR
STARTCHAR LATIN
ENCODING -1
SWIDTH 480 0
DWIDTH 12 0
BBX 10 14 1 0
BITMAP
00C0
00C0
00C0
00C0
00C0
00C0
00C0
00C0
00C0
00C0
01C0
03C0
FEC0
FCC0
ENDCHAR
STARTCHAR LATIN
ENCODING -1
SWIDTH 480 0
DWIDTH 12 0
BBX 12 14 0 -4
BITMAP
00C0
00C0
00C0
00C0
00C0
00C0
01C0
03C0
FEC0
FCC0
00C0
00C0
0060
0030
ENDCHAR
STARTCHAR LATIN
ENCODING -1
SWIDTH 480 0
DWIDTH 12 0
BBX 10 14 1 -4
BITMAP
CFC0
DFC0
F000
E000
C000
C000
C000
C000
C000
C000
C000
C000
C000
C000
ENDCHAR
STARTCHAR LATIN
ENCODING -1
SWIDTH 480 0
DWIDTH 12 0
BBX 10 14 1 -4
BITMAP
CFC0
DFC0
F000
E000
C000
C000
C000
C000
C000
C000
C000
C000
6000
3000
ENDCHAR
STARTCHAR LATIN
ENCODING -1
SWIDTH 480 0
DWIDTH 12 0
BBX 10 10 1 0
BITMAP
0FC0
1FC0
3000
3000
3000
3000
3000
3000
FC00
FC00
ENDCHAR
STARTCHAR LATIN
ENCODING -1
SWIDTH 480 0
DWIDTH 12 0
BBX 10 10 1 0
BITMAP
FC00
FE00
0300
0300
0300
0300
0300
0300
0FC0
0FC0
ENDCHAR
STARTCHAR LATIN
ENCODING -1
SWIDTH 480 0
DWIDTH 12 0
BBX 10 10 1 0
BITMAP
FF00
FF80
C0C0
C0C0
FF80
FF00
C600
C300
C180
C0C0
ENDCHAR
STARTCHAR LATIN
ENCODING -1
SWIDTH 480 0
DWIDTH 12 0
BBX 10 10 1 0
BITMAP
C0C0
C180
C300
C600
FF00
FF80
C0C0
C0C0
FF80
FF00
ENDCHAR
STARTCHAR LATIN
ENCODING -1
SWIDTH 480 0
DWIDTH 12 0
BBX 10 14 1 -4
BITMAP
3FC0
7FC0
C000
C000
7F00
3F80
00C0
00C0
FF80
FF00
C000
C000
6000
3000
ENDCHAR
STARTCHAR LATIN
ENCODING -1
SWIDTH 480 0
DWIDTH 12 0
BBX 10 20 1 -4
BITMAP
03C0
07C0
0C00
0C00
0C00
0C00
0C00
0C00
0C00
0C00
0C00
0C00
0C00
0C00
0C00
0C00
0C00
0C00
F800
F000
ENDCHAR
STARTCHAR LATIN
ENCODING -1
SWIDTH 480 0
DWIDTH 12 0
BBX 6 18 3 -4
BITMAP
0C
18
30
30
70
70
30
30
FC
FC
30
30
30
30
30
30
60
C0
ENDCHAR
STARTCHAR LATIN
ENCODING -1
SWIDTH 480 0
DWIDTH 12 0
BBX 10 14 1 -4
BITMAP
F000
F800
0C00
0C00
0C00
0C00
0C00
0C00
0C00
0C00
0C00
0C00
07C0
03C0
ENDCHAR
STARTCHAR LATIN
ENCODING -1
SWIDTH 480 0
DWIDTH 12 0
BBX 10 20 1 -4
BITMAP
03C0
07C0
0C00
0C00
0C00
0C00
0C00
0C00
0C00
0C00
0C00
0C00
0C00
0C00
0C00
3F00
7F00
CC00
7800
3000
ENDCHAR
STARTCHAR LATIN
ENCODING -1
SWIDTH 480 0
DWIDTH 12 0
BBX 8 14 3 -4
BITMAP
F0
F8
0C
0C
0C
0C
0C
0C
3F
3F
0C
0C
0C
0C
ENDCHAR
STARTCHAR LATIN
ENCODING -1
SWIDTH 480 0
DWIDTH 12 0
BBX 10 20 2 -4
BITMAP
3000
3000
3000
3000
3000
3000
FC00
FC00
3000
3000
3000
3000
3000
3000
1F00
0F00
0300
0300
0180
00C0
ENDCHAR
STARTCHAR LATIN
ENCODING -1
SWIDTH 480 0
DWIDTH 12 0
BBX 12 10 0 0
BITMAP
6060
6060
6060
6060
FFF0
FFF0
6060
6060
3FE0
1FE0
ENDCHAR
STARTCHAR LATIN
ENCODING -1
SWIDTH 480 0
DWIDTH 12 0
BBX 10 10 1 0
BITMAP
C0C0
6180
3300
6180
C0C0
C0C0
C0C0
C0C0
7F80
3F00
ENDCHAR
STARTCHAR LATIN
ENCODING -1
SWIDTH 480 0
DWIDTH 12 0
BBX 10 14 1 0
BITMAP
0300
0180
00C0
00C0
C0C0
C0C0
C0C0
6180
6180
3300
3300
1E00
1E00
0C00
ENDCHAR
STARTCHAR LATIN
ENCODING -1
SWIDTH 480 0
DWIDTH 12 0
BBX 10 10 1 0
BITMAP
0C00
1E00
1E00
3300
3300
6180
6180
C0C0
C0C0
C0C0
ENDCHAR
STARTCHAR LATIN
ENCODING -1
SWIDTH 480 0
DWIDTH 12 0
BBX 10 10 1 0
BITMAP
8040
C0C0
E1C0
F3C0
DEC0
CCC0
C0C0
C0C0
C0C0
C0C0
ENDCHAR
STARTCHAR LATIN
ENCODING -1
SWIDTH 480 0
DWIDTH 12 0
BBX 10 14 1 0
BITMAP
3E00
7E00
C000
C000
FF00
FF80
C0C0
C0C0
C0C0
C0C0
C0C0
C0C0
C0C0
C0C0
ENDCHAR
STARTCHAR LATIN
ENCODING -1
SWIDTH 480 0
DWIDTH 12 0
BBX 10 10 1 0
BITMAP
C0C0
6180
3300
1E00
0C00
0C00
0C00
0C00
0C00
0C00
ENDCHAR
STARTCHAR LATIN
ENCODING -1
SWIDTH 480 0
DWIDTH 12 0
BBX 11 14 0 -4
BITMAP
FFC0
FF80
0300
0600
0C00
1800
3000
6000
FF80
FF80
0180
0180
00C0
0060
ENDCHAR
STARTCHAR LATIN
ENCODING -1
SWIDTH 480 0
DWIDTH 12 0
BBX 10 12 1 -2
BITMAP
FFC0
FF80
0300
0600
0C00
1B80
37C0
66C0
FFC0
FF80
0600
0600
ENDCHAR
STARTCHAR LATIN
ENCODING -1
SWIDTH 480 0
DWIDTH 12 0
BBX 10 14 1 -4
BITMAP
FFC0
FF80
0300
0600
0C00
0600
0300
0180
00C0
00C0
00C0
00C0
FF80
FF00
ENDCHAR
STARTCHAR LATIN
ENCODING -1
SWIDTH 480 0
DWIDTH 12 0
BBX 10 14 2 -4
BITMAP
FFC0
FF80
0300
0600
0C00
0600
0300
0180
70C0
F8C0
D8C0
FF80
7F00
1800
ENDCHAR
STARTCHAR LATIN
ENCODING -1
SWIDTH 480 0
DWIDTH 12 0
BBX 10 14 1 0
BITMAP
FF00
FF80
00C0
00C0
00C0
0180
0300
0600
0C00
0C00
0C00
0C00
0C00
0C00
ENDCHAR
STARTCHAR LATIN
ENCODING -1
SWIDTH 480 0
DWIDTH 12 0
BBX 10 14 1 0
BITMAP
3FC0
7FC0
C000
C000
C000
6000
3000
1800
0C00
0C00
0C00
0C00
0C00
0C00
ENDCHAR
STARTCHAR LATIN
ENCODING -1
SWIDTH 480 0
DWIDTH 12 0
BBX 10 14 1 0
BITMAP
0C00
0C00
0C00
0C00
0C00
0C00
0600
0300
0180
00C0
00C0
00C0
FF80
FF00
ENDCHAR
STARTCHAR LATIN
ENCODING -1
SWIDTH 480 0
DWIDTH 12 0
BBX 10 18 1 -4
BITMAP
3FC0
7FC0
C000
C000
C000
C000
C000
C000
C000
C000
C000
C000
C000
C000
C000
C000
7FC0
3FC0
ENDCHAR
STARTCHAR LATIN
ENCODING -1
SWIDTH 480 0
DWIDTH 12 0
BBX 10 14 1 0
BITMAP
3F00
7F80
C0C0
C0C0
C0C0
C0C0
CCC0
CCC0
C0C0
C0C0
C0C0
C0C0
7F80
3F00
ENDCHAR
STARTCHAR LATIN
ENCODING -1
SWIDTH 480 0
DWIDTH 12 0
BBX 10 10 1 0
BITMAP
FF00
FF80
C0C0
C0C0
FF80
FF80
C0C0
C0C0
FF80
FF00
ENDCHAR
STARTCHAR LATIN
ENCODING -1
SWIDTH 480 0
DWIDTH 12 0
BBX 10 10 1 0
BITMAP
3F00
7F80
C0C0
C0C0
7CC0
7CC0
C0C0
C0C0
7F80
3F00
ENDCHAR
STARTCHAR LATIN
ENCODING -1
SWIDTH 480 0
DWIDTH 12 0
BBX 10 14 1 0
BITMAP
00C0
0180
0300
0300
3F00
7F00
C000
C000
CF00
CF00
C300
C300
7F00
3F00
ENDCHAR
STARTCHAR LATIN
ENCODING -1
SWIDTH 480 0
DWIDTH 12 0
BBX 10 10 1 0
BITMAP
C0C0
C0C0
C0C0
C0C0
FFC0
FFC0
C0C0
C0C0
C0C0
C0C0
ENDCHAR
STARTCHAR LATIN
ENCODING -1
SWIDTH 480 0
DWIDTH 12 0
BBX 6 18 3 -4
BITMAP
30
30
00
00
70
70
30
30
30
30
30
30
FC
FC
30
30
60
C0
ENDCHAR
STARTCHAR LATIN
ENCODING -1
SWIDTH 480 0
DWIDTH 12 0
BBX 8 14 2 -4
BITMAP
C3
63
33
1B
0F
0F
1B
33
63
C3
03
03
03
03
ENDCHAR
STARTCHAR LATIN
ENCODING -1
SWIDTH 480 0
DWIDTH 12 0
BBX 10 10 1 0
BITMAP
C000
C000
C000
C000
C000
C000
C000
C000
FFC0
FFC0
ENDCHAR
STARTCHAR LATIN
ENCODING -1
SWIDTH 480 0
DWIDTH 12 0
BBX 12 18 0 -4
BITMAP
0030
0060
00C0
00C0
3FC0
7FC0
C0C0
C0C0
C0C0
C0C0
C0C0
C0C0
7FC0
3FC0
00C0
00C0
00C0
00C0
ENDCHAR
STARTCHAR LATIN
ENCODING -1
SWIDTH 480 0
DWIDTH 12 0
BBX 10 14 1 0
BITMAP
FF00
FF80
00C0
00C0
00C0
0180
0300
0600
0C00
0C00
3F00
3F00
0C00
0C00
ENDCHAR
STARTCHAR LATIN
ENCODING -1
SWIDTH 480 0
DWIDTH 12 0
BBX 10 14 1 0
BITMAP
3FC0
7FC0
C000
C000
C000
6000
3000
1800
0C00
0C00
3F00
3F00
0C00
0C00
ENDCHAR
STARTCHAR LATIN
ENCODING -1
SWIDTH 480 0
DWIDTH 12 0
BBX 12 16 0 0
BITMAP
0C00
0C00
0C00
0C00
0C00
0C00
3FF0
7FF0
CC30
CC60
CCC0
CD80
CF80
CF00
7FF0
3FF0
ENDCHAR
STARTCHAR LATIN
ENCODING -1
SWIDTH 480 0
DWIDTH 12 0
BBX 12 20 0 -4
BITMAP
0C00
0C00
0C00
0C00
0C00
0C00
3FF0
7FF0
CC30
CC60
CCC0
CD80
CCC0
CC60
7C30
3C30
0030
0030
0FE0
0FC0
ENDCHAR
STARTCHAR LATIN
ENCODING -1
SWIDTH 480 0
DWIDTH 12 0
BBX 12 18 0 -2
BITMAP
0C00
0C00
0C00
0C00
0C00
0C00
3FF0
7FF0
CC30
CC60
CCC0
CD80
CF60
CEF0
7FD0
3FF0
00C0
00C0
ENDCHAR
STARTCHAR LATIN
ENCODING -1
SWIDTH 480 0
DWIDTH 12 0
BBX 12 16 0 0
BITMAP
3000
3000
3000
3000
3000
3000
FCF0
FDF0
3300
3300
31C0
30E0
3030
3030
1FE0
0FC0
ENDCHAR
STARTCHAR LATIN
ENCODING -1
SWIDTH 480 0
DWIDTH 12 0
BBX 12 20 0 -4
BITMAP
3070
30F0
3180
3180
3180
3180
FD80
FD80
3180
3180
3180
3180
3180
3180
1F80
0F80
0180
0180
0F00
0E00
ENDCHAR
STARTCHAR LATIN
ENCODING -1
SWIDTH 480 0
DWIDTH 12 0
BBX 12 18 0 -2
BITMAP
3000
3000
3000
3000
3000
3000
FCF0
FDF0
3300
3300
3300
3300
3360
33F0
1FD0
0FF0
00C0
00C0
ENDCHAR
STARTCHAR LATIN
ENCODING -1
SWIDTH 480 0
DWIDTH 12 0
BBX 10 20 1 -4
BITMAP
3C00
7C00
C000
C000
C000
C000
F300
FF80
CCC0
CCC0
CCC0
CCC0
CCC0
CCC0
CCC0
C0C0
00C0
00C0
0380
0300
ENDCHAR
STARTCHAR LATIN
ENCODING -1
SWIDTH 480 0
DWIDTH 12 0
BBX 12 16 0 0
BITMAP
C000
C000
C000
C000
C000
C000
C3F0
C7F0
CC00
CC00
C7C0
C3E0
C030
C030
7FE0
3FC0
ENDCHAR
STARTCHAR LATIN
ENCODING -1
SWIDTH 480 0
DWIDTH 12 0
BBX 12 16 0 0
BITMAP
C000
C000
C000
C000
C000
C000
CFF0
CFF0
C060
C0C0
C180
C300
C600
CC00
7FF0
3FF0
ENDCHAR
STARTCHAR LATIN
ENCODING -1
SWIDTH 480 0
DWIDTH 12 0
BBX 12 10 0 0
BITMAP
C630
6F60
39C0
1080
0000
0000
C630
6F60
39C0
1080
ENDCHAR
STARTCHAR LATIN
ENCODING -1
SWIDTH 480 0
DWIDTH 12 0
BBX 10 10 1 0
BITMAP
FFC0
FFC0
C0C0
C0C0
0000
0000
FFC0
FFC0
C0C0
C0C0
ENDCHAR
STARTCHAR LATIN
ENCODING -1
SWIDTH 480 0
DWIDTH 12 0
BBX 12 16 0 -4
BITMAP
C000
6000
3030
3030
3030
3030
3030
3030
1FF0
0FF0
0030
0030
0030
0030
0030
0030
ENDCHAR
STARTCHAR LATIN
ENCODING -1
SWIDTH 480 0
DWIDTH 12 0
BBX 12 16 0 -4
BITMAP
C000
6000
30C0
30C0
30C0
30C0
30C0
30C0
30C0
1FC0
0FC0
00C0
00C0
00C0
0060
0030
ENDCHAR
STARTCHAR MODIFIER
ENCODING -1
SWIDTH 480 0
DWIDTH 12 0
BBX 10 14 1 6
BITMAP
C000
C000
C000
C000
FF00
FF80
C0C0
C0C0
C0C0
C0C0
C0C0
C0C0
C0C0
C0C0
ENDCHAR
STARTCHAR MODIFIER
ENCODING -1
SWIDTH 480 0
DWIDTH 12 0
BBX 10 14 1 6
BITMAP
3000
6000
C000
C000
C000
C000
FF00
FF80
C0C0
C0C0
C0C0
C0C0
C0C0
C0C0
ENDCHAR
STARTCHAR MODIFIER
ENCODING -1
SWIDTH 480 0
DWIDTH 12 0
BBX 4 18 3 2
BITMAP
30
30
00
00
70
70
30
30
30
30
30
30
30
30
30
30
60
C0
ENDCHAR
STARTCHAR MODIFIER
ENCODING -1
SWIDTH 480 0
DWIDTH 12 0
BBX 10 10 1 6
BITMAP
CFC0
DFC0
F000
E000
C000
C000
C000
C000
C000
C000
ENDCHAR
STARTCHAR MODIFIER
ENCODING -1
SWIDTH 480 0
DWIDTH 12 0
BBX 10 10 1 6
BITMAP
00C0
00C0
00C0
00C0
00C0
00C0
01C0
03C0
FEC0
FCC0
ENDCHAR
STARTCHAR MODIFIER
ENCODING -1
SWIDTH 480 0
DWIDTH 12 0
BBX 12 12 0 4
BITMAP
00C0
00C0
00C0
00C0
00C0
00C0
01C0
03C0
FEC0
FCC0
0060
0030
ENDCHAR
STARTCHAR MODIFIER
ENCODING -1
SWIDTH 480 0
DWIDTH 12 0
BBX 10 10 1 6
BITMAP
C0C0
C180
C300
C600
FF00
FF80
C0C0
C0C0
FF80
FF00
ENDCHAR
STARTCHAR MODIFIER
ENCODING -1
SWIDTH 480 0
DWIDTH 12 0
BBX 10 10 1 6
BITMAP
C0C0
C0C0
C0C0
C0C0
CCC0
DEC0
FFC0
F1C0
C0C0
8040
ENDCHAR
STARTCHAR MODIFIER
ENCODING -1
SWIDTH 480 0
DWIDTH 12 0
BBX 10 14 1 2
BITMAP
C0C0
C0C0
C0C0
C0C0
C0C0
C0C0
C0C0
C0C0
7FC0
3FC0
00C0
00C0
1F80
1F00
ENDCHAR
STARTCHAR MODIFIER
ENCODING -1
SWIDTH 480 0
DWIDTH 12 0
BBX 7 6 3 14
BITMAP
06
0C
18
30
60
C0
ENDCHAR
STARTCHAR MODIFIER
ENCODING -1
SWIDTH 480 0
DWIDTH 12 0
BBX 12 6 0 14
BITMAP
0630
0C60
18C0
3180
6300
C600
ENDCHAR
STARTCHAR MODIFIER
ENCODING -1
SWIDTH 480 0
DWIDTH 12 0
BBX 4 5 5 15
BITMAP
30
60
C0
C0
C0
ENDCHAR
STARTCHAR MODIFIER
ENCODING -1
SWIDTH 480 0
DWIDTH 12 0
BBX 4 5 3 15
BITMAP
30
30
30
60
C0
ENDCHAR
STARTCHAR MODIFIER
ENCODING -1
SWIDTH 480 0
DWIDTH 12 0
BBX 4 5 5 15
BITMAP
C0
C0
C0
60
30
ENDCHAR
STARTCHAR MODIFIER
ENCODING -1
SWIDTH 480 0
DWIDTH 12 0
BBX 4 6 5 14
BITMAP
C0
E0
30
30
E0
C0
ENDCHAR
STARTCHAR MODIFIER
ENCODING -1
SWIDTH 480 0
DWIDTH 12 0
BBX 4 6 3 14
BITMAP
30
70
C0
C0
70
30
ENDCHAR
STARTCHAR MODIFIER
ENCODING -1
SWIDTH 480 0
DWIDTH 12 0
BBX 10 14 2 6
BITMAP
FF00
FF80
00C0
00C0
00C0
0180
0300
0600
0C00
0C00
0C00
0C00
0C00
0C00
ENDCHAR
STARTCHAR MODIFIER
ENCODING -1
SWIDTH 480 0
DWIDTH 12 0
BBX 10 14 2 6
BITMAP
3FC0
7FC0
C000
C000
C000
6000
3000
1800
0C00
0C00
0C00
0C00
0C00
0C00
ENDCHAR
STARTCHAR MODIFIER
ENCODING -1
SWIDTH 480 0
DWIDTH 12 0
BBX 9 6 1 8
BITMAP
0780
1F80
FC00
FC00
1F80
0780
ENDCHAR
STARTCHAR MODIFIER
ENCODING -1
SWIDTH 480 0
DWIDTH 12 0
BBX 9 6 2 8
BITMAP
F000
FC00
1F80
1F80
FC00
F000
ENDCHAR
STARTCHAR MODIFIER
ENCODING -1
SWIDTH 480 0
DWIDTH 12 0
BBX 6 3 3 11
BITMAP
30
78
CC
ENDCHAR
STARTCHAR MODIFIER
ENCODING -1
SWIDTH 480 0
DWIDTH 12 0
BBX 6 3 3 11
BITMAP
CC
78
30
ENDCHAR
STARTCHAR MODIFIER
ENCODING -1
SWIDTH 480 0
DWIDTH 12 0
BBX 8 4 2 16
BITMAP
18
3C
66
C3
ENDCHAR
STARTCHAR CARON
ENCODING -1
SWIDTH 480 0
DWIDTH 12 0
BBX 8 4 2 16
BITMAP
C3
66
3C
18
ENDCHAR
STARTCHAR MODIFIER
ENCODING -1
SWIDTH 480 0
DWIDTH 12 0
BBX 2 6 5 14
BITMAP
C0
C0
C0
C0
C0
C0
ENDCHAR
STARTCHAR MODIFIER
ENCODING -1
SWIDTH 480 0
DWIDTH 12 0
BBX 6 2 3 16
BITMAP
FC
FC
ENDCHAR
STARTCHAR MODIFIER
ENCODING -1
SWIDTH 480 0
DWIDTH 12 0
BBX 5 4 5 16
BITMAP
18
30
60
C0
ENDCHAR
STARTCHAR MODIFIER
ENCODING -1
SWIDTH 480 0
DWIDTH 12 0
BBX 5 4 2 16
BITMAP
C0
60
30
18
ENDCHAR
STARTCHAR MODIFIER
ENCODING -1
SWIDTH 480 0
DWIDTH 12 0
BBX 2 6 5 -4
BITMAP
C0
C0
C0
C0
C0
C0
ENDCHAR
STARTCHAR MODIFIER
ENCODING -1
SWIDTH 480 0
DWIDTH 12 0
BBX 6 2 3 -4
BITMAP
FC
FC
ENDCHAR
STARTCHAR MODIFIER
ENCODING -1
SWIDTH 480 0
DWIDTH 12 0
BBX 5 4 5 -4
BITMAP
C0
60
30
18
ENDCHAR
STARTCHAR MODIFIER
ENCODING -1
SWIDTH 480 0
DWIDTH 12 0
BBX 5 4 2 -4
BITMAP
18
30
60
C0
ENDCHAR
STARTCHAR MODIFIER
ENCODING -1
SWIDTH 480 0
DWIDTH 12 0
BBX 6 10 3 0
BITMAP
FC
78
30
00
00
00
00
30
78
FC
ENDCHAR
STARTCHAR MODIFIER
ENCODING -1
SWIDTH 480 0
DWIDTH 12 0
BBX 6 3 3 4
BITMAP
FC
78
30
ENDCHAR
STARTCHAR MODIFIER
ENCODING -1
SWIDTH 480 0
DWIDTH 12 0
BBX 4 6 5 2
BITMAP
C0
E0
30
30
E0
C0
ENDCHAR
STARTCHAR MODIFIER
ENCODING -1
SWIDTH 480 0
DWIDTH 12 0
BBX 4 6 3 2
BITMAP
30
70
C0
C0
70
30
ENDCHAR
STARTCHAR MODIFIER
ENCODING -1
SWIDTH 480 0
DWIDTH 12 0
BBX 10 6 1 4
BITMAP
0C00
0C00
0C00
0C00
FFC0
FFC0
ENDCHAR
STARTCHAR MODIFIER
ENCODING -1
SWIDTH 480 0
DWIDTH 12 0
BBX 10 6 1 0
BITMAP
FFC0
FFC0
0C00
0C00
0C00
0C00
ENDCHAR
STARTCHAR MODIFIER
ENCODING -1
SWIDTH 480 0
DWIDTH 12 0
BBX 10 10 1 0
BITMAP
0C00
0C00
0C00
0C00
FFC0
FFC0
0C00
0C00
0C00
0C00
ENDCHAR
STARTCHAR MODIFIER
ENCODING -1
SWIDTH 480 0
DWIDTH 12 0
BBX 10 2 1 4
BITMAP
FFC0
FFC0
ENDCHAR
STARTCHAR BREVE
ENCODING -1
SWIDTH 480 0
DWIDTH 12 0
BBX 10 3 1 17
BITMAP
C0C0
7F80
3F00
ENDCHAR
STARTCHAR DOT
ENCODING -1
SWIDTH 480 0
DWIDTH 12 0
BBX 2 2 5 16
BITMAP
C0
C0
ENDCHAR
STARTCHAR RING
ENCODING -1
SWIDTH 480 0
DWIDTH 12 0
BBX 6 6 3 14
BITMAP
30
78
CC
CC
78
30
ENDCHAR
STARTCHAR OGONEK
ENCODING -1
SWIDTH 480 0
DWIDTH 12 0
BBX 3 4 8 -4
BITMAP
60
C0
C0
60
ENDCHAR
STARTCHAR SMALL
ENCODING -1
SWIDTH 480 0
DWIDTH 12 0
BBX 10 2 1 18
BITMAP
7CC0
CF80
ENDCHAR
STARTCHAR DOUBLE
ENCODING -1
SWIDTH 480 0
DWIDTH 12 0
BBX 9 4 3 16
BITMAP
1980
3300
6600
CC00
ENDCHAR
STARTCHAR MODIFIER
ENCODING -1
SWIDTH 480 0
DWIDTH 12 0
BBX 12 8 0 2
BITMAP
3000
7800
CC00
8C00
0C30
0C30
07E0
03C0
ENDCHAR
STARTCHAR MODIFIER
ENCODING -1
SWIDTH 480 0
DWIDTH 12 0
BBX 6 5 3 15
BITMAP
CC
78
30
78
CC
ENDCHAR
STARTCHAR MODIFIER
ENCODING -1
SWIDTH 480 0
DWIDTH 12 0
BBX 10 10 1 4
BITMAP
C0C0
6180
3300
1E00
0C00
1E00
3300
3300
1E00
0C00
ENDCHAR
STARTCHAR MODIFIER
ENCODING -1
SWIDTH 480 0
DWIDTH 12 0
BBX 4 12 4 6
BITMAP
C0
C0
C0
C0
C0
C0
C0
C0
C0
C0
70
30
ENDCHAR
STARTCHAR MODIFIER
ENCODING -1
SWIDTH 480 0
DWIDTH 12 0
BBX 8 8 2 6
BITMAP
3F
7F
C0
7C
3E
03
FE
FC
ENDCHAR
STARTCHAR MODIFIER
ENCODING -1
SWIDTH 480 0
DWIDTH 12 0
BBX 8 5 2 9
BITMAP
C3
66
3C
66
C3
ENDCHAR
STARTCHAR MODIFIER
ENCODING -1
SWIDTH 480 0
DWIDTH 12 0
BBX 8 8 2 6
BITMAP
3F
7F
C0
60
30
18
0C
0C
ENDCHAR
STARTCHAR MODIFIER
ENCODING -1
SWIDTH 480 0
DWIDTH 12 0
BBX 10 10 1 0
BITMAP
FFC0
FFC0
00C0
00C0
00C0
00C0
00C0
00C0
00C0
00C0
ENDCHAR
STARTCHAR MODIFIER
ENCODING -1
SWIDTH 480 0
DWIDTH 12 0
BBX 10 10 1 0
BITMAP
00C0
00C0
FFC0
FFC0
00C0
00C0
00C0
00C0
00C0
00C0
ENDCHAR
STARTCHAR MODIFIER
ENCODING -1
SWIDTH 480 0
DWIDTH 12 0
BBX 10 10 1 0
BITMAP
00C0
00C0
00C0
00C0
FFC0
FFC0
00C0
00C0
00C0
00C0
ENDCHAR
STARTCHAR MODIFIER
ENCODING -1
SWIDTH 480 0
DWIDTH 12 0
BBX 10 10 1 0
BITMAP
00C0
00C0
00C0
00C0
00C0
00C0
FFC0
FFC0
00C0
00C0
ENDCHAR
STARTCHAR MODIFIER
ENCODING -1
SWIDTH 480 0
DWIDTH 12 0
BBX 10 10 1 0
BITMAP
00C0
00C0
00C0
00C0
00C0
00C0
00C0
00C0
FFC0
FFC0
ENDCHAR
STARTCHAR MODIFIER
ENCODING -1
SWIDTH 480 0
DWIDTH 12 0
BBX 10 10 1 0
BITMAP
C000
C000
C000
C000
C000
C000
C000
C000
FFC0
FFC0
ENDCHAR
STARTCHAR MODIFIER
ENCODING -1
SWIDTH 480 0
DWIDTH 12 0
BBX 10 10 1 0
BITMAP
C000
C000
C000
C000
FFC0
FFC0
C000
C000
C000
C000
ENDCHAR
STARTCHAR MODIFIER
ENCODING -1
SWIDTH 480 0
DWIDTH 12 0
BBX 6 4 3 -4
BITMAP
CC
CC
78
30
ENDCHAR
STARTCHAR MODIFIER
ENCODING -1
SWIDTH 480 0
DWIDTH 12 0
BBX 10 5 1 15
BITMAP
FFC0
FFC0
0000
FFC0
FFC0
ENDCHAR
STARTCHAR MODIFIER
ENCODING -1
SWIDTH 480 0
DWIDTH 12 0
BBX 8 5 2 15
BITMAP
33
33
33
66
CC
ENDCHAR
STARTCHAR GREEK
ENCODING -1
SWIDTH 480 0
DWIDTH 12 0
BBX 2 4 5 -4
BITMAP
C0
C0
C0
C0
ENDCHAR
STARTCHAR GREEK
ENCODING -1
SWIDTH 480 0
DWIDTH 12 0
BBX 4 12 3 -2
BITMAP
30
30
00
00
00
00
00
00
30
30
60
C0
ENDCHAR
STARTCHAR GREEK
ENCODING -1
SWIDTH 480 0
DWIDTH 12 0
BBX 5 4 5 16
BITMAP
18
30
60
C0
ENDCHAR
STARTCHAR GREEK
ENCODING -1
SWIDTH 480 0
DWIDTH 12 0
BBX 10 6 1 14
BITMAP
0180
0300
0600
0C00
C0C0
C0C0
ENDCHAR
STARTCHAR GREEK
ENCODING -1
SWIDTH 480 0
DWIDTH 12 0
BBX 12 16 0 0
BITMAP
1800
3000
6FC0
DFE0
3030
3030
3030
3030
3030
3030
3FF0
3FF0
3030
3030
3030
3030
ENDCHAR
STARTCHAR GREEK
ENCODING -1
SWIDTH 480 0
DWIDTH 12 0
BBX 12 16 0 0
BITMAP
1800
3000
6FF0
DFF0
3000
3000
3000
3000
3F00
3F00
3000
3000
3000
3000
3FF0
3FF0
ENDCHAR
STARTCHAR GREEK
ENCODING -1
SWIDTH 480 0
DWIDTH 12 0
BBX 12 16 0 0
BITMAP
1800
3000
6030
D030
3030
3030
3030
3030
3FF0
3FF0
3030
3030
3030
3030
3030
3030
ENDCHAR
STARTCHAR GREEK
ENCODING -1
SWIDTH 480 0
DWIDTH 12 0
BBX 8 16 2 0
BITMAP
18
30
6F
CF
06
06
06
06
06
06
06
06
06
06
0F
0F
ENDCHAR
STARTCHAR GREEK
ENCODING -1
SWIDTH 480 0
DWIDTH 12 0
BBX 12 16 0 0
BITMAP
1800
3000
6FC0
DFE0
3030
3030
3030
3030
3030
3030
3030
3030
3030
3030
1FE0
0FC0
ENDCHAR
STARTCHAR GREEK
ENCODING -1
SWIDTH 480 0
DWIDTH 12 0
BBX 12 16 0 0
BITMAP
1800
3000
6030
D030
3030
3030
1860
0CC0
0780
0300
0300
0300
0300
0300
0300
0300
ENDCHAR
STARTCHAR GREEK
ENCODING -1
SWIDTH 480 0
DWIDTH 12 0
BBX 12 16 0 0
BITMAP
1800
3000
6FC0
DFE0
3030
3030
3030
3030
3030
3030
3030
3030
1CE0
0CC0
3CF0
3CF0
ENDCHAR
STARTCHAR GREEK
ENCODING -1
SWIDTH 480 0
DWIDTH 12 0
BBX 7 20 3 0
BITMAP
06
0C
18
30
00
00
CC
CC
00
00
30
30
30
30
30
30
30
30
30
18
ENDCHAR
STARTCHAR GREEK
ENCODING -1
SWIDTH 480 0
DWIDTH 12 0
BBX 10 14 1 0
BITMAP
3F00
7F80
C0C0
C0C0
C0C0
C0C0
C0C0
C0C0
FFC0
FFC0
C0C0
C0C0
C0C0
C0C0
ENDCHAR
STARTCHAR GREEK
ENCODING -1
SWIDTH 480 0
DWIDTH 12 0
BBX 10 14 1 0
BITMAP
FF00
FF80
C0C0
C0C0
C0C0
C0C0
FF80
FF80
C0C0
C0C0
C0C0
C0C0
FF80
FF00
ENDCHAR
STARTCHAR GREEK
ENCODING -1
SWIDTH 480 0
DWIDTH 12 0
BBX 10 14 1 0
BITMAP
0C00
0C00
1E00
1E00
3300
3300
6180
6180
C0C0
C0C0
C0C0
C0C0
FFC0
FFC0
ENDCHAR
STARTCHAR GREEK
ENCODING -1
SWIDTH 480 0
DWIDTH 12 0
BBX 10 14 1 0
BITMAP
FFC0
FFC0
C000
C000
C000
C000
FC00
FC00
C000
C000
C000
C000
FFC0
FFC0
ENDCHAR
STARTCHAR GREEK
ENCODING -1
SWIDTH 480 0
DWIDTH 12 0
BBX 10 14 1 0
BITMAP
FFC0
FFC0
00C0
0180
0300
0600
0C00
1800
3000
6000
C000
8000
FFC0
FFC0
ENDCHAR
STARTCHAR GREEK
ENCODING -1
SWIDTH 480 0
DWIDTH 12 0
BBX 10 14 1 0
BITMAP
C0C0
C0C0
C0C0
C0C0
C0C0
C0C0
FFC0
FFC0
C0C0
C0C0
C0C0
C0C0
C0C0
C0C0
ENDCHAR
STARTCHAR GREEK
ENCODING -1
SWIDTH 480 0
DWIDTH 12 0
BBX 4 14 4 0
BITMAP
F0
F0
60
60
60
60
60
60
60
60
60
60
F0
F0
ENDCHAR
STARTCHAR GREEK
ENCODING -1
SWIDTH 480 0
DWIDTH 12 0
BBX 10 14 1 0
BITMAP
C0C0
C180
C300
C600
CC00
D800
F000
F000
D800
CC00
C600
C300
C180
C0C0
ENDCHAR
STARTCHAR GREEK
ENCODING -1
SWIDTH 480 0
DWIDTH 12 0
BBX 10 14 1 0
BITMAP
0C00
0C00
1E00
1E00
1E00
3300
3300
3300
6180
6180
6180
C0C0
C0C0
C0C0
ENDCHAR
STARTCHAR GREEK
ENCODING -1
SWIDTH 480 0
DWIDTH 12 0
BBX 10 14 1 0
BITMAP
8040
C0C0
E1C0
F3C0
DEC0
CCC0
C0C0
C0C0
C0C0
C0C0
C0C0
C0C0
C0C0
C0C0
ENDCHAR
STARTCHAR GREEK
ENCODING -1
SWIDTH 480 0
DWIDTH 12 0
BBX 10 14 1 0
BITMAP
C0C0
C0C0
C0C0
E0C0
F0C0
D8C0
CCC0
C6C0
C3C0
C1C0
C0C0
C0C0
C0C0
C0C0
ENDCHAR
STARTCHAR GREEK
ENCODING -1
SWIDTH 480 0
DWIDTH 12 0
BBX 10 14 1 0
BITMAP
FFC0
FFC0
0000
0000
0000
0000
3F00
3F00
0000
0000
0000
0000
FFC0
FFC0
ENDCHAR
STARTCHAR GREEK
ENCODING -1
SWIDTH 480 0
DWIDTH 12 0
BBX 10 14 1 0
BITMAP
3F00
7F80
C0C0
C0C0
C0C0
C0C0
C0C0
C0C0
C0C0
C0C0
C0C0
C0C0
7F80
3F00
ENDCHAR
STARTCHAR GREEK
ENCODING -1
SWIDTH 480 0
DWIDTH 12 0
BBX 10 14 1 0
BITMAP
FFC0
FFC0
C0C0
C0C0
C0C0
C0C0
C0C0
C0C0
C0C0
C0C0
C0C0
C0C0
C0C0
C0C0
ENDCHAR
STARTCHAR GREEK
ENCODING -1
SWIDTH 480 0
DWIDTH 12 0
BBX 10 14 1 0
BITMAP
FF00
FF80
C0C0
C0C0
C0C0
C0C0
C0C0
C0C0
FF80
FF00
C000
C000
C000
C000
ENDCHAR
STARTCHAR GREEK
ENCODING -1
SWIDTH 480 0
DWIDTH 12 0
BBX 10 14 1 0
BITMAP
FFC0
FFC0
0C00
0C00
0C00
0C00
0C00
0C00
0C00
0C00
0C00
0C00
0C00
0C00
ENDCHAR
STARTCHAR GREEK
ENCODING -1
SWIDTH 480 0
DWIDTH 12 0
BBX 10 14 1 0
BITMAP
C0C0
C0C0
C0C0
C0C0
6180
3300
1E00
0C00
0C00
0C00
0C00
0C00
0C00
0C00
ENDCHAR
STARTCHAR GREEK
ENCODING -1
SWIDTH 480 0
DWIDTH 12 0
BBX 10 14 1 0
BITMAP
C0C0
C0C0
C0C0
6180
3300
1E00
0C00
0C00
1E00
3300
6180
C0C0
C0C0
C0C0
ENDCHAR
STARTCHAR GREEK
ENCODING -1
SWIDTH 480 0
DWIDTH 12 0
BBX 10 14 1 0
BITMAP
CCC0
CCC0
CCC0
CCC0
CCC0
CCC0
7F80
3F00
0C00
0C00
0C00
0C00
0C00
0C00
ENDCHAR
STARTCHAR GREEK
ENCODING -1
SWIDTH 480 0
DWIDTH 12 0
BBX 6 18 3 0
BITMAP
CC
CC
00
00
78
78
30
30
30
30
30
30
30
30
30
30
78
78
ENDCHAR
STARTCHAR GREEK
ENCODING -1
SWIDTH 480 0
DWIDTH 12 0
BBX 10 18 1 0
BITMAP
3300
3300
0000
0000
C0C0
C0C0
C0C0
C0C0
6180
3300
1E00
0C00
0C00
0C00
0C00
0C00
0C00
0C00
ENDCHAR
STARTCHAR GREEK
ENCODING -1
SWIDTH 480 0
DWIDTH 12 0
BBX 10 16 1 0
BITMAP
0180
0300
0600
0C00
0000
0000
3EC0
7FC0
C180
C180
C180
C180
C180
C180
7FC0
3EC0
ENDCHAR
STARTCHAR GREEK
ENCODING -1
SWIDTH 480 0
DWIDTH 12 0
BBX 10 16 1 0
BITMAP
0180
0300
0600
0C00
0000
0000
3FC0
7FC0
C000
C000
7C00
7C00
C000
C000
7FC0
3FC0
ENDCHAR
STARTCHAR GREEK
ENCODING -1
SWIDTH 480 0
DWIDTH 12 0
BBX 10 20 1 -4
BITMAP
0180
0300
0600
0C00
0000
0000
FF00
FF80
C0C0
C0C0
C0C0
C0C0
C0C0
C0C0
C0C0
C0C0
00C0
00C0
00C0
00C0
ENDCHAR
STARTCHAR GREEK
ENCODING -1
SWIDTH 480 0
DWIDTH 12 0
BBX 5 16 5 0
BITMAP
18
30
60
C0
00
00
C0
C0
C0
C0
C0
C0
C0
C0
C0
60
ENDCHAR
STARTCHAR GREEK
ENCODING -1
SWIDTH 480 0
DWIDTH 12 0
BBX 10 20 1 0
BITMAP
0180
0300
0600
0C00
0000
0000
3300
3300
0000
0000
C0C0
C0C0
C0C0
C0C0
C0C0
C0C0
C0C0
C0C0
7F80
3F00
ENDCHAR
STARTCHAR GREEK
ENCODING -1
SWIDTH 480 0
DWIDTH 12 0
BBX 10 20 1 -4
BITMAP
3C00
7E00
C300
C300
C300
C600
CC00
CC00
C600
C300
C180
C0C0
C0C0
C0C0
DF80
DF00
C000
C000
C000
C000
ENDCHAR
STARTCHAR GREEK
ENCODING -1
SWIDTH 480 0
DWIDTH 12 0
BBX 10 14 1 -4
BITMAP
C0C0
C0C0
6180
6180
3300
3300
1E00
1E00
0C00
0C00
0C00
0C00
0C00
0C00
ENDCHAR
STARTCHAR GREEK
ENCODING -1
SWIDTH 480 0
DWIDTH 12 0
BBX 10 18 1 -2
BITMAP
FFC0
FFC0
00C0
0180
0300
0600
0C00
1800
3000
6000
C000
C000
C000
C000
7F00
3F80
00C0
00C0
ENDCHAR
STARTCHAR GREEK
ENCODING -1
SWIDTH 480 0
DWIDTH 12 0
BBX 10 14 1 -4
BITMAP
FF00
FF80
C0C0
C0C0
C0C0
C0C0
C0C0
C0C0
C0C0
C0C0
00C0
00C0
00C0
00C0
ENDCHAR
STARTCHAR GREEK
ENCODING -1
SWIDTH 480 0
DWIDTH 12 0
BBX 10 16 1 0
BITMAP
3F00
7F80
C0C0
C0C0
C0C0
C0C0
C0C0
FFC0
FFC0
C0C0
C0C0
C0C0
C0C0
C0C0
7F80
3F00
ENDCHAR
STARTCHAR GREEK
ENCODING -1
SWIDTH 480 0
DWIDTH 12 0
BBX 3 10 5 0
BITMAP
C0
C0
C0
C0
C0
C0
C0
C0
C0
60
ENDCHAR
STARTCHAR GREEK
ENCODING -1
SWIDTH 480 0
DWIDTH 12 0
BBX 8 10 2 0
BITMAP
C3
C6
CC
D8
F0
F0
D8
CC
C6
C3
ENDCHAR
STARTCHAR GREEK
ENCODING -1
SWIDTH 480 0
DWIDTH 12 0
BBX 10 16 1 0
BITMAP
3000
3800
0C00
0C00
0600
0600
0E00
0F00
1B00
1B00
3180
3180
6180
60C0
C0C0
C0C0
ENDCHAR
STARTCHAR GREEK
ENCODING -1
SWIDTH 480 0
DWIDTH 12 0
BBX 10 14 1 -4
BITMAP
C0C0
C0C0
C0C0
C0C0
C0C0
C0C0
C0C0
C0C0
FF80
FF00
C000
C000
C000
C000
ENDCHAR
STARTCHAR GREEK
ENCODING -1
SWIDTH 480 0
DWIDTH 12 0
BBX 10 10 1 0
BITMAP
C0C0
C0C0
60C0
60C0
30C0
3180
1980
1B00
0E00
0C00
ENDCHAR
STARTCHAR GREEK
ENCODING -1
SWIDTH 480 0
DWIDTH 12 0
BBX 10 18 1 -2
BITMAP
3FC0
3FC0
0C00
1800
3000
1800
0F00
1F00
3000
6000
C000
C000
C000
C000
7F00
3F80
00C0
00C0
ENDCHAR
STARTCHAR GREEK
ENCODING -1
SWIDTH 480 0
DWIDTH 12 0
BBX 10 10 1 0
BITMAP
3F00
7F80
C0C0
C0C0
C0C0
C0C0
C0C0
C0C0
7F80
3F00
ENDCHAR
STARTCHAR GREEK
ENCODING -1
SWIDTH 480 0
DWIDTH 12 0
BBX 10 14 1 -4
BITMAP
3F00
7F80
C0C0
C0C0
C0C0
C0C0
C0C0
C0C0
FF80
FF00
C000
C000
C000
C000
ENDCHAR
STARTCHAR GREEK
ENCODING -1
SWIDTH 480 0
DWIDTH 12 0
BBX 10 12 1 -2
BITMAP
3FC0
7FC0
C000
C000
C000
C000
C000
C000
7F00
3F80
00C0
00C0
ENDCHAR
STARTCHAR GREEK
ENCODING -1
SWIDTH 480 0
DWIDTH 12 0
BBX 10 10 1 0
BITMAP
C0C0
C0C0
C0C0
C0C0
C0C0
C0C0
C0C0
C0C0
7F80
3F00
ENDCHAR
STARTCHAR GREEK
ENCODING -1
SWIDTH 480 0
DWIDTH 12 0
BBX 10 14 1 -4
BITMAP
F0C0
F8C0
0CC0
0CC0
0D80
0F00
0E00
1C00
3C00
6C00
CC00
CC00
C7C0
C3C0
ENDCHAR
STARTCHAR GREEK
ENCODING -1
SWIDTH 480 0
DWIDTH 12 0
BBX 10 18 1 -4
BITMAP
0C00
0C00
0C00
0C00
CCC0
CCC0
CCC0
CCC0
CCC0
CCC0
CCC0
CCC0
7F80
3F00
0C00
0C00
0C00
0C00
ENDCHAR
STARTCHAR GREEK
ENCODING -1
SWIDTH 480 0
DWIDTH 12 0
BBX 10 10 1 0
BITMAP
2100
6180
C0C0
C0C0
CCC0
CCC0
CCC0
CCC0
7F80
3300
ENDCHAR
STARTCHAR GREEK
ENCODING -1
SWIDTH 480 0
DWIDTH 12 0
BBX 6 14 3 0
BITMAP
CC
CC
00
00
30
30
30
30
30
30
30
30
30
18
ENDCHAR
STARTCHAR GREEK
ENCODING -1
SWIDTH 480 0
DWIDTH 12 0
BBX 10 14 1 0
BITMAP
3300
3300
0000
0000
C0C0
C0C0
C0C0
C0C0
C0C0
C0C0
C0C0
C0C0
7F80
3F00
ENDCHAR
STARTCHAR GREEK
ENCODING -1
SWIDTH 480 0
DWIDTH 12 0
BBX 10 16 1 0
BITMAP
0180
0300
0600
0C00
0000
0000
3F00
7F80
C0C0
C0C0
C0C0
C0C0
C0C0
C0C0
7F80
3F00
ENDCHAR
STARTCHAR GREEK
ENCODING -1
SWIDTH 480 0
DWIDTH 12 0
BBX 10 16 1 0
BITMAP
0180
0300
0600
0C00
0000
0000
C0C0
C0C0
C0C0
C0C0
C0C0
C0C0
C0C0
C0C0
7F80
3F00
ENDCHAR
STARTCHAR GREEK
ENCODING -1
SWIDTH 480 0
DWIDTH 12 0
BBX 10 16 1 0
BITMAP
0180
0300
0600
0C00
0000
0000
2100
6180
C0C0
C0C0
CCC0
CCC0
CCC0
CCC0
7F80
3300
ENDCHAR
STARTCHAR CYRILLIC
ENCODING -1
SWIDTH 480 0
DWIDTH 12 0
BBX 10 20 1 0
BITMAP
6000
3000
1800
0C00
0000
0000
FFC0
FFC0
C000
C000
C000
C000
FC00
FC00
C000
C000
C000
C000
FFC0
FFC0
ENDCHAR
STARTCHAR CYRILLIC
ENCODING -1
SWIDTH 480 0
DWIDTH 12 0
BBX 10 18 1 0
BITMAP
3300
3300
0000
0000
FFC0
FFC0
C000
C000
C000
C000
FC00
FC00
C000
C000
C000
C000
FFC0
FFC0
ENDCHAR
STARTCHAR CYRILLIC
ENCODING -1
SWIDTH 480 0
DWIDTH 12 0
BBX 12 16 0 -2
BITMAP
FE00
FE00
3000
3000
3000
3000
3FC0
3FE0
3030
3030
3030
3030
3030
3030
00E0
00C0
ENDCHAR
STARTCHAR CYRILLIC
ENCODING -1
SWIDTH 480 0
DWIDTH 12 0
BBX 10 20 1 0
BITMAP
0180
0300
0600
0C00
0000
0000
FFC0
FFC0
C000
C000
C000
C000
C000
C000
C000
C000
C000
C000
C000
C000
ENDCHAR
STARTCHAR CYRILLIC
ENCODING -1
SWIDTH 480 0
DWIDTH 12 0
BBX 10 14 1 0
BITMAP
3FC0
7FC0
C000
C000
C000
C000
FC00
FC00
C000
C000
C000
C000
7FC0
3FC0
ENDCHAR
STARTCHAR CYRILLIC
ENCODING -1
SWIDTH 480 0
DWIDTH 12 0
BBX 10 14 1 0
BITMAP
3FC0
7FC0
C000
C000
C000
C000
7F00
3F80
00C0
00C0
00C0
00C0
FF80
FF00
ENDCHAR
STARTCHAR CYRILLIC
ENCODING -1
SWIDTH 480 0
DWIDTH 12 0
BBX 4 14 4 0
BITMAP
F0
F0
60
60
60
60
60
60
60
60
60
60
F0
F0
ENDCHAR
STARTCHAR CYRILLIC
ENCODING -1
SWIDTH 480 0
DWIDTH 12 0
BBX 6 18 3 0
BITMAP
CC
CC
00
00
78
78
30
30
30
30
30
30
30
30
30
30
78
78
ENDCHAR
STARTCHAR CYRILLIC
ENCODING -1
SWIDTH 480 0
DWIDTH 12 0
BBX 10 14 1 0
BITMAP
00C0
00C0
00C0
00C0
00C0
00C0
00C0
00C0
00C0
00C0
C0C0
C0C0
7F80
3F00
ENDCHAR
STARTCHAR CYRILLIC
ENCODING -1
SWIDTH 480 0
DWIDTH 12 0
BBX 12 14 0 0
BITMAP
0F00
1F00
3300
3300
3300
3300
33C0
33E0
3330
3330
3330
3330
E3E0
C3C0
ENDCHAR
STARTCHAR CYRILLIC
ENCODING -1
SWIDTH 480 0
DWIDTH 12 0
BBX 12 14 0 0
BITMAP
C600
C600
C600
C600
C600
C600
FFC0
FFE0
C630
C630
C630
C630
C7E0
C7C0
ENDCHAR
STARTCHAR CYRILLIC
ENCODING -1
SWIDTH 480 0
DWIDTH 12 0
BBX 12 14 0 0
BITMAP
FE00
FE00
3000
3000
3000
3000
3FC0
3FE0
3030
3030
3030
3030
3030
3030
ENDCHAR
STARTCHAR CYRILLIC
ENCODING -1
SWIDTH 480 0
DWIDTH 12 0
BBX 10 20 1 0
BITMAP
0180
0300
0600
0C00
0000
0000
C0C0
C180
C300
C600
CC00
D800
F000
F000
D800
CC00
C600
C300
C180
C0C0
ENDCHAR
STARTCHAR CYRILLIC
ENCODING -1
SWIDTH 480 0
DWIDTH 12 0
BBX 10 20 1 0
BITMAP
6000
3000
1800
0C00
0000
0000
C0C0
C0C0
C0C0
C0C0
C1C0
C3C0
C6C0
CCC0
D8C0
F0C0
E0C0
C0C0
C0C0
C0C0
ENDCHAR
STARTCHAR CYRILLIC
ENCODING -1
SWIDTH 480 0
DWIDTH 12 0
BBX 10 19 1 0
BITMAP
6180
3F00
1E00
0000
0000
C0C0
C0C0
C0C0
C0C0
C0C0
C0C0
7FC0
3FC0
00C0
00C0
00C0
00C0
1F80
1F00
ENDCHAR
STARTCHAR CYRILLIC
ENCODING -1
SWIDTH 480 0
DWIDTH 12 0
BBX 10 16 1 -2
BITMAP
C0C0
C0C0
C0C0
C0C0
C0C0
C0C0
C0C0
C0C0
C0C0
C0C0
C0C0
C0C0
FFC0
FFC0
0C00
0C00
ENDCHAR
STARTCHAR CYRILLIC
ENCODING -1
SWIDTH 480 0
DWIDTH 12 0
BBX 10 14 1 0
BITMAP
3F00
7F80
C0C0
C0C0
C0C0
C0C0
C0C0
C0C0
FFC0
FFC0
C0C0
C0C0
C0C0
C0C0
ENDCHAR
STARTCHAR CYRILLIC
ENCODING -1
SWIDTH 480 0
DWIDTH 12 0
BBX 10 14 1 0
BITMAP
FF00
FF00
C000
C000
C000
C000
FF00
FF80
C0C0
C0C0
C0C0
C0C0
FF80
FF00
ENDCHAR
STARTCHAR CYRILLIC
ENCODING -1
SWIDTH 480 0
DWIDTH 12 0
BBX 10 14 1 0
BITMAP
FF00
FF80
C0C0
C0C0
C0C0
C0C0
FF80
FF80
C0C0
C0C0
C0C0
C0C0
FF80
FF00
ENDCHAR
STARTCHAR CYRILLIC
ENCODING -1
SWIDTH 480 0
DWIDTH 12 0
BBX 10 14 1 0
BITMAP
FFC0
FFC0
C000
C000
C000
C000
C000
C000
C000
C000
C000
C000
C000
C000
ENDCHAR
STARTCHAR CYRILLIC
ENCODING -1
SWIDTH 480 0
DWIDTH 12 0
BBX 12 16 0 -2
BITMAP
0FC0
1FC0
30C0
30C0
30C0
30C0
30C0
30C0
30C0
30C0
30C0
30C0
FFF0
FFF0
C030
C030
ENDCHAR
STARTCHAR CYRILLIC
ENCODING -1
SWIDTH 480 0
DWIDTH 12 0
BBX 10 14 1 0
BITMAP
FFC0
FFC0
C000
C000
C000
C000
FC00
FC00
C000
C000
C000
C000
FFC0
FFC0
ENDCHAR
STARTCHAR CYRILLIC
ENCODING -1
SWIDTH 480 0
DWIDTH 12 0
BBX 12 14 0 0
BITMAP
C630
E670
6660
6660
6660
6660
3FC0
3FC0
6660
6660
6660
6660
E670
C630
ENDCHAR
STARTCHAR CYRILLIC
ENCODING -1
SWIDTH 480 0
DWIDTH 12 0
BBX 10 14 1 0
BITMAP
FF00
FF80
00C0
00C0
00C0
00C0
0F80
0F80
00C0
00C0
00C0
00C0
FF80
FF00
ENDCHAR
STARTCHAR CYRILLIC
ENCODING -1
SWIDTH 480 0
DWIDTH 12 0
BBX 10 14 1 0
BITMAP
C0C0
C0C0
C0C0
C0C0
C1C0
C3C0
C6C0
CCC0
D8C0
F0C0
E0C0
C0C0
C0C0
C0C0
ENDCHAR
STARTCHAR CYRILLIC
ENCODING -1
SWIDTH 480 0
DWIDTH 12 0
BBX 10 19 1 0
BITMAP
6180
3F00
1E00
0000
0000
C0C0
C0C0
C0C0
C0C0
C1C0
C3C0
C6C0
CCC0
D8C0
F0C0
E0C0
C0C0
C0C0
C0C0
ENDCHAR
STARTCHAR CYRILLIC
ENCODING -1
SWIDTH 480 0
DWIDTH 12 0
BBX 10 14 1 0
BITMAP
C0C0
C180
C300
C600
CC00
D800
F000
F000
D800
CC00
C600
C300
C180
C0C0
ENDCHAR
STARTCHAR CYRILLIC
ENCODING -1
SWIDTH 480 0
DWIDTH 12 0
BBX 10 14 1 0
BITMAP
0FC0
1FC0
30C0
30C0
30C0
30C0
30C0
30C0
30C0
30C0
30C0
30C0
E0C0
C0C0
ENDCHAR
STARTCHAR CYRILLIC
ENCODING -1
SWIDTH 480 0
DWIDTH 12 0
BBX 10 14 1 0
BITMAP
8040
C0C0
E1C0
F3C0
DEC0
CCC0
C0C0
C0C0
C0C0
C0C0
C0C0
C0C0
C0C0
C0C0
ENDCHAR
STARTCHAR CYRILLIC
ENCODING -1
SWIDTH 480 0
DWIDTH 12 0
BBX 10 14 1 0
BITMAP
C0C0
C0C0
C0C0
C0C0
C0C0
C0C0
FFC0
FFC0
C0C0
C0C0
C0C0
C0C0
C0C0
C0C0
ENDCHAR
STARTCHAR CYRILLIC
ENCODING -1
SWIDTH 480 0
DWIDTH 12 0
BBX 10 14 1 0
BITMAP
3F00
7F80
C0C0
C0C0
C0C0
C0C0
C0C0
C0C0
C0C0
C0C0
C0C0
C0C0
7F80
3F00
ENDCHAR
STARTCHAR CYRILLIC
ENCODING -1
SWIDTH 480 0
DWIDTH 12 0
BBX 10 14 1 0
BITMAP
FFC0
FFC0
C0C0
C0C0
C0C0
C0C0
C0C0
C0C0
C0C0
C0C0
C0C0
C0C0
C0C0
C0C0
ENDCHAR
STARTCHAR CYRILLIC
ENCODING -1
SWIDTH 480 0
DWIDTH 12 0
BBX 10 14 1 0
BITMAP
FF00
FF80
C0C0
C0C0
C0C0
C0C0
C0C0
C0C0
FF80
FF00
C000
C000
C000
C000
ENDCHAR
STARTCHAR CYRILLIC
ENCODING -1
SWIDTH 480 0
DWIDTH 12 0
BBX 10 14 1 0
BITMAP
3FC0
7FC0
C000
C000
C000
C000
C000
C000
C000
C000
C000
C000
7FC0
3FC0
ENDCHAR
STARTCHAR CYRILLIC
ENCODING -1
SWIDTH 480 0
DWIDTH 12 0
BBX 10 14 1 0
BITMAP
FFC0
FFC0
0C00
0C00
0C00
0C00
0C00
0C00
0C00
0C00
0C00
0C00
0C00
0C00
ENDCHAR
STARTCHAR CYRILLIC
ENCODING -1
SWIDTH 480 0
DWIDTH 12 0
BBX 10 14 1 0
BITMAP
C0C0
C0C0
C0C0
C0C0
C0C0
C0C0
7FC0
3FC0
00C0
00C0
00C0
00C0
1F80
1F00
ENDCHAR
STARTCHAR CYRILLIC
ENCODING -1
SWIDTH 480 0
DWIDTH 12 0
BBX 10 14 1 0
BITMAP
0C00
0C00
3F00
7F80
CCC0
CCC0
CCC0
CCC0
CCC0
CCC0
7F80
3F00
0C00
0C00
ENDCHAR
STARTCHAR CYRILLIC
ENCODING -1
SWIDTH 480 0
DWIDTH 12 0
BBX 10 14 1 0
BITMAP
C0C0
C0C0
C0C0
6180
3300
1E00
0C00
0C00
1E00
3300
6180
C0C0
C0C0
C0C0
ENDCHAR
STARTCHAR CYRILLIC
ENCODING -1
SWIDTH 480 0
DWIDTH 12 0
BBX 12 16 0 -2
BITMAP
C0C0
C0C0
C0C0
C0C0
C0C0
C0C0
C0C0
C0C0
C0C0
C0C0
C0C0
C0C0
FFC0
FFF0
0030
0030
ENDCHAR
STARTCHAR CYRILLIC
ENCODING -1
SWIDTH 480 0
DWIDTH 12 0
BBX 10 14 1 0
BITMAP
C0C0
C0C0
C0C0
C0C0
C0C0
C0C0
7FC0
3FC0
00C0
00C0
00C0
00C0
00C0
00C0
ENDCHAR
STARTCHAR CYRILLIC
ENCODING -1
SWIDTH 480 0
DWIDTH 12 0
BBX 10 14 1 0
BITMAP
CCC0
CCC0
CCC0
CCC0
CCC0
CCC0
CCC0
CCC0
CCC0
CCC0
CCC0
CCC0
FFC0
FFC0
ENDCHAR
STARTCHAR CYRILLIC
ENCODING -1
SWIDTH 480 0
DWIDTH 12 0
BBX 12 16 0 -2
BITMAP
CCC0
CCC0
CCC0
CCC0
CCC0
CCC0
CCC0
CCC0
CCC0
CCC0
CCC0
CCC0
FFC0
FFF0
0030
0030
ENDCHAR
STARTCHAR CYRILLIC
ENCODING -1
SWIDTH 480 0
DWIDTH 12 0
BBX 12 14 0 0
BITMAP
F000
F000
3000
3000
3000
3000
3FC0
3FE0
3030
3030
3030
3030
3FE0
3FC0
ENDCHAR
STARTCHAR CYRILLIC
ENCODING -1
SWIDTH 480 0
DWIDTH 12 0
BBX 12 14 0 0
BITMAP
C030
C030
C030
C030
C030
C030
FE30
FF30
C1B0
C1B0
C1B0
C1B0
FF30
FE30
ENDCHAR
STARTCHAR CYRILLIC
ENCODING -1
SWIDTH 480 0
DWIDTH 12 0
BBX 10 14 1 0
BITMAP
C000
C000
C000
C000
C000
C000
FF00
FF80
C0C0
C0C0
C0C0
C0C0
FF80
FF00
ENDCHAR
STARTCHAR CYRILLIC
ENCODING -1
SWIDTH 480 0
DWIDTH 12 0
BBX 10 14 1 0
BITMAP
FF00
FF80
00C0
00C0
00C0
00C0
0FC0
0FC0
00C0
00C0
00C0
00C0
FF80
FF00
ENDCHAR
STARTCHAR CYRILLIC
ENCODING -1
SWIDTH 480 0
DWIDTH 12 0
BBX 12 14 0 0
BITMAP
C7C0
CFE0
D830
D830
D830
D830
F830
F830
D830
D830
D830
D830
CFE0
C7C0
ENDCHAR
STARTCHAR CYRILLIC
ENCODING -1
SWIDTH 480 0
DWIDTH 12 0
BBX 10 14 1 0
BITMAP
3FC0
7FC0
C0C0
C0C0
C0C0
C0C0
C0C0
C0C0
7FC0
3FC0
18C0
30C0
60C0
C0C0
ENDCHAR
STARTCHAR CYRILLIC
ENCODING -1
SWIDTH 480 0
DWIDTH 12 0
BBX 10 10 1 0
BITMAP
3F00
3F80
00C0
00C0
3FC0
7FC0
C0C0
C0C0
7FC0
3FC0
ENDCHAR
STARTCHAR CYRILLIC
ENCODING -1
SWIDTH 480 0
DWIDTH 12 0
BBX 10 17 1 0
BITMAP
00C0
0F80
3F00
3000
6000
6000
C000
FF00
FF80
C0C0
C0C0
C0C0
C0C0
C0C0
C0C0
7F80
3F00
ENDCHAR
STARTCHAR CYRILLIC
ENCODING -1
SWIDTH 480 0
DWIDTH 12 0
BBX 10 10 1 0
BITMAP
FF00
FF80
C0C0
C0C0
FF80
FF80
C0C0
C0C0
FF80
FF00
ENDCHAR
STARTCHAR CYRILLIC
ENCODING -1
SWIDTH 480 0
DWIDTH 12 0
BBX 10 10 1 0
BITMAP
FFC0
FFC0
C000
C000
C000
C000
C000
C000
C000
C000
ENDCHAR
STARTCHAR CYRILLIC
ENCODING -1
SWIDTH 480 0
DWIDTH 12 0
BBX 10 12 1 -2
BITMAP
1F80
3F80
6180
6180
6180
6180
6180
6180
FFC0
FFC0
C0C0
C0C0
ENDCHAR
STARTCHAR CYRILLIC
ENCODING -1
SWIDTH 480 0
DWIDTH 12 0
BBX 10 10 1 0
BITMAP
3F00
7F80
C0C0
C0C0
FFC0
FFC0
C000
C000
7F00
3F00
ENDCHAR
STARTCHAR CYRILLIC
ENCODING -1
SWIDTH 480 0
DWIDTH 12 0
BBX 12 10 0 0
BITMAP
C630
6660
6660
6660
3FC0
3FC0
6660
6660
6660
C630
ENDCHAR
STARTCHAR CYRILLIC
ENCODING -1
SWIDTH 480 0
DWIDTH 12 0
BBX 10 10 1 0
BITMAP
FF00
FF80
00C0
00C0
0F80
0F80
00C0
00C0
FF80
FF00
ENDCHAR
STARTCHAR CYRILLIC
ENCODING -1
SWIDTH 480 0
DWIDTH 12 0
BBX 10 10 1 0
BITMAP
C0C0
C0C0
C1C0
C3C0
C6C0
CCC0
D8C0
F0C0
E0C0
C0C0
ENDCHAR
STARTCHAR CYRILLIC
ENCODING -1
SWIDTH 480 0
DWIDTH 12 0
BBX 10 15 1 0
BITMAP
6180
3F00
1E00
0000
0000
C0C0
C0C0
C1C0
C3C0
C6C0
CCC0
D8C0
F0C0
E0C0
C0C0
ENDCHAR
STARTCHAR CYRILLIC
ENCODING -1
SWIDTH 480 0
DWIDTH 12 0
BBX 8 10 2 0
BITMAP
C3
C6
CC
D8
F0
F0
D8
CC
C6
C3
ENDCHAR
STARTCHAR CYRILLIC
ENCODING -1
SWIDTH 480 0
DWIDTH 12 0
BBX 10 10 1 0
BITMAP
0FC0
1FC0
30C0
30C0
30C0
30C0
30C0
30C0
E0C0
C0C0
ENDCHAR
STARTCHAR CYRILLIC
ENCODING -1
SWIDTH 480 0
DWIDTH 12 0
BBX 10 10 1 0
BITMAP
8040
C0C0
E1C0
F3C0
DEC0
CCC0
C0C0
C0C0
C0C0
C0C0
ENDCHAR
STARTCHAR CYRILLIC
ENCODING -1
SWIDTH 480 0
DWIDTH 12 0
BBX 10 10 1 0
BITMAP
C0C0
C0C0
C0C0
C0C0
FFC0
FFC0
C0C0
C0C0
C0C0
C0C0
ENDCHAR
STARTCHAR CYRILLIC
ENCODING -1
SWIDTH 480 0
DWIDTH 12 0
BBX 10 10 1 0
BITMAP
3F00
7F80
C0C0
C0C0
C0C0
C0C0
C0C0
C0C0
7F80
3F00
ENDCHAR
STARTCHAR CYRILLIC
ENCODING -1
SWIDTH 480 0
DWIDTH 12 0
BBX 10 10 1 0
BITMAP
FFC0
FFC0
C0C0
C0C0
C0C0
C0C0
C0C0
C0C0
C0C0
C0C0
ENDCHAR
STARTCHAR CYRILLIC
ENCODING -1
SWIDTH 480 0
DWIDTH 12 0
BBX 10 14 1 -4
BITMAP
FF00
FF80
C0C0
C0C0
C0C0
C0C0
C0C0
C0C0
FF80
FF00
C000
C000
C000
C000
ENDCHAR
STARTCHAR CYRILLIC
ENCODING -1
SWIDTH 480 0
DWIDTH 12 0
BBX 10 10 1 0
BITMAP
3FC0
7FC0
C000
C000
C000
C000
C000
C000
7FC0
3FC0
ENDCHAR
STARTCHAR CYRILLIC
ENCODING -1
SWIDTH 480 0
DWIDTH 12 0
BBX 10 10 1 0
BITMAP
FFC0
FFC0
0C00
0C00
0C00
0C00
0C00
0C00
0C00
0C00
ENDCHAR
STARTCHAR CYRILLIC
ENCODING -1
SWIDTH 480 0
DWIDTH 12 0
BBX 10 14 1 -4
BITMAP
C0C0
C0C0
C0C0
C0C0
C0C0
C0C0
C0C0
C0C0
7FC0
3FC0
00C0
00C0
1F80
1F00
ENDCHAR
STARTCHAR CYRILLIC
ENCODING -1
SWIDTH 480 0
DWIDTH 12 0
BBX 10 18 1 -4
BITMAP
0C00
0C00
0C00
0C00
3F00
7F80
CCC0
CCC0
CCC0
CCC0
CCC0
CCC0
7F80
3F00
0C00
0C00
0C00
0C00
ENDCHAR
STARTCHAR CYRILLIC
ENCODING -1
SWIDTH 480 0
DWIDTH 12 0
BBX 10 10 1 0
BITMAP
C0C0
6180
3300
1E00
0C00
0C00
1E00
3300
6180
C0C0
ENDCHAR
STARTCHAR CYRILLIC
ENCODING -1
SWIDTH 480 0
DWIDTH 12 0
BBX 10 12 1 -2
BITMAP
C300
C300
C300
C300
C300
C300
C300
C300
FF00
FFC0
00C0
00C0
ENDCHAR
STARTCHAR CYRILLIC
ENCODING -1
SWIDTH 480 0
DWIDTH 12 0
BBX 10 10 1 0
BITMAP
C0C0
C0C0
C0C0
C0C0
7FC0
3FC0
00C0
00C0
00C0
00C0
ENDCHAR
STARTCHAR CYRILLIC
ENCODING -1
SWIDTH 480 0
DWIDTH 12 0
BBX 10 10 1 0
BITMAP
CCC0
CCC0
CCC0
CCC0
CCC0
CCC0
CCC0
CCC0
FFC0
FFC0
ENDCHAR
STARTCHAR CYRILLIC
ENCODING -1
SWIDTH 480 0
DWIDTH 12 0
BBX 12 12 0 -2
BITMAP
CCC0
CCC0
CCC0
CCC0
CCC0
CCC0
CCC0
CCC0
FFC0
FFF0
0030
0030
ENDCHAR
STARTCHAR CYRILLIC
ENCODING -1
SWIDTH 480 0
DWIDTH 12 0
BBX 12 10 0 0
BITMAP
F000
F000
3000
3000
3FC0
3FE0
3030
3030
3FE0
3FC0
ENDCHAR
STARTCHAR CYRILLIC
ENCODING -1
SWIDTH 480 0
DWIDTH 12 0
BBX 12 10 0 0
BITMAP
C030
C030
C030
C030
FE30
FF30
C1B0
C1B0
FF30
FE30
ENDCHAR
STARTCHAR CYRILLIC
ENCODING -1
SWIDTH 480 0
DWIDTH 12 0
BBX 10 10 1 0
BITMAP
C000
C000
C000
C000
FF00
FF80
C0C0
C0C0
FF80
FF00
ENDCHAR
STARTCHAR CYRILLIC
ENCODING -1
SWIDTH 480 0
DWIDTH 12 0
BBX 10 10 1 0
BITMAP
FF00
FF80
00C0
00C0
0FC0
0FC0
00C0
00C0
FF80
FF00
ENDCHAR
STARTCHAR CYRILLIC
ENCODING -1
SWIDTH 480 0
DWIDTH 12 0
BBX 12 10 0 0
BITMAP
C7C0
CFE0
D830
D830
F830
F830
D830
D830
CFE0
C7C0
ENDCHAR
STARTCHAR CYRILLIC
ENCODING -1
SWIDTH 480 0
DWIDTH 12 0
BBX 10 10 1 0
BITMAP
3FC0
7FC0
C0C0
C0C0
7FC0
3FC0
18C0
30C0
60C0
C0C0
ENDCHAR
STARTCHAR CYRILLIC
ENCODING -1
SWIDTH 480 0
DWIDTH 12 0
BBX 10 16 1 0
BITMAP
6000
3000
1800
0C00
0000
0000
3F00
7F80
C0C0
C0C0
FFC0
FFC0
C000
C000
7F00
3F00
ENDCHAR
STARTCHAR CYRILLIC
ENCODING -1
SWIDTH 480 0
DWIDTH 12 0
BBX 10 14 1 0
BITMAP
3300
3300
0000
0000
3F00
7F80
C0C0
C0C0
FFC0
FFC0
C000
C000
7F00
3F00
ENDCHAR
STARTCHAR CYRILLIC
ENCODING -1
SWIDTH 480 0
DWIDTH 12 0
BBX 12 20 0 -4
BITMAP
3000
3000
FE00
FE00
3000
3000
3FC0
3FE0
3030
3030
3030
3030
3030
3030
3030
3030
0030
0030
00E0
00C0
ENDCHAR
STARTCHAR CYRILLIC
ENCODING -1
SWIDTH 480 0
DWIDTH 12 0
BBX 10 16 1 0
BITMAP
0180
0300
0600
0C00
0000
0000
FFC0
FFC0
C000
C000
C000
C000
C000
C000
C000
C000
ENDCHAR
STARTCHAR CYRILLIC
ENCODING -1
SWIDTH 480 0
DWIDTH 12 0
BBX 10 10 1 0
BITMAP
3FC0
7FC0
C000
C000
FC00
FC00
C000
C000
7FC0
3FC0
ENDCHAR
STARTCHAR CYRILLIC
ENCODING -1
SWIDTH 480 0
DWIDTH 12 0
BBX 10 10 1 0
BITMAP
3FC0
7FC0
C000
C000
7F00
3F80
00C0
00C0
FF80
FF00
ENDCHAR
STARTCHAR CYRILLIC
ENCODING -1
SWIDTH 480 0
DWIDTH 12 0
BBX 3 14 4 0
BITMAP
60
60
00
00
E0
E0
60
60
60
60
60
60
60
60
ENDCHAR
STARTCHAR CYRILLIC
ENCODING -1
SWIDTH 480 0
DWIDTH 12 0
BBX 6 14 3 0
BITMAP
CC
CC
00
00
70
70
30
30
30
30
30
30
30
30
ENDCHAR
STARTCHAR CYRILLIC
ENCODING -1
SWIDTH 480 0
DWIDTH 12 0
BBX 4 18 3 -4
BITMAP
30
30
00
00
70
70
30
30
30
30
30
30
30
30
30
30
60
C0
ENDCHAR
STARTCHAR CYRILLIC
ENCODING -1
SWIDTH 480 0
DWIDTH 12 0
BBX 12 10 0 0
BITMAP
0F00
1F00
3300
3300
33C0
33E0
3330
3330
E3E0
C3C0
ENDCHAR
STARTCHAR CYRILLIC
ENCODING -1
SWIDTH 480 0
DWIDTH 12 0
BBX 12 10 0 0
BITMAP
C600
C600
C600
C600
FFC0
FFE0
C630
C630
C7E0
C7C0
ENDCHAR
STARTCHAR CYRILLIC
ENCODING -1
SWIDTH 480 0
DWIDTH 12 0
BBX 12 16 0 0
BITMAP
3000
3000
FE00
FE00
3000
3000
3FC0
3FE0
3030
3030
3030
3030
3030
3030
3030
3030
ENDCHAR
STARTCHAR CYRILLIC
ENCODING -1
SWIDTH 480 0
DWIDTH 12 0
BBX 8 16 2 0
BITMAP
03
06
0C
18
00
00
C3
C6
CC
D8
F0
F0
D8
CC
C6
C3
ENDCHAR
STARTCHAR CYRILLIC
ENCODING -1
SWIDTH 480 0
DWIDTH 12 0
BBX 10 16 1 0
BITMAP
6000
3000
1800
0C00
0000
0000
C0C0
C0C0
C1C0
C3C0
C6C0
CCC0
D8C0
F0C0
E0C0
C0C0
ENDCHAR
STARTCHAR CYRILLIC
ENCODING -1
SWIDTH 480 0
DWIDTH 12 0
BBX 10 19 1 -4
BITMAP
6180
3F00
1E00
0000
0000
C0C0
C0C0
C0C0
C0C0
C0C0
C0C0
C0C0
C0C0
7FC0
3FC0
00C0
00C0
1F80
1F00
ENDCHAR
STARTCHAR CYRILLIC
ENCODING -1
SWIDTH 480 0
DWIDTH 12 0
BBX 10 14 1 -4
BITMAP
C0C0
C0C0
C0C0
C0C0
C0C0
C0C0
C0C0
C0C0
FFC0
FFC0
0C00
0C00
0C00
0C00
ENDCHAR
STARTCHAR CYRILLIC
ENCODING -1
SWIDTH 480 0
DWIDTH 12 0
BBX 10 14 1 0
BITMAP
C0C0
C0C0
C0C0
C0C0
CCC0
CCC0
CCC0
CCC0
CCC0
CCC0
CCC0
CCC0
7F80
3300
ENDCHAR
STARTCHAR CYRILLIC
ENCODING -1
SWIDTH 480 0
DWIDTH 12 0
BBX 10 10 1 0
BITMAP
C0C0
C0C0
CCC0
CCC0
CCC0
CCC0
CCC0
CCC0
7F80
3300
ENDCHAR
STARTCHAR CYRILLIC
ENCODING -1
SWIDTH 480 0
DWIDTH 12 0
BBX 12 14 0 0
BITMAP
3000
FE00
FE00
3000
3000
3000
3FC0
3FE0
3030
3030
3030
3030
3FE0
3FC0
ENDCHAR
STARTCHAR CYRILLIC
ENCODING -1
SWIDTH 480 0
DWIDTH 12 0
BBX 12 10 0 0
BITMAP
3000
FE00
FE00
3000
3FC0
3FE0
3030
3030
3FE0
3FC0
ENDCHAR
STARTCHAR CYRILLIC
ENCODING -1
SWIDTH 480 0
DWIDTH 12 0
BBX 12 14 0 0
BITMAP
C7F0
CFF0
D800
D800
D800
D800
FF80
FF80
D800
D800
D800
D800
CFF0
C7F0
ENDCHAR
STARTCHAR CYRILLIC
ENCODING -1
SWIDTH 480 0
DWIDTH 12 0
BBX 12 10 0 0
BITMAP
C7F0
CFF0
D800
D800
FF80
FF80
D800
D800
CFF0
C7F0
ENDCHAR
STARTCHAR CYRILLIC
ENCODING -1
SWIDTH 480 0
DWIDTH 12 0
BBX 10 14 1 0
BITMAP
3F00
7F80
C0C0
C0C0
C0C0
C0C0
C0C0
FFC0
FFC0
CCC0
CCC0
CCC0
CCC0
CCC0
ENDCHAR
STARTCHAR CYRILLIC
ENCODING -1
SWIDTH 480 0
DWIDTH 12 0
BBX 10 10 1 0
BITMAP
3F00
7F80
C0C0
C0C0
FFC0
FFC0
CCC0
CCC0
CCC0
CCC0
ENDCHAR
STARTCHAR CYRILLIC
ENCODING -1
SWIDTH 480 0
DWIDTH 12 0
BBX 12 14 0 0
BITMAP
C3C0
C7E0
CC30
CC30
CC30
CC30
FC30
FFF0
CFF0
CDB0
CDB0
CDB0
CDB0
CDB0
ENDCHAR
STARTCHAR CYRILLIC
ENCODING -1
SWIDTH 480 0
DWIDTH 12 0
BBX 12 10 0 0
BITMAP
C3C0
C7E0
CC30
CC30
FFF0
FFF0
CDB0
CDB0
CDB0
CDB0
ENDCHAR
STARTCHAR CYRILLIC
ENCODING -1
SWIDTH 480 0
DWIDTH 12 0
BBX 10 14 1 0
BITMAP
FFC0
7F80
3300
1E00
0C00
3F00
7F80
CCC0
CCC0
CCC0
CCC0
CCC0
CCC0
CCC0
ENDCHAR
STARTCHAR CYRILLIC
ENCODING -1
SWIDTH 480 0
DWIDTH 12 0
BBX 10 10 1 0
BITMAP
7F80
3F00
1200
3F00
7F80
CCC0
CCC0
CCC0
CCC0
CCC0
ENDCHAR
STARTCHAR CYRILLIC
ENCODING -1
SWIDTH 480 0
DWIDTH 12 0
BBX 12 14 0 0
BITMAP
CFF0
CFF0
C660
C3C0
C180
C3C0
FFE0
FDB0
CDB0
CDB0
CDB0
CDB0
CDB0
CDB0
ENDCHAR
STARTCHAR CYRILLIC
ENCODING -1
SWIDTH 480 0
DWIDTH 12 0
BBX 12 10 0 0
BITMAP
CFF0
C7E0
C240
C3C0
FFE0
FDB0
CDB0
CDB0
CDB0
CDB0
ENDCHAR
STARTCHAR CYRILLIC
ENCODING -1
SWIDTH 480 0
DWIDTH 12 0
BBX 10 21 1 -4
BITMAP
3300
1E00
0C00
FF00
FF80
00C0
00C0
00C0
00C0
0F80
0F80
00C0
00C0
00C0
00C0
7F80
FF00
C000
C000
7FC0
3FC0
ENDCHAR
STARTCHAR CYRILLIC
ENCODING -1
SWIDTH 480 0
DWIDTH 12 0
BBX 10 17 1 -4
BITMAP
3300
1E00
0C00
FF00
FF80
00C0
00C0
0F80
0F80
00C0
00C0
7F80
FF00
C000
C000
7FC0
3FC0
ENDCHAR
STARTCHAR CYRILLIC
ENCODING -1
SWIDTH 480 0
DWIDTH 12 0
BBX 10 14 1 0
BITMAP
CCC0
CCC0
CCC0
CCC0
CCC0
CCC0
7F80
3F00
0C00
0C00
0C00
0C00
0C00
0C00
ENDCHAR
STARTCHAR CYRILLIC
ENCODING -1
SWIDTH 480 0
DWIDTH 12 0
BBX 10 18 1 -4
BITMAP
0C00
0C00
0C00
0C00
CCC0
CCC0
CCC0
CCC0
CCC0
CCC0
CCC0
CCC0
7F80
3F00
0C00
0C00
0C00
0C00
ENDCHAR
STARTCHAR CYRILLIC
ENCODING -1
SWIDTH 480 0
DWIDTH 12 0
BBX 10 14 1 0
BITMAP
3F00
7F80
C0C0
C0C0
C0C0
C0C0
FFC0
FFC0
C0C0
C0C0
C0C0
C0C0
7F80
3F00
ENDCHAR
STARTCHAR CYRILLIC
ENCODING -1
SWIDTH 480 0
DWIDTH 12 0
BBX 10 10 1 0
BITMAP
3F00
7F80
C0C0
C0C0
FFC0
FFC0
C0C0
C0C0
7F80
3F00
ENDCHAR
STARTCHAR CYRILLIC
ENCODING -1
SWIDTH 480 0
DWIDTH 12 0
BBX 10 14 1 0
BITMAP
C0C0
C0C0
C0C0
C0C0
6180
6180
6180
3300
3300
3300
1E00
1E00
0C00
0C00
ENDCHAR
STARTCHAR CYRILLIC
ENCODING -1
SWIDTH 480 0
DWIDTH 12 0
BBX 10 10 1 0
BITMAP
C0C0
C0C0
C0C0
6180
6180
3300
3300
1E00
1E00
0C00
ENDCHAR
STARTCHAR CYRILLIC
ENCODING -1
SWIDTH 480 0
DWIDTH 12 0
BBX 11 20 0 0
BITMAP
CC00
6600
3300
1980
0000
0000
6060
6060
6060
6060
30C0
30C0
30C0
1980
1980
1980
0F00
0F00
0600
0600
ENDCHAR
STARTCHAR CYRILLIC
ENCODING -1
SWIDTH 480 0
DWIDTH 12 0
BBX 11 16 0 0
BITMAP
CC00
6600
3300
1980
0000
0000
6060
6060
6060
30C0
30C0
1980
1980
0F00
0F00
0600
ENDCHAR
STARTCHAR CYRILLIC
ENCODING -1
SWIDTH 480 0
DWIDTH 12 0
BBX 10 18 1 -4
BITMAP
3FC0
7FC0
C000
C000
C000
C000
C000
C000
C000
C000
C000
C000
7FC0
3FC0
00C0
00C0
00C0
00C0
ENDCHAR
STARTCHAR CYRILLIC
ENCODING -1
SWIDTH 480 0
DWIDTH 12 0
BBX 10 14 1 -4
BITMAP
3FC0
7FC0
C000
C000
C000
C000
C000
C000
7FC0
3FC0
00C0
00C0
00C0
00C0
ENDCHAR
STARTCHAR CYRILLIC
ENCODING -1
SWIDTH 480 0
DWIDTH 12 0
BBX 12 21 0 -2
BITMAP
6180
3F00
1E00
0000
0000
C0C0
C0C0
C0C0
C0C0
C1C0
C3C0
C6C0
CCC0
D8C0
F0C0
E0C0
C0C0
C0C0
C0F0
0030
0030
ENDCHAR
STARTCHAR CYRILLIC
ENCODING -1
SWIDTH 480 0
DWIDTH 12 0
BBX 12 17 0 -2
BITMAP
6180
3F00
1E00
0000
0000
C0C0
C0C0
C1C0
C3C0
C6C0
CCC0
D8C0
F0C0
E0C0
C0F0
0030
0030
ENDCHAR
STARTCHAR CYRILLIC
ENCODING -1
SWIDTH 480 0
DWIDTH 12 0
BBX 12 14 0 0
BITMAP
3000
FE00
FE00
3000
3000
3000
3FC0
3FE0
3030
3030
3030
3030
3FE0
3FC0
ENDCHAR
STARTCHAR CYRILLIC
ENCODING -1
SWIDTH 480 0
DWIDTH 12 0
BBX 12 10 0 0
BITMAP
3000
FE00
FE00
3000
3FC0
3FE0
3030
3030
3FE0
3FC0
ENDCHAR
STARTCHAR CYRILLIC
ENCODING -1
SWIDTH 480 0
DWIDTH 12 0
BBX 10 14 1 0
BITMAP
FF00
FF80
C0C0
C0C0
C0C0
C0C0
C6C0
C340
FD80
FEC0
C000
C000
C000
C000
ENDCHAR
STARTCHAR CYRILLIC
ENCODING -1
SWIDTH 480 0
DWIDTH 12 0
BBX 10 14 1 -4
BITMAP
FF00
FF80
C0C0
C0C0
C0C0
C0C0
C6C0
C340
FD80
FEC0
C000
C000
C000
C000
ENDCHAR
STARTCHAR CYRILLIC
ENCODING -1
SWIDTH 480 0
DWIDTH 12 0
BBX 10 16 1 0
BITMAP
00C0
00C0
FFC0
FFC0
C000
C000
C000
C000
C000
C000
C000
C000
C000
C000
C000
C000
ENDCHAR
STARTCHAR CYRILLIC
ENCODING -1
SWIDTH 480 0
DWIDTH 12 0
BBX 10 12 1 0
BITMAP
00C0
00C0
FFC0
FFC0
C000
C000
C000
C000
C000
C000
C000
C000
ENDCHAR
STARTCHAR CYRILLIC
ENCODING -1
SWIDTH 480 0
DWIDTH 12 0
BBX 12 14 0 0
BITMAP
3FF0
3FF0
3000
3000
3000
3000
FF00
FF00
3000
3000
3000
3000
3000
3000
ENDCHAR
STARTCHAR CYRILLIC
ENCODING -1
SWIDTH 480 0
DWIDTH 12 0
BBX 12 10 0 0
BITMAP
3FF0
3FF0
3000
3000
FF00
FF00
3000
3000
3000
3000
ENDCHAR
STARTCHAR CYRILLIC
ENCODING -1
SWIDTH 480 0
DWIDTH 12 0
BBX 12 16 0 -2
BITMAP
C630
E670
6660
6660
6660
6660
3FC0
3FC0
6660
6660
6660
6660
E670
C630
0030
0030
ENDCHAR
STARTCHAR CYRILLIC
ENCODING -1
SWIDTH 480 0
DWIDTH 12 0
BBX 12 12 0 -2
BITMAP
C630
6660
6660
6660
3FC0
3FC0
6660
6660
6660
C630
0030
0030
ENDCHAR
STARTCHAR CYRILLIC
ENCODING -1
SWIDTH 480 0
DWIDTH 12 0
BBX 10 16 1 -2
BITMAP
FF00
FF80
00C0
00C0
00C0
00C0
0F80
0F80
00C0
00C0
00C0
00C0
FF80
FF00
0C00
0C00
ENDCHAR
STARTCHAR CYRILLIC
ENCODING -1
SWIDTH 480 0
DWIDTH 12 0
BBX 10 12 1 -2
BITMAP
FF00
FF80
00C0
00C0
0F80
0F80
00C0
00C0
FF80
FF00
0C00
0C00
ENDCHAR
STARTCHAR CYRILLIC
ENCODING -1
SWIDTH 480 0
DWIDTH 12 0
BBX 10 16 1 -2
BITMAP
C0C0
C180
C300
C600
CC00
D800
F000
F000
D800
CC00
C600
C300
C180
C0C0
00C0
00C0
ENDCHAR
STARTCHAR CYRILLIC
ENCODING -1
SWIDTH 480 0
DWIDTH 12 0
BBX 8 12 2 -2
BITMAP
C3
C6
CC
D8
F0
F0
D8
CC
C6
C3
03
03
ENDCHAR
STARTCHAR CYRILLIC
ENCODING -1
SWIDTH 480 0
DWIDTH 12 0
BBX 10 14 1 0
BITMAP
C0C0
C180
DB00
DE00
DC00
D800
F800
F800
D800
DC00
DE00
DB00
C180
C0C0
ENDCHAR
STARTCHAR CYRILLIC
ENCODING -1
SWIDTH 480 0
DWIDTH 12 0
BBX 10 10 1 0
BITMAP
C0C0
C180
DB00
DE00
FC00
FC00
DE00
DB00
C180
C0C0
ENDCHAR
STARTCHAR CYRILLIC
ENCODING -1
SWIDTH 480 0
DWIDTH 12 0
BBX 12 14 0 0
BITMAP
F030
F060
30C0
3180
3300
3600
3C00
3C00
3600
3300
3180
30C0
3060
3030
ENDCHAR
STARTCHAR CYRILLIC
ENCODING -1
SWIDTH 480 0
DWIDTH 12 0
BBX 10 10 1 0
BITMAP
F0C0
F180
3300
3600
3C00
3C00
3600
3300
3180
30C0
ENDCHAR
STARTCHAR CYRILLIC
ENCODING -1
SWIDTH 480 0
DWIDTH 12 0
BBX 12 16 0 -2
BITMAP
C0C0
C0C0
C0C0
C0C0
C0C0
C0C0
FFC0
FFC0
C0C0
C0C0
C0C0
C0C0
C0C0
C0F0
0030
0030
ENDCHAR
STARTCHAR CYRILLIC
ENCODING -1
SWIDTH 480 0
DWIDTH 12 0
BBX 12 12 0 -2
BITMAP
C0C0
C0C0
C0C0
C0C0
FFC0
FFC0
C0C0
C0C0
C0C0
C0F0
0030
0030
ENDCHAR
STARTCHAR CYRILLIC
ENCODING -1
SWIDTH 480 0
DWIDTH 12 0
BBX 10 16 1 -2
BITMAP
3FC0
7FC0
C000
C000
C000
C000
C000
C000
C000
C000
C000
C000
7FC0
3FC0
0C00
0C00
ENDCHAR
STARTCHAR CYRILLIC
ENCODING -1
SWIDTH 480 0
DWIDTH 12 0
BBX 10 12 1 -2
BITMAP
3FC0
7FC0
C000
C000
C000
C000
C000
C000
7FC0
3FC0
0C00
0C00
ENDCHAR
STARTCHAR CYRILLIC
ENCODING -1
SWIDTH 480 0
DWIDTH 12 0
BBX 10 14 1 0
BITMAP
C0C0
C0C0
C0C0
C0C0
6180
3300
1E00
0C00
0C00
0C00
0C00
0C00
0C00
0C00
ENDCHAR
STARTCHAR CYRILLIC
ENCODING -1
SWIDTH 480 0
DWIDTH 12 0
BBX 10 14 1 -4
BITMAP
C0C0
C0C0
6180
6180
3300
3300
1E00
1E00
0C00
0C00
0C00
0C00
0C00
0C00
ENDCHAR
STARTCHAR CYRILLIC
ENCODING -1
SWIDTH 480 0
DWIDTH 12 0
BBX 10 14 1 0
BITMAP
C0C0
C0C0
C0C0
C0C0
6180
3300
1E00
0C00
0C00
3F00
3F00
0C00
0C00
0C00
ENDCHAR
STARTCHAR CYRILLIC
ENCODING -1
SWIDTH 480 0
DWIDTH 12 0
BBX 10 14 1 -4
BITMAP
C0C0
C0C0
6180
6180
3300
3300
1E00
1E00
0C00
0C00
3F00
3F00
0C00
0C00
ENDCHAR
STARTCHAR CYRILLIC
ENCODING -1
SWIDTH 480 0
DWIDTH 12 0
BBX 10 14 1 0
BITMAP
C000
C000
C000
C000
C000
C000
FF00
FF80
C0C0
C0C0
C0C0
C0C0
C0C0
C0C0
ENDCHAR
STARTCHAR CYRILLIC
ENCODING -1
SWIDTH 480 0
DWIDTH 12 0
BBX 10 10 1 0
BITMAP
C000
C000
C000
C000
FF00
FF80
C0C0
C0C0
C0C0
C0C0
ENDCHAR
STARTCHAR CYRILLIC
ENCODING -1
SWIDTH 480 0
DWIDTH 12 0
BBX 4 14 4 0
BITMAP
F0
F0
60
60
60
60
60
60
60
60
60
60
F0
F0
ENDCHAR
STARTCHAR CYRILLIC
ENCODING -1
SWIDTH 480 0
DWIDTH 12 0
BBX 12 16 0 -2
BITMAP
0FC0
1FC0
30C0
30C0
30C0
30C0
30C0
30C0
30C0
30C0
30C0
30C0
E0C0
C0F0
0030
0030
ENDCHAR
STARTCHAR CYRILLIC
ENCODING -1
SWIDTH 480 0
DWIDTH 12 0
BBX 12 12 0 -2
BITMAP
0FC0
1FC0
30C0
30C0
30C0
30C0
30C0
30C0
E0C0
C0F0
0030
0030
ENDCHAR
STARTCHAR CYRILLIC
ENCODING -1
SWIDTH 480 0
DWIDTH 12 0
BBX 10 18 1 -4
BITMAP
C0C0
C0C0
C0C0
C0C0
C0C0
C0C0
FFC0
FFC0
C0C0
C0C0
C0C0
C0C0
C0C0
C0C0
00C0
00C0
0380
0300
ENDCHAR
STARTCHAR CYRILLIC
ENCODING -1
SWIDTH 480 0
DWIDTH 12 0
BBX 10 14 1 -4
BITMAP
C0C0
C0C0
C0C0
C0C0
FFC0
FFC0
C0C0
C0C0
C0C0
C0C0
00C0
00C0
0380
0300
ENDCHAR
STARTCHAR CYRILLIC
ENCODING -1
SWIDTH 480 0
DWIDTH 12 0
BBX 12 16 0 -2
BITMAP
C0C0
C0C0
C0C0
C0C0
C0C0
C0C0
FFC0
FFC0
C0C0
C0C0
C0C0
C0C0
C0C0
C0F0
0030
0030
ENDCHAR
STARTCHAR CYRILLIC
ENCODING -1
SWIDTH 480 0
DWIDTH 12 0
BBX 12 12 0 -2
BITMAP
C0C0
C0C0
C0C0
C0C0
FFC0
FFC0
C0C0
C0C0
C0C0
C0F0
0030
0030
ENDCHAR
STARTCHAR CYRILLIC
ENCODING -1
SWIDTH 480 0
DWIDTH 12 0
BBX 12 16 0 -2
BITMAP
8040
C0C0
E1C0
F3C0
DEC0
CCC0
C0C0
C0C0
C0C0
C0C0
C0C0
C0C0
C0C0
C0F0
0030
0030
ENDCHAR
STARTCHAR CYRILLIC
ENCODING -1
SWIDTH 480 0
DWIDTH 12 0
BBX 12 12 0 -2
BITMAP
8040
C0C0
E1C0
F3C0
DEC0
CCC0
C0C0
C0C0
C0C0
C0F0
0030
0030
ENDCHAR
STARTCHAR CYRILLIC
ENCODING -1
SWIDTH 480 0
DWIDTH 12 0
BBX 6 16 3 0
BITMAP
C0
C0
C0
C0
C0
C0
C0
C0
C0
C0
C0
C0
C0
C0
7C
3C
ENDCHAR
STARTCHAR CYRILLIC
ENCODING -1
SWIDTH 480 0
DWIDTH 12 0
BBX 10 19 1 0
BITMAP
C0C0
7F80
3F00
0000
0000
3F00
7F80
C0C0
C0C0
C0C0
C0C0
C0C0
C0C0
FFC0
FFC0
C0C0
C0C0
C0C0
C0C0
ENDCHAR
STARTCHAR CYRILLIC
ENCODING -1
SWIDTH 480 0
DWIDTH 12 0
BBX 10 15 1 0
BITMAP
6180
3F00
1E00
0000
0000
3F00
3F80
00C0
00C0
3FC0
7FC0
C0C0
C0C0
7FC0
3FC0
ENDCHAR
STARTCHAR CYRILLIC
ENCODING -1
SWIDTH 480 0
DWIDTH 12 0
BBX 10 18 1 0
BITMAP
3300
3300
0000
0000
3F00
7F80
C0C0
C0C0
C0C0
C0C0
C0C0
C0C0
FFC0
FFC0
C0C0
C0C0
C0C0
C0C0
ENDCHAR
STARTCHAR CYRILLIC
ENCODING -1
SWIDTH 480 0
DWIDTH 12 0
BBX 10 14 1 0
BITMAP
3300
3300
0000
0000
3F00
3F80
00C0
00C0
3FC0
7FC0
C0C0
C0C0
7FC0
3FC0
ENDCHAR
STARTCHAR CYRILLIC
ENCODING -1
SWIDTH 480 0
DWIDTH 12 0
BBX 12 14 0 0
BITMAP
3FF0
7FF0
C600
C600
C600
C600
C7C0
C7C0
FE00
FE00
C600
C600
C7F0
C7F0
ENDCHAR
STARTCHAR CYRILLIC
ENCODING -1
SWIDTH 480 0
DWIDTH 12 0
BBX 12 10 0 0
BITMAP
39C0
3FE0
0630
0630
3FF0
7FF0
C600
C600
7FE0
39E0
ENDCHAR
STARTCHAR CYRILLIC
ENCODING -1
SWIDTH 480 0
DWIDTH 12 0
BBX 10 19 1 0
BITMAP
C0C0
7F80
3F00
0000
0000
FFC0
FFC0
C000
C000
C000
C000
FC00
FC00
C000
C000
C000
C000
FFC0
FFC0
ENDCHAR
STARTCHAR CYRILLIC
ENCODING -1
SWIDTH 480 0
DWIDTH 12 0
BBX 10 15 1 0
BITMAP
C0C0
7F80
3F00
0000
0000
3F00
7F80
C0C0
C0C0
FFC0
FFC0
C000
C000
7F00
3F00
ENDCHAR
STARTCHAR CYRILLIC
ENCODING -1
SWIDTH 480 0
DWIDTH 12 0
BBX 10 14 1 0
BITMAP
3F00
3F80
00C0
00C0
00C0
00C0
FFC0
FFC0
C0C0
C0C0
C0C0
C0C0
7F80
3F00
ENDCHAR
STARTCHAR CYRILLIC
ENCODING -1
SWIDTH 480 0
DWIDTH 12 0
BBX 10 10 1 0
BITMAP
3F00
3F80
00C0
00C0
FFC0
FFC0
C0C0
C0C0
7F80
3F00
ENDCHAR
STARTCHAR CYRILLIC
ENCODING -1
SWIDTH 480 0
DWIDTH 12 0
BBX 10 18 1 0
BITMAP
7F80
7F80
0000
0000
C0C0
C0C0
C0C0
C0C0
C1C0
C3C0
C6C0
CCC0
D8C0
F0C0
E0C0
C0C0
C0C0
C0C0
ENDCHAR
STARTCHAR CYRILLIC
ENCODING -1
SWIDTH 480 0
DWIDTH 12 0
BBX 10 14 1 0
BITMAP
7F80
7F80
0000
0000
C0C0
C0C0
C1C0
C3C0
C6C0
CCC0
D8C0
F0C0
E0C0
C0C0
ENDCHAR
STARTCHAR CYRILLIC
ENCODING -1
SWIDTH 480 0
DWIDTH 12 0
BBX 10 18 1 0
BITMAP
3300
3300
0000
0000
3F00
7F80
C0C0
C0C0
C0C0
C0C0
C0C0
C0C0
C0C0
C0C0
C0C0
C0C0
7F80
3F00
ENDCHAR
STARTCHAR CYRILLIC
ENCODING -1
SWIDTH 480 0
DWIDTH 12 0
BBX 10 14 1 0
BITMAP
3300
3300
0000
0000
3F00
7F80
C0C0
C0C0
C0C0
C0C0
C0C0
C0C0
7F80
3F00
ENDCHAR
STARTCHAR CYRILLIC
ENCODING -1
SWIDTH 480 0
DWIDTH 12 0
BBX 10 14 1 0
BITMAP
3F00
7F80
C0C0
C0C0
C0C0
C0C0
FFC0
FFC0
C0C0
C0C0
C0C0
C0C0
7F80
3F00
ENDCHAR
STARTCHAR CYRILLIC
ENCODING -1
SWIDTH 480 0
DWIDTH 12 0
BBX 10 10 1 0
BITMAP
3F00
7F80
C0C0
C0C0
FFC0
FFC0
C0C0
C0C0
7F80
3F00
ENDCHAR
STARTCHAR CYRILLIC
ENCODING -1
SWIDTH 480 0
DWIDTH 12 0
BBX 10 18 1 0
BITMAP
3300
3300
0000
0000
FF00
FF80
00C0
00C0
00C0
00C0
0FC0
0FC0
00C0
00C0
00C0
00C0
FF80
FF00
ENDCHAR
STARTCHAR CYRILLIC
ENCODING -1
SWIDTH 480 0
DWIDTH 12 0
BBX 10 14 1 0
BITMAP
3300
3300
0000
0000
FF00
FF80
00C0
00C0
0FC0
0FC0
00C0
00C0
FF80
FF00
ENDCHAR
STARTCHAR CYRILLIC
ENCODING -1
SWIDTH 480 0
DWIDTH 12 0
BBX 10 18 1 0
BITMAP
7F80
7F80
0000
0000
C0C0
C0C0
C0C0
C0C0
C0C0
C0C0
7FC0
3FC0
00C0
00C0
00C0
00C0
1F80
1F00
ENDCHAR
STARTCHAR CYRILLIC
ENCODING -1
SWIDTH 480 0
DWIDTH 12 0
BBX 10 18 1 -4
BITMAP
7F80
7F80
0000
0000
C0C0
C0C0
C0C0
C0C0
C0C0
C0C0
C0C0
C0C0
7FC0
3FC0
00C0
00C0
1F80
1F00
ENDCHAR
STARTCHAR CYRILLIC
ENCODING -1
SWIDTH 480 0
DWIDTH 12 0
BBX 10 18 1 0
BITMAP
3300
3300
0000
0000
C0C0
C0C0
C0C0
C0C0
C0C0
C0C0
7FC0
3FC0
00C0
00C0
00C0
00C0
1F80
1F00
ENDCHAR
STARTCHAR CYRILLIC
ENCODING -1
SWIDTH 480 0
DWIDTH 12 0
BBX 10 18 1 -4
BITMAP
3300
3300
0000
0000
C0C0
C0C0
C0C0
C0C0
C0C0
C0C0
C0C0
C0C0
7FC0
3FC0
00C0
00C0
1F80
1F00
ENDCHAR
STARTCHAR CYRILLIC
ENCODING -1
SWIDTH 480 0
DWIDTH 12 0
BBX 11 20 1 0
BITMAP
0660
0CC0
1980
3300
0000
0000
C0C0
C0C0
C0C0
C0C0
C0C0
C0C0
7FC0
3FC0
00C0
00C0
00C0
00C0
1F80
1F00
ENDCHAR
STARTCHAR CYRILLIC
ENCODING -1
SWIDTH 480 0
DWIDTH 12 0
BBX 11 20 1 -4
BITMAP
0660
0CC0
1980
3300
0000
0000
C0C0
C0C0
C0C0
C0C0
C0C0
C0C0
C0C0
C0C0
7FC0
3FC0
00C0
00C0
1F80
1F00
ENDCHAR
STARTCHAR CYRILLIC
ENCODING -1
SWIDTH 480 0
DWIDTH 12 0
BBX 12 18 0 0
BITMAP
1980
1980
0000
0000
C030
C030
C030
C030
C030
C030
FE30
FF30
C1B0
C1B0
C1B0
C1B0
FF30
FE30
ENDCHAR
STARTCHAR CYRILLIC
ENCODING -1
SWIDTH 480 0
DWIDTH 12 0
BBX 12 14 0 0
BITMAP
1980
1980
0000
0000
C030
C030
C030
C030
FE30
FF30
C1B0
C1B0
FF30
FE30
ENDCHAR
STARTCHAR ARMENIAN
ENCODING -1
SWIDTH 480 0
DWIDTH 12 0
BBX 10 14 1 0
BITMAP
C0C0
C0C0
C0C0
C0C0
C0C0
C0C0
C0C0
C0C0
D8C0
CCC0
C6C0
C340
7D80
3EC0
ENDCHAR
STARTCHAR ARMENIAN
ENCODING -1
SWIDTH 480 0
DWIDTH 12 0
BBX 10 14 1 0
BITMAP
3FC0
7FC0
C000
C000
C000
C000
C000
C000
FFC0
FFC0
C000
C000
C000
C000
ENDCHAR
STARTCHAR ARMENIAN
ENCODING -1
SWIDTH 480 0
DWIDTH 12 0
BBX 10 14 1 0
BITMAP
3C00
7E00
C300
C300
C300
C300
C300
C300
7FC0
3FC0
0300
0300
0300
0300
ENDCHAR
STARTCHAR ARMENIAN
ENCODING -1
SWIDTH 480 0
DWIDTH 12 0
BBX 10 14 1 0
BITMAP
FC00
FE00
0300
0300
0300
0300
0300
0300
03C0
03C0
0300
0300
0300
0300
ENDCHAR
STARTCHAR ARMENIAN
ENCODING -1
SWIDTH 480 0
DWIDTH 12 0
BBX 10 14 1 0
BITMAP
C000
C000
C000
C000
FFC0
FFC0
C000
C000
C000
C000
C000
C000
7FC0
3FC0
ENDCHAR
STARTCHAR ARMENIAN
ENCODING -1
SWIDTH 480 0
DWIDTH 12 0
BBX 10 14 1 0
BITMAP
3F00
7F80
C0C0
C0C0
C0C0
C0C0
00C0
00C0
00C0
00C0
C180
C300
FFC0
FFC0
ENDCHAR
STARTCHAR ARMENIAN
ENCODING -1
SWIDTH 480 0
DWIDTH 12 0
BBX 10 14 1 0
BITMAP
C000
C000
C000
C000
FFC0
FFC0
C000
C000
C000
C000
C000
C000
FF00
FF00
ENDCHAR
STARTCHAR ARMENIAN
ENCODING -1
SWIDTH 480 0
DWIDTH 12 0
BBX 10 14 1 0
BITMAP
3FC0
7FC0
C000
C000
C000
C000
C000
C000
C000
C000
C000
C000
FFC0
FFC0
ENDCHAR
STARTCHAR ARMENIAN
ENCODING -1
SWIDTH 480 0
DWIDTH 12 0
BBX 10 14 1 0
BITMAP
3F00
7F80
C0C0
C0C0
C0C0
C7C0
CFC0
D8C0
D8C0
D8C0
D8C0
D8C0
CF80
C700
ENDCHAR
STARTCHAR ARMENIAN
ENCODING -1
SWIDTH 480 0
DWIDTH 12 0
BBX 10 14 1 0
BITMAP
0300
0300
0300
0300
3FC0
7FC0
C300
C300
C300
C300
C300
C300
7E00
3C00
ENDCHAR
STARTCHAR ARMENIAN
ENCODING -1
SWIDTH 480 0
DWIDTH 12 0
BBX 10 14 1 0
BITMAP
C000
C000
C000
C000
FF00
FF80
C0C0
C0C0
C0C0
C0C0
C000
C000
C000
C000
ENDCHAR
STARTCHAR ARMENIAN
ENCODING -1
SWIDTH 480 0
DWIDTH 12 0
BBX 10 14 1 0
BITMAP
C000
C000
C000
C000
C000
C000
C000
C000
C000
C000
C000
C000
FFC0
FFC0
ENDCHAR
STARTCHAR ARMENIAN
ENCODING -1
SWIDTH 480 0
DWIDTH 12 0
BBX 10 14 1 0
BITMAP
C000
C000
C000
C000
FCC0
FCC0
CCC0
CCC0
CCC0
CCC0
CCC0
CCC0
C780
C300
ENDCHAR
STARTCHAR ARMENIAN
ENCODING -1
SWIDTH 480 0
DWIDTH 12 0
BBX 10 14 1 0
BITMAP
C1C0
C3C0
C600
CC00
FF00
FF00
60C0
C0C0
C0C0
C0C0
C0C0
C0C0
7F80
3F00
ENDCHAR
STARTCHAR ARMENIAN
ENCODING -1
SWIDTH 480 0
DWIDTH 12 0
BBX 10 14 1 0
BITMAP
C000
C000
C000
C000
C0C0
C0C0
C0C0
C0C0
7FC0
3FC0
00C0
00C0
00C0
00C0
ENDCHAR
STARTCHAR ARMENIAN
ENCODING -1
SWIDTH 480 0
DWIDTH 12 0
BBX 10 14 1 0
BITMAP
0300
0380
00C0
00C0
00C0
03C0
0F00
3C00
F000
F000
3C00
0F00
03C0
00C0
ENDCHAR
STARTCHAR ARMENIAN
ENCODING -1
SWIDTH 480 0
DWIDTH 12 0
BBX 10 14 1 0
BITMAP
3F00
7F80
C0C0
C0C0
00C0
00C0
00C0
00C0
3CC0
7EC0
C380
C380
7EC0
3CC0
ENDCHAR
STARTCHAR ARMENIAN
ENCODING -1
SWIDTH 480 0
DWIDTH 12 0
BBX 10 14 1 0
BITMAP
FC00
FE00
0300
0300
0300
0300
0300
0300
0300
0300
0300
0300
03C0
03C0
ENDCHAR
STARTCHAR ARMENIAN
ENCODING -1
SWIDTH 480 0
DWIDTH 12 0
BBX 10 14 1 0
BITMAP
87C0
CFC0
7800
3800
3800
3C00
6600
6300
C180
C0C0
C0C0
C0C0
FFC0
FFC0
ENDCHAR
STARTCHAR ARMENIAN
ENCODING -1
SWIDTH 480 0
DWIDTH 12 0
BBX 10 14 1 0
BITMAP
C3C0
C3C0
C300
C300
C300
C300
C300
C300
C300
C300
C300
C300
7E00
3C00
ENDCHAR
STARTCHAR ARMENIAN
ENCODING -1
SWIDTH 480 0
DWIDTH 12 0
BBX 10 14 1 0
BITMAP
FF00
FF80
00C0
00C0
00C0
00C0
FF80
FF80
00C0
00C0
00C0
00C0
FF80
FF00
ENDCHAR
STARTCHAR ARMENIAN
ENCODING -1
SWIDTH 480 0
DWIDTH 12 0
BBX 10 14 1 0
BITMAP
F000
F000
3000
3000
3000
3000
3000
3000
30C0
30C0
30C0
30C0
1F80
0F00
ENDCHAR
STARTCHAR ARMENIAN
ENCODING -1
SWIDTH 480 0
DWIDTH 12 0
BBX 10 14 1 0
BITMAP
E000
F800
1E00
0700
3FC0
7FC0
C000
C000
C000
C000
C0C0
C0C0
7F80
3F00
ENDCHAR
STARTCHAR ARMENIAN
ENCODING -1
SWIDTH 480 0
DWIDTH 12 0
BBX 10 14 1 0
BITMAP
3F00
7F80
C0C0
C0C0
C0C0
C0C0
C0C0
C0C0
C0C0
C0C0
C0C0
C0C0
C0C0
C0C0
ENDCHAR
STARTCHAR ARMENIAN
ENCODING -1
SWIDTH 480 0
DWIDTH 12 0
BBX 10 14 1 0
BITMAP
3F00
7F80
C0C0
C0C0
00C0
00C0
00C0
00C0
1F80
FF00
F000
3C00
0F00
0300
ENDCHAR
STARTCHAR ARMENIAN
ENCODING -1
SWIDTH 480 0
DWIDTH 12 0
BBX 10 14 1 0
BITMAP
FF00
FF80
0CC0
0CC0
0CC0
0CC0
0CC0
0CC0
00C0
00C0
00C0
00C0
00C0
00C0
ENDCHAR
STARTCHAR ARMENIAN
ENCODING -1
SWIDTH 480 0
DWIDTH 12 0
BBX 10 14 1 0
BITMAP
3F00
7F80
C0C0
C0C0
C0C0
C0C0
60C0
30C0
18C0
0CC0
C780
CF00
FFC0
FFC0
ENDCHAR
STARTCHAR ARMENIAN
ENCODING -1
SWIDTH 480 0
DWIDTH 12 0
BBX 10 14 1 0
BITMAP
3C00
7E00
C300
C300
C300
C300
C300
C300
C3C0
C3C0
C300
C300
C300
C300
ENDCHAR
STARTCHAR ARMENIAN
ENCODING -1
SWIDTH 480 0
DWIDTH 12 0
BBX 10 14 1 0
BITMAP
C0C0
C0C0
C0C0
C0C0
C0C0
C0C0
C0C0
C0C0
C0C0
C0C0
C0C0
C0C0
7F80
3F00
ENDCHAR
STARTCHAR ARMENIAN
ENCODING -1
SWIDTH 480 0
DWIDTH 12 0
BBX 10 14 1 0
BITMAP
0300
0300
0300
0300
C300
C300
C300
C300
7F00
3F00
0300
0300
03C0
03C0
ENDCHAR
STARTCHAR ARMENIAN
ENCODING -1
SWIDTH 480 0
DWIDTH 12 0
BBX 10 14 1 0
BITMAP
3FC0
7FC0
C000
C000
C000
C000
7F00
3F80
00C0
00C0
00C0
00C0
FF80
FF00
ENDCHAR
STARTCHAR ARMENIAN
ENCODING -1
SWIDTH 480 0
DWIDTH 12 0
BBX 10 14 1 0
BITMAP
3FC0
7FC0
C000
C000
C000
C000
C000
C000
C000
C000
C000
C000
C000
C000
ENDCHAR
STARTCHAR ARMENIAN
ENCODING -1
SWIDTH 480 0
DWIDTH 12 0
BBX 10 14 1 0
BITMAP
3F00
7F80
C0C0
C0C0
C0C0
C0C0
FF80
FF80
00C0
00C0
00C0
00C0
FF00
FF00
ENDCHAR
STARTCHAR ARMENIAN
ENCODING -1
SWIDTH 480 0
DWIDTH 12 0
BBX 10 14 1 0
BITMAP
C000
C000
C000
C000
FFC0
FFC0
C000
C000
C000
C000
C000
C000
C000
C000
ENDCHAR
STARTCHAR ARMENIAN
ENCODING -1
SWIDTH 480 0
DWIDTH 12 0
BBX 10 14 1 0
BITMAP
0C00
0C00
3F00
7F80
CCC0
CCC0
CCC0
CCC0
CCC0
CCC0
7F80
3F00
0C00
0C00
ENDCHAR
STARTCHAR ARMENIAN
ENCODING -1
SWIDTH 480 0
DWIDTH 12 0
BBX 10 14 1 0
BITMAP
0F00
1F80
30C0
30C0
30C0
30C0
3F80
3F00
3000
3000
FFC0
FFC0
3000
3000
ENDCHAR
STARTCHAR ARMENIAN
ENCODING -1
SWIDTH 480 0
DWIDTH 12 0
BBX 10 14 1 0
BITMAP
3F00
7F80
C0C0
C0C0
C0C0
C0C0
C0C0
C0C0
C0C0
C0C0
C0C0
C0C0
7F80
3F00
ENDCHAR
STARTCHAR ARMENIAN
ENCODING -1
SWIDTH 480 0
DWIDTH 12 0
BBX 10 14 1 0
BITMAP
3C00
7C00
CC00
CC00
CC00
CC00
7F00
3F80
0CC0
0CC0
0CC0
0CC0
FF80
FF00
ENDCHAR
STARTCHAR ARMENIAN
ENCODING -1
SWIDTH 480 0
DWIDTH 12 0
BBX 4 6 3 10
BITMAP
30
70
C0
C0
70
30
ENDCHAR
STARTCHAR ARMENIAN
ENCODING -1
SWIDTH 480 0
DWIDTH 12 0
BBX 4 5 4 11
BITMAP
30
30
30
60
C0
ENDCHAR
STARTCHAR ARMENIAN
ENCODING -1
SWIDTH 480 0
DWIDTH 12 0
BBX 7 6 3 12
BITMAP
06
0C
18
30
60
C0
ENDCHAR
STARTCHAR ARMENIAN
ENCODING -1
SWIDTH 480 0
DWIDTH 12 0
BBX 10 6 1 12
BITMAP
00C0
00C0
3F80
7F00
C000
C000
ENDCHAR
STARTCHAR ARMENIAN
ENCODING -1
SWIDTH 480 0
DWIDTH 12 0
BBX 7 6 3 12
BITMAP
C0
60
30
18
0C
06
ENDCHAR
STARTCHAR ARMENIAN
ENCODING -1
SWIDTH 480 0
DWIDTH 12 0
BBX 10 6 1 12
BITMAP
3F00
7F80
C0C0
C0C0
CF80
CF00
ENDCHAR
STARTCHAR ARMENIAN
ENCODING -1
SWIDTH 480 0
DWIDTH 12 0
BBX 10 4 1 12
BITMAP
C000
C000
FFC0
FFC0
ENDCHAR
STARTCHAR ARMENIAN
ENCODING -1
SWIDTH 480 0
DWIDTH 12 0
BBX 10 10 1 0
BITMAP
CCC0
CCC0
CCC0
CCC0
CCC0
CCC0
CCC0
CCC0
7FC0
33C0
ENDCHAR
STARTCHAR ARMENIAN
ENCODING -1
SWIDTH 480 0
DWIDTH 12 0
BBX 10 14 1 -4
BITMAP
FF00
FF80
C0C0
C0C0
C000
C000
C000
C000
FFC0
FFC0
C000
C000
C000
C000
ENDCHAR
STARTCHAR ARMENIAN
ENCODING -1
SWIDTH 480 0
DWIDTH 12 0
BBX 10 14 1 -4
BITMAP
3F00
7F00
C300
C300
C300
C300
C300
C300
7FC0
3FC0
0300
0300
0300
0300
ENDCHAR
STARTCHAR ARMENIAN
ENCODING -1
SWIDTH 480 0
DWIDTH 12 0
BBX 10 14 1 -4
BITMAP
FC00
FE00
C300
C300
C300
C300
C300
C300
C3C0
C3C0
0300
0300
0300
0300
ENDCHAR
STARTCHAR ARMENIAN
ENCODING -1
SWIDTH 480 0
DWIDTH 12 0
BBX 10 16 1 0
BITMAP
C000
C000
C000
C000
C000
C000
FFC0
FFC0
C000
C000
C0C0
C0C0
C0C0
C0C0
7FC0
3FC0
ENDCHAR
STARTCHAR ARMENIAN
ENCODING -1
SWIDTH 480 0
DWIDTH 12 0
BBX 10 14 1 -4
BITMAP
3F00
7F00
C300
C300
C300
C300
C300
C300
7F00
3F00
0300
0300
03C0
03C0
ENDCHAR
STARTCHAR ARMENIAN
ENCODING -1
SWIDTH 480 0
DWIDTH 12 0
BBX 10 16 1 0
BITMAP
C000
C000
C000
C000
C000
C000
FFC0
FFC0
C000
C000
C000
C000
C000
C000
FF00
FF00
ENDCHAR
STARTCHAR ARMENIAN
ENCODING -1
SWIDTH 480 0
DWIDTH 12 0
BBX 10 14 1 -4
BITMAP
FF00
FF80
C0C0
C0C0
C0C0
C0C0
C0C0
C0C0
C0C0
C0C0
C000
C000
FFC0
FFC0
ENDCHAR
STARTCHAR ARMENIAN
ENCODING -1
SWIDTH 480 0
DWIDTH 12 0
BBX 10 14 1 -4
BITMAP
FF00
FF80
C0C0
C7C0
CFC0
D8C0
D8C0
D8C0
CF80
C700
C000
C000
C000
C000
ENDCHAR
STARTCHAR ARMENIAN
ENCODING -1
SWIDTH 480 0
DWIDTH 12 0
BBX 10 16 1 0
BITMAP
0300
0300
0300
0300
0300
0300
3FC0
7FC0
C300
C300
C300
C300
C300
C300
7E00
3C00
ENDCHAR
STARTCHAR ARMENIAN
ENCODING -1
SWIDTH 480 0
DWIDTH 12 0
BBX 10 20 1 -4
BITMAP
C000
C000
C000
C000
C000
C000
FF00
FF80
C0C0
C0C0
C0C0
C0C0
C0C0
C0C0
C0C0
C0C0
C000
C000
C000
C000
ENDCHAR
STARTCHAR ARMENIAN
ENCODING -1
SWIDTH 480 0
DWIDTH 12 0
BBX 4 18 4 -4
BITMAP
C0
C0
C0
C0
C0
C0
C0
C0
C0
C0
C0
C0
C0
C0
C0
C0
F0
F0
ENDCHAR
STARTCHAR ARMENIAN
ENCODING -1
SWIDTH 480 0
DWIDTH 12 0
BBX 10 20 1 -4
BITMAP
C000
C000
C000
C000
C000
C000
F0C0
F8C0
CCC0
CCC0
CCC0
CCC0
CCC0
CCC0
C780
C300
C000
C000
C000
C000
ENDCHAR
STARTCHAR ARMENIAN
ENCODING -1
SWIDTH 480 0
DWIDTH 12 0
BBX 10 16 1 0
BITMAP
3000
7000
C000
C000
7000
1800
3FC0
3FC0
C300
C180
C0C0
C0C0
C0C0
C0C0
7F80
3F00
ENDCHAR
STARTCHAR ARMENIAN
ENCODING -1
SWIDTH 480 0
DWIDTH 12 0
BBX 10 20 1 -4
BITMAP
C000
C000
C000
C000
C000
C000
C0C0
C0C0
C0C0
C0C0
C0C0
C0C0
C0C0
C0C0
7FC0
3FC0
00C0
00C0
00C0
00C0
ENDCHAR
STARTCHAR ARMENIAN
ENCODING -1
SWIDTH 480 0
DWIDTH 12 0
BBX 10 16 1 0
BITMAP
C000
C000
C000
C000
C000
C000
FF00
FF80
C0C0
C0C0
C0C0
C0C0
C0C0
C0C0
C0C0
C0C0
ENDCHAR
STARTCHAR ARMENIAN
ENCODING -1
SWIDTH 480 0
DWIDTH 12 0
BBX 10 16 1 0
BITMAP
0C00
1C00
3000
3000
1C00
0600
3F00
7F80
C0C0
C0C0
C0C0
C0C0
C0C0
C0C0
7FC0
3FC0
ENDCHAR
STARTCHAR ARMENIAN
ENCODING -1
SWIDTH 480 0
DWIDTH 12 0
BBX 10 14 1 -4
BITMAP
FC00
FE00
C300
C300
C300
C300
C300
C300
C300
C300
0300
0300
03C0
03C0
ENDCHAR
STARTCHAR ARMENIAN
ENCODING -1
SWIDTH 480 0
DWIDTH 12 0
BBX 10 16 1 0
BITMAP
01C0
07C0
0E00
1800
1800
3000
FF00
FF80
60C0
C0C0
C0C0
C0C0
C1C0
C3C0
7EC0
3CC0
ENDCHAR
STARTCHAR ARMENIAN
ENCODING -1
SWIDTH 480 0
DWIDTH 12 0
BBX 10 16 1 0
BITMAP
03C0
03C0
0300
0300
0300
0300
C300
C300
C300
C300
C300
C300
C300
C300
7F00
3F00
ENDCHAR
STARTCHAR ARMENIAN
ENCODING -1
SWIDTH 480 0
DWIDTH 12 0
BBX 4 14 3 -4
BITMAP
30
30
30
30
30
30
30
30
30
30
30
30
E0
C0
ENDCHAR
STARTCHAR ARMENIAN
ENCODING -1
SWIDTH 480 0
DWIDTH 12 0
BBX 10 16 1 0
BITMAP
F000
F000
3000
3000
3000
3000
30C0
30C0
30C0
30C0
30C0
30C0
30C0
30C0
1FC0
0FC0
ENDCHAR
STARTCHAR ARMENIAN
ENCODING -1
SWIDTH 480 0
DWIDTH 12 0
BBX 10 14 1 -4
BITMAP
FF00
FF80
00C0
00C0
00C0
00C0
0180
0300
0600
0C00
1800
3000
7FC0
FFC0
ENDCHAR
STARTCHAR ARMENIAN
ENCODING -1
SWIDTH 480 0
DWIDTH 12 0
BBX 10 10 1 0
BITMAP
FF00
FF80
C0C0
C0C0
C0C0
C0C0
C0C0
C0C0
C0C0
C0C0
ENDCHAR
STARTCHAR ARMENIAN
ENCODING -1
SWIDTH 480 0
DWIDTH 12 0
BBX 10 18 1 -4
BITMAP
3000
7000
C000
C000
7F00
3F00
0300
0600
0C00
1800
3000
6000
C000
C000
C000
C000
FFC0
FFC0
ENDCHAR
STARTCHAR ARMENIAN
ENCODING -1
SWIDTH 480 0
DWIDTH 12 0
BBX 10 14 1 -4
BITMAP
CCC0
CCC0
CCC0
CCC0
CCC0
CCC0
CCC0
CCC0
7FC0
33C0
00C0
00C0
00C0
00C0
ENDCHAR
STARTCHAR ARMENIAN
ENCODING -1
SWIDTH 480 0
DWIDTH 12 0
BBX 10 14 1 -4
BITMAP
3F00
7F80
C0C0
C0C0
C0C0
C0C0
6180
3300
1E00
0C00
1800
3000
7FC0
FFC0
ENDCHAR
STARTCHAR ARMENIAN
ENCODING -1
SWIDTH 480 0
DWIDTH 12 0
BBX 10 10 1 0
BITMAP
FF00
FF80
C0C0
C0C0
C0C0
C0C0
C180
C300
C7C0
CFC0
ENDCHAR
STARTCHAR ARMENIAN
ENCODING -1
SWIDTH 480 0
DWIDTH 12 0
BBX 10 10 1 0
BITMAP
C0C0
C0C0
C0C0
C0C0
C0C0
C0C0
C0C0
C0C0
7FC0
3FC0
ENDCHAR
STARTCHAR ARMENIAN
ENCODING -1
SWIDTH 480 0
DWIDTH 12 0
BBX 10 20 1 -4
BITMAP
0300
0300
0300
0300
0300
0300
C300
C300
C300
C300
C300
C300
C300
C300
7F00
3F00
0300
0300
03C0
03C0
ENDCHAR
STARTCHAR ARMENIAN
ENCODING -1
SWIDTH 480 0
DWIDTH 12 0
BBX 10 10 1 0
BITMAP
CF00
CF80
CCC0
CCC0
CCC0
CCC0
CCC0
CCC0
7CC0
3CC0
ENDCHAR
STARTCHAR ARMENIAN
ENCODING -1
SWIDTH 480 0
DWIDTH 12 0
BBX 10 14 1 -4
BITMAP
FF00
FF80
C0C0
C0C0
C0C0
C0C0
C0C0
C0C0
C0C0
C0C0
C000
C000
C000
C000
ENDCHAR
STARTCHAR ARMENIAN
ENCODING -1
SWIDTH 480 0
DWIDTH 12 0
BBX 10 14 1 -4
BITMAP
3FC0
7FC0
C0C0
C0C0
C0C0
C0C0
C0C0
C0C0
7FC0
3FC0
00C0
00C0
3F00
3F00
ENDCHAR
STARTCHAR ARMENIAN
ENCODING -1
SWIDTH 480 0
DWIDTH 12 0
BBX 6 10 3 0
BITMAP
C0
C0
C0
C0
C0
C0
C0
C0
FC
FC
ENDCHAR
STARTCHAR ARMENIAN
ENCODING -1
SWIDTH 480 0
DWIDTH 12 0
BBX 10 20 1 -4
BITMAP
0C00
0C00
0C00
0C00
0C00
0C00
CF00
CF80
CCC0
CCC0
CCC0
CCC0
CCC0
CCC0
7CC0
3CC0
0C00
0C00
0C00
0C00
ENDCHAR
STARTCHAR ARMENIAN
ENCODING -1
SWIDTH 480 0
DWIDTH 12 0
BBX 10 14 1 -4
BITMAP
3F00
3F80
30C0
30C0
30C0
30C0
30C0
30C0
3F80
3F00
3000
3000
FFC0
FFC0
ENDCHAR
STARTCHAR ARMENIAN
ENCODING -1
SWIDTH 480 0
DWIDTH 12 0
BBX 10 10 1 0
BITMAP
3F00
7F80
C0C0
C0C0
C0C0
C0C0
C0C0
C0C0
7F80
3F00
ENDCHAR
STARTCHAR ARMENIAN
ENCODING -1
SWIDTH 480 0
DWIDTH 12 0
BBX 10 20 1 -4
BITMAP
3C00
7C00
CC00
CC00
CC00
CC00
7F00
3F80
0CC0
0CC0
0CC0
0CC0
0CC0
0CC0
FF80
FF00
0C00
0C00
0C00
0C00
ENDCHAR
STARTCHAR ARMENIAN
ENCODING -1
SWIDTH 480 0
DWIDTH 12 0
BBX 10 16 1 0
BITMAP
C000
C000
C000
C000
C000
C000
CC00
CC00
CC00
CC00
CC00
CC00
CC00
CC00
7FC0
3FC0
ENDCHAR
STARTCHAR ARMENIAN
ENCODING -1
SWIDTH 480 0
DWIDTH 12 0
BBX 2 10 5 0
BITMAP
C0
C0
00
00
00
00
00
00
C0
C0
ENDCHAR
STARTCHAR ARMENIAN
ENCODING -1
SWIDTH 480 0
DWIDTH 12 0
BBX 10 4 1 4
BITMAP
C0C0
C0C0
7F80
3F00
ENDCHAR
STARTCHAR RIGHT-FACING
ENCODING -1
SWIDTH 480 0
DWIDTH 12 0
BBX 12 12 0 0
BITMAP
3FC0
7FE0
CC30
CC30
CFF0
CFF0
FF30
FF30
C330
C330
7FE0
3FC0
ENDCHAR
STARTCHAR LEFT-FACING
ENCODING -1
SWIDTH 480 0
DWIDTH 12 0
BBX 12 12 0 0
BITMAP
3FC0
7FE0
C330
C330
FF30
FF30
CFF0
CFF0
CC30
CC30
7FE0
3FC0
ENDCHAR
STARTCHAR ARMENIAN
ENCODING -1
SWIDTH 480 0
DWIDTH 12 0
BBX 10 14 1 0
BITMAP
FC00
FE00
0300
0300
0300
0300
0FC0
0FC0
0300
0300
0FC0
0FC0
0300
0300
ENDCHAR
STARTCHAR HEBREW
ENCODING -1
SWIDTH 480 0
DWIDTH 12 0
BBX 10 10 1 0
BITMAP
C0C0
60C0
30C0
78C0
CCC0
C780
C300
C180
C0C0
C040
ENDCHAR
STARTCHAR HEBREW
ENCODING -1
SWIDTH 480 0
DWIDTH 12 0
BBX 10 10 1 0
BITMAP
FC00
FE00
0300
0300
0300
0300
0300
0300
FFC0
FFC0
ENDCHAR
STARTCHAR HEBREW
ENCODING -1
SWIDTH 480 0
DWIDTH 12 0
BBX 10 10 1 0
BITMAP
FC00
FE00
0300
0300
0300
0300
0300
0300
FFC0
FCC0
ENDCHAR
STARTCHAR HEBREW
ENCODING -1
SWIDTH 480 0
DWIDTH 12 0
BBX 10 10 1 0
BITMAP
FFC0
FFC0
0300
0300
0300
0300
0300
0300
0300
0300
ENDCHAR
STARTCHAR HEBREW
ENCODING -1
SWIDTH 480 0
DWIDTH 12 0
BBX 10 10 1 0
BITMAP
FF00
FF80
00C0
00C0
C0C0
C0C0
C0C0
C0C0
C0C0
C0C0
ENDCHAR
STARTCHAR HEBREW
ENCODING -1
SWIDTH 480 0
DWIDTH 12 0
BBX 2 10 5 0
BITMAP
C0
C0
C0
C0
C0
C0
C0
C0
C0
C0
ENDCHAR
STARTCHAR HEBREW
ENCODING -1
SWIDTH 480 0
DWIDTH 12 0
BBX 10 10 1 0
BITMAP
FFC0
FFC0
00C0
0180
0300
0600
0C00
0C00
0C00
0C00
ENDCHAR
STARTCHAR HEBREW
ENCODING -1
SWIDTH 480 0
DWIDTH 12 0
BBX 10 10 1 0
BITMAP
FF00
FF80
C0C0
C0C0
C0C0
C0C0
C0C0
C0C0
C0C0
C0C0
ENDCHAR
STARTCHAR HEBREW
ENCODING -1
SWIDTH 480 0
DWIDTH 12 0
BBX 10 10 1 0
BITMAP
CF00
CF80
C0C0
C0C0
C0C0
C0C0
C0C0
C0C0
7F80
3F00
ENDCHAR
STARTCHAR HEBREW
ENCODING -1
SWIDTH 480 0
DWIDTH 12 0
BBX 2 6 5 4
BITMAP
C0
C0
C0
C0
C0
C0
ENDCHAR
STARTCHAR HEBREW
ENCODING -1
SWIDTH 480 0
DWIDTH 12 0
BBX 10 14 1 -4
BITMAP
FF00
FF80
00C0
00C0
00C0
00C0
00C0
00C0
00C0
00C0
00C0
00C0
00C0
00C0
ENDCHAR
STARTCHAR HEBREW
ENCODING -1
SWIDTH 480 0
DWIDTH 12 0
BBX 10 10 1 0
BITMAP
FF00
FF80
00C0
00C0
00C0
00C0
00C0
00C0
FF80
FF00
ENDCHAR
STARTCHAR HEBREW
ENCODING -1
SWIDTH 480 0
DWIDTH 12 0
BBX 10 11 1 0
BITMAP
C000
FFC0
FFC0
00C0
0180
0300
0600
0C00
1800
3000
6000
ENDCHAR
STARTCHAR HEBREW
ENCODING -1
SWIDTH 480 0
DWIDTH 12 0
BBX 10 10 1 0
BITMAP
FF00
FF80
C0C0
C0C0
C0C0
C0C0
C0C0
C0C0
FFC0
FFC0
ENDCHAR
STARTCHAR HEBREW
ENCODING -1
SWIDTH 480 0
DWIDTH 12 0
BBX 10 10 1 0
BITMAP
CF00
7F80
30C0
30C0
60C0
60C0
60C0
C0C0
CFC0
CFC0
ENDCHAR
STARTCHAR HEBREW
ENCODING -1
SWIDTH 480 0
DWIDTH 12 0
BBX 2 14 5 -4
BITMAP
C0
C0
C0
C0
C0
C0
C0
C0
C0
C0
C0
C0
C0
C0
ENDCHAR
STARTCHAR HEBREW
ENCODING -1
SWIDTH 480 0
DWIDTH 12 0
BBX 10 10 1 0
BITMAP
FF00
FF80
00C0
00C0
00C0
00C0
00C0
00C0
FFC0
FFC0
ENDCHAR
STARTCHAR HEBREW
ENCODING -1
SWIDTH 480 0
DWIDTH 12 0
BBX 10 10 1 0
BITMAP
FF00
FF80
C0C0
C0C0
C0C0
C0C0
C0C0
C0C0
7F80
3F00
ENDCHAR
STARTCHAR HEBREW
ENCODING -1
SWIDTH 480 0
DWIDTH 12 0
BBX 10 10 1 0
BITMAP
C0C0
C0C0
C0C0
60C0
60C0
60C0
30C0
30C0
FF80
FF00
ENDCHAR
STARTCHAR HEBREW
ENCODING -1
SWIDTH 480 0
DWIDTH 12 0
BBX 10 14 1 -4
BITMAP
FF00
FF80
C0C0
C0C0
7CC0
3CC0
00C0
00C0
00C0
00C0
00C0
00C0
00C0
00C0
ENDCHAR
STARTCHAR HEBREW
ENCODING -1
SWIDTH 480 0
DWIDTH 12 0
BBX 10 10 1 0
BITMAP
FF00
FF80
C0C0
C0C0
7CC0
3CC0
00C0
00C0
FF80
FF00
ENDCHAR
STARTCHAR HEBREW
ENCODING -1
SWIDTH 480 0
DWIDTH 12 0
BBX 10 14 1 -4
BITMAP
80C0
C0C0
60C0
30C0
1F80
0F00
0C00
0C00
0C00
0C00
0C00
0C00
0C00
0C00
ENDCHAR
STARTCHAR HEBREW
ENCODING -1
SWIDTH 480 0
DWIDTH 12 0
BBX 10 10 1 0
BITMAP
80C0
C0C0
60C0
3180
1980
0D80
0700
0300
FFC0
FFC0
ENDCHAR
STARTCHAR HEBREW
ENCODING -1
SWIDTH 480 0
DWIDTH 12 0
BBX 10 14 1 -4
BITMAP
FFC0
FFC0
00C0
00C0
C0C0
C180
C180
C300
C600
CC00
C000
C000
C000
C000
ENDCHAR
STARTCHAR HEBREW
ENCODING -1
SWIDTH 480 0
DWIDTH 12 0
BBX 10 10 1 0
BITMAP
FF00
FF80
00C0
00C0
00C0
00C0
00C0
00C0
00C0
00C0
ENDCHAR
STARTCHAR HEBREW
ENCODING -1
SWIDTH 480 0
DWIDTH 12 0
BBX 10 10 1 0
BITMAP
CCC0
CCC0
CCC0
CCC0
CCC0
FCC0
F8C0
C0C0
FF80
FF00
ENDCHAR
STARTCHAR HEBREW
ENCODING -1
SWIDTH 480 0
DWIDTH 12 0
BBX 10 10 1 0
BITMAP
FF00
FF80
30C0
30C0
30C0
30C0
30C0
30C0
E0C0
C0C0
ENDCHAR
STARTCHAR KANNADA
ENCODING -1
SWIDTH 480 0
DWIDTH 12 0
BBX 10 14 1 0
BITMAP
00C0
00C0
00C0
00C0
FF80
FF80
C0C0
C0C0
CCC0
CCC0
C0C0
C0C0
7F80
3F00
ENDCHAR
STARTCHAR GEORGIAN
ENCODING -1
SWIDTH 480 0
DWIDTH 12 0
BBX 10 11 1 0
BITMAP
0C00
0F00
0780
00C0
00C0
00C0
00C0
00C0
00C0
FF80
FF00
ENDCHAR
STARTCHAR GEORGIAN
ENCODING -1
SWIDTH 480 0
DWIDTH 12 0
BBX 10 17 1 0
BITMAP
C000
F800
7C00
0C00
0C00
0C00
0C00
3F00
7380
C0C0
C0C0
C0C0
C0C0
C0C0
C0C0
7F80
3F00
ENDCHAR
STARTCHAR GEORGIAN
ENCODING -1
SWIDTH 480 0
DWIDTH 12 0
BBX 10 14 1 -4
BITMAP
3000
7800
CC00
0C00
3F00
7380
C0C0
C0C0
C0C0
C0C0
C0C0
C0C0
7F80
3F00
ENDCHAR
STARTCHAR GEORGIAN
ENCODING -1
SWIDTH 480 0
DWIDTH 12 0
BBX 10 14 1 -4
BITMAP
3300
7F80
CCC0
CCC0
CCC0
CCC0
CCC0
CCC0
C780
6300
3000
FC00
DFC0
03C0
ENDCHAR
STARTCHAR GEORGIAN
ENCODING -1
SWIDTH 480 0
DWIDTH 12 0
BBX 10 14 1 -4
BITMAP
FF00
FF80
00C0
00C0
00C0
00C0
00C0
00C0
00C0
00C0
00C0
00C0
FF80
FF00
ENDCHAR
STARTCHAR GEORGIAN
ENCODING -1
SWIDTH 480 0
DWIDTH 12 0
BBX 10 14 1 -4
BITMAP
FF00
FF80
00C0
00C0
00C0
0F80
0F80
00C0
00C0
00C0
00C0
00C0
FF80
FF00
ENDCHAR
STARTCHAR GEORGIAN
ENCODING -1
SWIDTH 480 0
DWIDTH 12 0
BBX 10 14 1 0
BITMAP
3000
78C0
CD80
CF00
7F00
3F80
18C0
18C0
18C0
18C0
18C0
18C0
0F80
0700
ENDCHAR
STARTCHAR GEORGIAN
ENCODING -1
SWIDTH 480 0
DWIDTH 12 0
BBX 10 10 1 0
BITMAP
3300
7F80
CCC0
CCC0
CCC0
CCC0
CCC0
CCC0
78C0
30C0
ENDCHAR
STARTCHAR GEORGIAN
ENCODING -1
SWIDTH 480 0
DWIDTH 12 0
BBX 10 10 1 0
BITMAP
3F00
7F80
C0C0
C0C0
C0C0
C0C0
C0C0
C0C0
C0C0
C0C0
ENDCHAR
STARTCHAR GEORGIAN
ENCODING -1
SWIDTH 480 0
DWIDTH 12 0
BBX 10 14 1 -4
BITMAP
00C0
00C0
00C0
00C0
00C0
0F80
0F80
00C0
00C0
00C0
00C0
00C0
FF80
FF00
ENDCHAR
STARTCHAR GEORGIAN
ENCODING -1
SWIDTH 480 0
DWIDTH 12 0
BBX 12 14 0 -4
BITMAP
3FC0
7FE0
DFB0
DB30
DB30
C030
C030
C030
C030
6030
3000
FE00
DFF0
01F0
ENDCHAR
STARTCHAR GEORGIAN
ENCODING -1
SWIDTH 480 0
DWIDTH 12 0
BBX 10 16 1 0
BITMAP
7F00
FF80
C0C0
00C0
00C0
00C0
3FC0
7FC0
C0C0
C0C0
C0C0
C0C0
C0C0
C0C0
7F80
3F00
ENDCHAR
STARTCHAR GEORGIAN
ENCODING -1
SWIDTH 480 0
DWIDTH 12 0
BBX 10 16 1 0
BITMAP
7FC0
FFC0
C000
C000
C000
C000
FF00
FF80
C0C0
C0C0
C0C0
C0C0
C0C0
C0C0
7F80
3F00
ENDCHAR
STARTCHAR GEORGIAN
ENCODING -1
SWIDTH 480 0
DWIDTH 12 0
BBX 10 10 1 0
BITMAP
3300
7F80
CCC0
CCC0
CCC0
CCC0
CCC0
CCC0
CCC0
C0C0
ENDCHAR
STARTCHAR GEORGIAN
ENCODING -1
SWIDTH 480 0
DWIDTH 12 0
BBX 10 16 1 0
BITMAP
C000
FF00
7F80
00C0
00C0
00C0
00C0
0F80
0F80
00C0
00C0
00C0
00C0
00C0
FF80
FF00
ENDCHAR
STARTCHAR GEORGIAN
ENCODING -1
SWIDTH 480 0
DWIDTH 12 0
BBX 10 14 1 -4
BITMAP
00C0
0FC0
0FC0
0CC0
CCC0
F8C0
70C0
00C0
00C0
00C0
00C0
00C0
FF80
FF00
ENDCHAR
STARTCHAR GEORGIAN
ENCODING -1
SWIDTH 480 0
DWIDTH 12 0
BBX 10 16 1 0
BITMAP
0600
0600
3C00
7800
C000
C000
F300
FF80
CCC0
CCC0
CCC0
CCC0
CCC0
CCC0
CCC0
C0C0
ENDCHAR
STARTCHAR GEORGIAN
ENCODING -1
SWIDTH 480 0
DWIDTH 12 0
BBX 10 16 1 0
BITMAP
C000
C000
C000
C000
C000
C000
C0C0
C180
C300
C180
C0C0
C0C0
C0C0
C0C0
7F80
3F00
ENDCHAR
STARTCHAR GEORGIAN
ENCODING -1
SWIDTH 480 0
DWIDTH 12 0
BBX 10 14 1 -4
BITMAP
0C00
1E00
3300
7380
DEC0
CCC0
CCC0
CCC0
CCC0
C0C0
C0C0
C0C0
7F80
3F00
ENDCHAR
STARTCHAR GEORGIAN
ENCODING -1
SWIDTH 480 0
DWIDTH 12 0
BBX 10 14 1 -4
BITMAP
1300
3F80
ECC0
ECC0
0CC0
0CC0
0CC0
0CC0
0CC0
00C0
00C0
00C0
FF80
FF00
ENDCHAR
STARTCHAR GEORGIAN
ENCODING -1
SWIDTH 480 0
DWIDTH 12 0
BBX 10 14 1 -4
BITMAP
3300
7F80
CCC0
CCC0
CCC0
CCC0
CCC0
CCC0
78C0
30C0
00C0
00C0
FF80
FF00
ENDCHAR
STARTCHAR GEORGIAN
ENCODING -1
SWIDTH 480 0
DWIDTH 12 0
BBX 10 20 1 -4
BITMAP
0040
00C0
01C0
03C0
06C0
00C0
FFC0
FFC0
00C0
00C0
00C0
00C0
00C0
00C0
00C0
00C0
00C0
00C0
FF80
FF00
ENDCHAR
STARTCHAR GEORGIAN
ENCODING -1
SWIDTH 480 0
DWIDTH 12 0
BBX 10 14 1 -4
BITMAP
3300
7F80
CCC0
CCC0
CCC0
CCC0
CCC0
CCC0
CCC0
60C0
3000
FC00
DFC0
03C0
ENDCHAR
STARTCHAR GEORGIAN
ENCODING -1
SWIDTH 480 0
DWIDTH 12 0
BBX 10 14 1 -4
BITMAP
C0C0
C0C0
C0C0
C0C0
C0C0
C0C0
7FC0
3FC0
00C0
00C0
00C0
00C0
FF80
FF00
ENDCHAR
STARTCHAR GEORGIAN
ENCODING -1
SWIDTH 480 0
DWIDTH 12 0
BBX 10 16 1 0
BITMAP
3300
7F80
CCC0
CCC0
00C0
00C0
3FC0
7FC0
C0C0
C0C0
C0C0
C0C0
C0C0
C0C0
7F80
3F00
ENDCHAR
STARTCHAR GEORGIAN
ENCODING -1
SWIDTH 480 0
DWIDTH 12 0
BBX 10 16 1 0
BITMAP
3000
7800
CC00
F800
F000
C000
FF00
FF80
C0C0
C0C0
C0C0
C0C0
C0C0
C0C0
C0C0
C0C0
ENDCHAR
STARTCHAR GEORGIAN
ENCODING -1
SWIDTH 480 0
DWIDTH 12 0
BBX 10 14 1 -4
BITMAP
D800
DF00
CF80
C0C0
C0C0
C0C0
C0C0
CF80
CF80
C0C0
C0C0
C0C0
7F80
3F00
ENDCHAR
STARTCHAR GEORGIAN
ENCODING -1
SWIDTH 480 0
DWIDTH 12 0
BBX 10 16 1 0
BITMAP
00C0
00C0
00C0
00C0
00C0
00C0
3FC0
7FC0
C0C0
C0C0
C0C0
C0C0
C0C0
C0C0
7F80
3F00
ENDCHAR
STARTCHAR GEORGIAN
ENCODING -1
SWIDTH 480 0
DWIDTH 12 0
BBX 10 16 1 0
BITMAP
3300
7F80
CCC0
CCC0
C000
C000
FFC0
FFC0
6180
6180
3300
3300
1E00
1E00
0C00
0C00
ENDCHAR
STARTCHAR GEORGIAN
ENCODING -1
SWIDTH 480 0
DWIDTH 12 0
BBX 11 18 1 -4
BITMAP
0180
0180
0180
0180
0180
3D80
7F80
C3E0
C1C0
C1C0
C3E0
7F80
3D80
0180
0180
0180
FF00
FE00
ENDCHAR
STARTCHAR GEORGIAN
ENCODING -1
SWIDTH 480 0
DWIDTH 12 0
BBX 10 16 1 0
BITMAP
C000
C000
C600
CC00
D800
F000
FF00
FF80
C0C0
C0C0
C0C0
C0C0
C0C0
C0C0
7F80
3F00
ENDCHAR
STARTCHAR GEORGIAN
ENCODING -1
SWIDTH 480 0
DWIDTH 12 0
BBX 10 20 1 -4
BITMAP
0C00
0C00
0C00
0C00
0C00
FFC0
FFC0
0C00
0C00
0600
0300
0180
00C0
00C0
00C0
00C0
00C0
00C0
FF80
FF00
ENDCHAR
STARTCHAR GEORGIAN
ENCODING -1
SWIDTH 480 0
DWIDTH 12 0
BBX 10 16 1 0
BITMAP
C000
FF00
7F80
00C0
00C0
0F80
0F80
00C0
00C0
0F80
0F80
00C0
00C0
00C0
FF80
FF00
ENDCHAR
STARTCHAR GEORGIAN
ENCODING -1
SWIDTH 480 0
DWIDTH 12 0
BBX 10 20 1 -4
BITMAP
0C00
0C00
0C00
0C00
2D00
7F80
CCC0
CCC0
CCC0
CCC0
CCC0
CCC0
CCC0
CCC0
7F80
2D00
0C00
0C00
0C00
0C00
ENDCHAR
STARTCHAR GEORGIAN
ENCODING -1
SWIDTH 480 0
DWIDTH 12 0
BBX 10 14 1 -4
BITMAP
FF00
FF80
00C0
00C0
00C0
00C0
3F80
7F00
C000
C000
C000
C000
7FC0
3FC0
ENDCHAR
STARTCHAR GEORGIAN
ENCODING -1
SWIDTH 480 0
DWIDTH 12 0
BBX 10 14 1 -4
BITMAP
C0C0
C0C0
C0C0
C0C0
C0C0
C0C0
FF80
FF00
C000
C000
C000
C000
7FC0
3FC0
ENDCHAR
STARTCHAR GEORGIAN
ENCODING -1
SWIDTH 480 0
DWIDTH 12 0
BBX 10 14 1 -4
BITMAP
3F00
7F80
C0C0
C0C0
C0C0
C0C0
C0C0
C0C0
7380
3F00
0C00
0CC0
0780
0300
ENDCHAR
STARTCHAR GEORGIAN
ENCODING -1
SWIDTH 480 0
DWIDTH 12 0
BBX 10 14 1 -4
BITMAP
3F00
7F80
C0C0
C0C0
C0C0
C0C0
C0C0
C0C0
C0C0
60C0
3000
FC00
DFC0
03C0
ENDCHAR
STARTCHAR GEORGIAN
ENCODING -1
SWIDTH 480 0
DWIDTH 12 0
BBX 10 10 1 0
BITMAP
C000
C000
0000
0000
00C0
00C0
0000
0000
C000
C000
ENDCHAR
STARTCHAR MODIFIER
ENCODING -1
SWIDTH 480 0
DWIDTH 12 0
BBX 10 16 1 4
BITMAP
7FC0
FFC0
C000
C000
C000
C000
FF00
FF80
C0C0
C0C0
C0C0
C0C0
C0C0
C0C0
7F80
3F00
ENDCHAR
STARTCHAR GEORGIAN
ENCODING -1
SWIDTH 480 0
DWIDTH 12 0
BBX 10 16 1 0
BITMAP
3FC0
7FC0
C000
C000
C000
C000
C000
7F00
3F80
00C0
00C0
00C0
00C0
00C0
FF80
FF00
ENDCHAR
STARTCHAR GEORGIAN
ENCODING -1
SWIDTH 480 0
DWIDTH 12 0
BBX 10 10 1 0
BITMAP
F3C0
FFC0
0C00
3F00
7380
C0C0
C0C0
C0C0
7F80
3F00
ENDCHAR
STARTCHAR GEORGIAN
ENCODING -1
SWIDTH 480 0
DWIDTH 12 0
BBX 10 10 1 0
BITMAP
3F00
7F80
C0C0
C0C0
C0C0
C0C0
C0C0
C0C0
7F80
3F00
ENDCHAR
STARTCHAR LATIN
ENCODING -1
SWIDTH 480 0
DWIDTH 12 0
BBX 10 18 1 0
BITMAP
0C00
0C00
0000
0000
FF00
FF80
C0C0
C0C0
C0C0
C0C0
FF80
FF80
C0C0
C0C0
C0C0
C0C0
FF80
FF00
ENDCHAR
STARTCHAR LATIN
ENCODING -1
SWIDTH 480 0
DWIDTH 12 0
BBX 10 19 1 0
BITMAP
C000
C000
0000
C000
C000
C000
C000
C000
C000
FF00
FF80
C0C0
C0C0
C0C0
C0C0
C0C0
C0C0
FF80
FF00
ENDCHAR
STARTCHAR LATIN
ENCODING -1
SWIDTH 480 0
DWIDTH 12 0
BBX 10 18 1 0
BITMAP
0C00
0C00
0000
0000
FF00
FF80
C0C0
C0C0
C0C0
C0C0
C0C0
C0C0
C0C0
C0C0
C0C0
C0C0
FF80
FF00
ENDCHAR
STARTCHAR LATIN
ENCODING -1
SWIDTH 480 0
DWIDTH 12 0
BBX 10 19 1 0
BITMAP
00C0
00C0
0000
00C0
00C0
00C0
00C0
00C0
00C0
3FC0
7FC0
C0C0
C0C0
C0C0
C0C0
C0C0
C0C0
7FC0
3FC0
ENDCHAR
STARTCHAR LATIN
ENCODING -1
SWIDTH 480 0
DWIDTH 12 0
BBX 10 18 1 0
BITMAP
0C00
0C00
0000
0000
FFC0
FFC0
C000
C000
C000
C000
FC00
FC00
C000
C000
C000
C000
C000
C000
ENDCHAR
STARTCHAR LATIN
ENCODING -1
SWIDTH 480 0
DWIDTH 12 0
BBX 6 19 3 0
BITMAP
30
30
00
3C
7C
C0
C0
C0
C0
F0
F0
C0
C0
C0
C0
C0
C0
C0
C0
ENDCHAR
STARTCHAR LATIN
ENCODING -1
SWIDTH 480 0
DWIDTH 12 0
BBX 10 17 1 -3
BITMAP
C0C0
C0C0
C0C0
C0C0
C0C0
C0C0
FFC0
FFC0
C0C0
C0C0
C0C0
C0C0
C0C0
C0C0
0000
0C00
0C00
ENDCHAR
STARTCHAR LATIN
ENCODING -1
SWIDTH 480 0
DWIDTH 12 0
BBX 10 19 1 -3
BITMAP
C000
C000
C000
C000
C000
C000
FF00
FF80
C0C0
C0C0
C0C0
C0C0
C0C0
C0C0
C0C0
C0C0
0000
0C00
0C00
ENDCHAR
STARTCHAR LATIN
ENCODING -1
SWIDTH 480 0
DWIDTH 12 0
BBX 10 17 1 -3
BITMAP
C000
C000
C000
C000
C000
C000
C000
C000
C000
C000
C000
C000
FFC0
FFC0
0000
0C00
0C00
ENDCHAR
STARTCHAR LATIN
ENCODING -1
SWIDTH 480 0
DWIDTH 12 0
BBX 6 19 3 -3
BITMAP
C0
C0
C0
C0
C0
C0
C0
C0
C0
C0
C0
C0
C0
C0
7C
3C
00
30
30
ENDCHAR
STARTCHAR LATIN
ENCODING -1
SWIDTH 480 0
DWIDTH 12 0
BBX 10 18 1 0
BITMAP
0C00
0C00
0000
0000
8040
C0C0
E1C0
F3C0
DEC0
CCC0
C0C0
C0C0
C0C0
C0C0
C0C0
C0C0
C0C0
C0C0
ENDCHAR
STARTCHAR LATIN
ENCODING -1
SWIDTH 480 0
DWIDTH 12 0
BBX 10 14 1 0
BITMAP
0C00
0C00
0000
0000
F300
FF80
CCC0
CCC0
CCC0
CCC0
CCC0
CCC0
C0C0
C0C0
ENDCHAR
STARTCHAR LATIN
ENCODING -1
SWIDTH 480 0
DWIDTH 12 0
BBX 10 18 1 0
BITMAP
0C00
0C00
0000
0000
FF00
FF80
C0C0
C0C0
C0C0
C0C0
C0C0
C0C0
FF80
FF00
C000
C000
C000
C000
ENDCHAR
STARTCHAR LATIN
ENCODING -1
SWIDTH 480 0
DWIDTH 12 0
BBX 10 18 1 -4
BITMAP
0C00
0C00
0000
0000
FF00
FF80
C0C0
C0C0
C0C0
C0C0
C0C0
C0C0
FF80
FF00
C000
C000
C000
C000
ENDCHAR
STARTCHAR LATIN
ENCODING -1
SWIDTH 480 0
DWIDTH 12 0
BBX 10 18 1 0
BITMAP
0C00
0C00
0000
0000
3FC0
7FC0
C000
C000
C000
C000
7F00
3F80
00C0
00C0
00C0
00C0
FF80
FF00
ENDCHAR
STARTCHAR LATIN
ENCODING -1
SWIDTH 480 0
DWIDTH 12 0
BBX 10 14 1 0
BITMAP
0C00
0C00
0000
0000
3FC0
7FC0
C000
C000
7F00
3F80
00C0
00C0
FF80
FF00
ENDCHAR
STARTCHAR LATIN
ENCODING -1
SWIDTH 480 0
DWIDTH 12 0
BBX 10 18 1 0
BITMAP
0C00
0C00
0000
0000
FFC0
FFC0
0C00
0C00
0C00
0C00
0C00
0C00
0C00
0C00
0C00
0C00
0C00
0C00
ENDCHAR
STARTCHAR LATIN
ENCODING -1
SWIDTH 480 0
DWIDTH 12 0
BBX 8 19 2 0
BITMAP
30
30
00
30
30
30
30
30
30
FC
FC
30
30
30
30
30
30
1F
0F
ENDCHAR
STARTCHAR LATIN
ENCODING -1
SWIDTH 480 0
DWIDTH 12 0
BBX 10 20 1 0
BITMAP
6000
3000
1800
0C00
0000
0000
C0C0
C0C0
C0C0
C0C0
C0C0
C0C0
C0C0
C0C0
CCC0
DEC0
F3C0
E1C0
C0C0
8040
ENDCHAR
STARTCHAR LATIN
ENCODING -1
SWIDTH 480 0
DWIDTH 12 0
BBX 10 16 1 0
BITMAP
6000
3000
1800
0C00
0000
0000
C0C0
C0C0
C0C0
C0C0
CCC0
DEC0
F3C0
E1C0
C0C0
8040
ENDCHAR
STARTCHAR LATIN
ENCODING -1
SWIDTH 480 0
DWIDTH 12 0
BBX 10 20 1 0
BITMAP
0180
0300
0600
0C00
0000
0000
C0C0
C0C0
C0C0
C0C0
C0C0
C0C0
C0C0
C0C0
CCC0
DEC0
F3C0
E1C0
C0C0
8040
ENDCHAR
STARTCHAR LATIN
ENCODING -1
SWIDTH 480 0
DWIDTH 12 0
BBX 10 16 1 0
BITMAP
0180
0300
0600
0C00
0000
0000
C0C0
C0C0
C0C0
C0C0
CCC0
DEC0
F3C0
E1C0
C0C0
8040
ENDCHAR
STARTCHAR LATIN
ENCODING -1
SWIDTH 480 0
DWIDTH 12 0
BBX 10 18 1 0
BITMAP
3300
3300
0000
0000
C0C0
C0C0
C0C0
C0C0
C0C0
C0C0
C0C0
C0C0
CCC0
DEC0
F3C0
E1C0
C0C0
8040
ENDCHAR
STARTCHAR LATIN
ENCODING -1
SWIDTH 480 0
DWIDTH 12 0
BBX 10 14 1 0
BITMAP
3300
3300
0000
0000
C0C0
C0C0
C0C0
C0C0
CCC0
DEC0
F3C0
E1C0
C0C0
8040
ENDCHAR
STARTCHAR LATIN
ENCODING -1
SWIDTH 480 0
DWIDTH 12 0
BBX 10 18 1 0
BITMAP
0C00
0C00
0000
0000
C0C0
C0C0
C0C0
6180
3300
1E00
0C00
0C00
1E00
3300
6180
C0C0
C0C0
C0C0
ENDCHAR
STARTCHAR LATIN
ENCODING -1
SWIDTH 480 0
DWIDTH 12 0
BBX 10 14 1 0
BITMAP
0C00
0C00
0000
0000
C0C0
6180
3300
1E00
0C00
0C00
1E00
3300
6180
C0C0
ENDCHAR
STARTCHAR LATIN
ENCODING -1
SWIDTH 480 0
DWIDTH 12 0
BBX 10 18 1 -4
BITMAP
3F00
7F80
C0C0
C0C0
C0C0
C0C0
C0C0
C0C0
FFC0
FFC0
C0C0
C0C0
C0C0
C0C0
0000
0000
0C00
0C00
ENDCHAR
STARTCHAR LATIN
ENCODING -1
SWIDTH 480 0
DWIDTH 12 0
BBX 10 14 1 -4
BITMAP
3F00
3F80
00C0
00C0
3FC0
7FC0
C0C0
C0C0
7FC0
3FC0
0000
0000
0C00
0C00
ENDCHAR
STARTCHAR LATIN
ENCODING -1
SWIDTH 480 0
DWIDTH 12 0
BBX 10 20 1 0
BITMAP
3C00
3E00
0300
0300
0E00
0C00
3F00
7F80
C0C0
C0C0
C0C0
C0C0
C0C0
C0C0
FFC0
FFC0
C0C0
C0C0
C0C0
C0C0
ENDCHAR
STARTCHAR LATIN
ENCODING -1
SWIDTH 480 0
DWIDTH 12 0
BBX 10 18 1 0
BITMAP
3C00
3E00
0300
0300
0E00
0C00
0000
0000
3F00
3F80
00C0
00C0
3FC0
7FC0
C0C0
C0C0
7FC0
3FC0
ENDCHAR
STARTCHAR LATIN
ENCODING -1
SWIDTH 480 0
DWIDTH 12 0
BBX 10 20 1 0
BITMAP
00C0
1180
3B00
6C00
C600
0000
3F00
7F80
C0C0
C0C0
C0C0
C0C0
C0C0
C0C0
FFC0
FFC0
C0C0
C0C0
C0C0
C0C0
ENDCHAR
STARTCHAR LATIN
ENCODING -1
SWIDTH 480 0
DWIDTH 12 0
BBX 10 20 1 0
BITMAP
0180
0300
0600
0C00
0000
0C00
1E00
3300
6180
0000
3F00
3F80
00C0
00C0
3FC0
7FC0
C0C0
C0C0
7FC0
3FC0
ENDCHAR
STARTCHAR LATIN
ENCODING -1
SWIDTH 480 0
DWIDTH 12 0
BBX 10 20 1 0
BITMAP
C000
6200
3700
0D80
18C0
0000
3F00
7F80
C0C0
C0C0
C0C0
C0C0
C0C0
C0C0
FFC0
FFC0
C0C0
C0C0
C0C0
C0C0
ENDCHAR
STARTCHAR LATIN
ENCODING -1
SWIDTH 480 0
DWIDTH 12 0
BBX 10 20 1 0
BITMAP
6000
3000
1800
0C00
0000
0C00
1E00
3300
6180
0000
3F00
3F80
00C0
00C0
3FC0
7FC0
C0C0
C0C0
7FC0
3FC0
ENDCHAR
STARTCHAR LATIN
ENCODING -1
SWIDTH 480 0
DWIDTH 12 0
BBX 12 20 0 0
BITMAP
03C0
13E0
3830
6C30
C6E0
00C0
1F80
3FC0
6060
6060
6060
6060
6060
6060
7FE0
7FE0
6060
6060
6060
6060
ENDCHAR
STARTCHAR LATIN
ENCODING -1
SWIDTH 480 0
DWIDTH 12 0
BBX 10 20 1 0
BITMAP
3C00
3E00
0300
0300
0E00
0C00
1E00
3300
6180
0000
3F00
3F80
00C0
00C0
3FC0
7FC0
C0C0
C0C0
7FC0
3FC0
ENDCHAR
STARTCHAR LATIN
ENCODING -1
SWIDTH 480 0
DWIDTH 12 0
BBX 10 20 1 0
BITMAP
3D80
6F00
0C00
1E00
3300
6180
3F00
7F80
C0C0
C0C0
C0C0
C0C0
C0C0
C0C0
FFC0
FFC0
C0C0
C0C0
C0C0
C0C0
ENDCHAR
STARTCHAR LATIN
ENCODING -1
SWIDTH 480 0
DWIDTH 12 0
BBX 10 20 1 0
BITMAP
30C0
7CC0
CF80
C300
0000
0C00
1E00
3300
6180
0000
3F00
3F80
00C0
00C0
3FC0
7FC0
C0C0
C0C0
7FC0
3FC0
ENDCHAR
STARTCHAR LATIN
ENCODING -1
SWIDTH 480 0
DWIDTH 12 0
BBX 10 24 1 -4
BITMAP
0C00
1E00
3300
6180
0000
0000
3F00
7F80
C0C0
C0C0
C0C0
C0C0
C0C0
C0C0
FFC0
FFC0
C0C0
C0C0
C0C0
C0C0
0000
0000
0C00
0C00
ENDCHAR
STARTCHAR LATIN
ENCODING -1
SWIDTH 480 0
DWIDTH 12 0
BBX 10 20 1 -4
BITMAP
0C00
1E00
3300
6180
0000
0000
3F00
3F80
00C0
00C0
3FC0
7FC0
C0C0
C0C0
7FC0
3FC0
0000
0000
0C00
0C00
ENDCHAR
STARTCHAR LATIN
ENCODING -1
SWIDTH 480 0
DWIDTH 12 0
BBX 10 20 1 0
BITMAP
0300
0600
CCC0
7F80
3F00
0000
3F00
7F80
C0C0
C0C0
C0C0
C0C0
C0C0
C0C0
FFC0
FFC0
C0C0
C0C0
C0C0
C0C0
ENDCHAR
STARTCHAR LATIN
ENCODING -1
SWIDTH 480 0
DWIDTH 12 0
BBX 10 20 1 0
BITMAP
0180
0300
0600
0C00
0000
6180
3F00
1E00
0000
0000
3F00
3F80
00C0
00C0
3FC0
7FC0
C0C0
C0C0
7FC0
3FC0
ENDCHAR
STARTCHAR LATIN
ENCODING -1
SWIDTH 480 0
DWIDTH 12 0
BBX 10 20 1 0
BITMAP
3000
1800
CCC0
7F80
3F00
0000
3F00
7F80
C0C0
C0C0
C0C0
C0C0
C0C0
C0C0
FFC0
FFC0
C0C0
C0C0
C0C0
C0C0
ENDCHAR
STARTCHAR LATIN
ENCODING -1
SWIDTH 480 0
DWIDTH 12 0
BBX 10 20 1 0
BITMAP
6000
3000
1800
0C00
0000
6180
3F00
1E00
0000
0000
3F00
3F80
00C0
00C0
3FC0
7FC0
C0C0
C0C0
7FC0
3FC0
ENDCHAR
STARTCHAR LATIN
ENCODING -1
SWIDTH 480 0
DWIDTH 12 0
BBX 10 20 1 0
BITMAP
3C00
3E00
0300
0E00
CCC0
7F80
3F00
7F80
C0C0
C0C0
C0C0
C0C0
C0C0
C0C0
FFC0
FFC0
C0C0
C0C0
C0C0
C0C0
ENDCHAR
STARTCHAR LATIN
ENCODING -1
SWIDTH 480 0
DWIDTH 12 0
BBX 10 20 1 0
BITMAP
3C00
3E00
0300
0300
0E00
0C00
6180
3F00
1E00
0000
3F00
3F80
00C0
00C0
3FC0
7FC0
C0C0
C0C0
7FC0
3FC0
ENDCHAR
STARTCHAR LATIN
ENCODING -1
SWIDTH 480 0
DWIDTH 12 0
BBX 10 20 1 0
BITMAP
38C0
7CC0
CF80
C300
C0C0
7F80
3F00
7F80
C0C0
C0C0
C0C0
C0C0
C0C0
C0C0
FFC0
FFC0
C0C0
C0C0
C0C0
C0C0
ENDCHAR
STARTCHAR LATIN
ENCODING -1
SWIDTH 480 0
DWIDTH 12 0
BBX 10 20 1 0
BITMAP
30C0
7CC0
CF80
C300
0000
6180
3F00
1E00
0000
0000
3F00
3F80
00C0
00C0
3FC0
7FC0
C0C0
C0C0
7FC0
3FC0
ENDCHAR
STARTCHAR LATIN
ENCODING -1
SWIDTH 480 0
DWIDTH 12 0
BBX 10 23 1 -4
BITMAP
C0C0
7F80
3F00
0000
0000
3F00
7F80
C0C0
C0C0
C0C0
C0C0
C0C0
C0C0
FFC0
FFC0
C0C0
C0C0
C0C0
C0C0
0000
0000
0C00
0C00
ENDCHAR
STARTCHAR LATIN
ENCODING -1
SWIDTH 480 0
DWIDTH 12 0
BBX 10 19 1 -4
BITMAP
6180
3F00
1E00
0000
0000
3F00
3F80
00C0
00C0
3FC0
7FC0
C0C0
C0C0
7FC0
3FC0
0000
0000
0C00
0C00
ENDCHAR
STARTCHAR LATIN
ENCODING -1
SWIDTH 480 0
DWIDTH 12 0
BBX 10 18 1 -4
BITMAP
FFC0
FFC0
C000
C000
C000
C000
FC00
FC00
C000
C000
C000
C000
FFC0
FFC0
0000
0000
0C00
0C00
ENDCHAR
STARTCHAR LATIN
ENCODING -1
SWIDTH 480 0
DWIDTH 12 0
BBX 10 14 1 -4
BITMAP
3F00
7F80
C0C0
C0C0
FFC0
FFC0
C000
C000
7F00
3F00
0000
0000
0C00
0C00
ENDCHAR
STARTCHAR LATIN
ENCODING -1
SWIDTH 480 0
DWIDTH 12 0
BBX 10 20 1 0
BITMAP
3C00
3E00
0300
0300
0E00
0C00
FFC0
FFC0
C000
C000
C000
C000
FC00
FC00
C000
C000
C000
C000
FFC0
FFC0
ENDCHAR
STARTCHAR LATIN
ENCODING -1
SWIDTH 480 0
DWIDTH 12 0
BBX 10 18 1 0
BITMAP
3C00
3E00
0300
0300
0E00
0C00
0000
0000
3F00
7F80
C0C0
C0C0
FFC0
FFC0
C000
C000
7F00
3F00
ENDCHAR
STARTCHAR LATIN
ENCODING -1
SWIDTH 480 0
DWIDTH 12 0
BBX 10 20 1 0
BITMAP
30C0
7CC0
CF80
C300
0000
0000
FFC0
FFC0
C000
C000
C000
C000
FC00
FC00
C000
C000
C000
C000
FFC0
FFC0
ENDCHAR
STARTCHAR LATIN
ENCODING -1
SWIDTH 480 0
DWIDTH 12 0
BBX 10 16 1 0
BITMAP
30C0
7CC0
CF80
C300
0000
0000
3F00
7F80
C0C0
C0C0
FFC0
FFC0
C000
C000
7F00
3F00
ENDCHAR
STARTCHAR LATIN
ENCODING -1
SWIDTH 480 0
DWIDTH 12 0
BBX 10 20 1 0
BITMAP
00C0
1180
3B00
6C00
C600
0000
FFC0
FFC0
C000
C000
C000
C000
FC00
FC00
C000
C000
C000
C000
FFC0
FFC0
ENDCHAR
STARTCHAR LATIN
ENCODING -1
SWIDTH 480 0
DWIDTH 12 0
BBX 10 20 1 0
BITMAP
0180
0300
0600
0C00
0000
0C00
1E00
3300
6180
0000
3F00
7F80
C0C0
C0C0
FFC0
FFC0
C000
C000
7F00
3F00
ENDCHAR
STARTCHAR LATIN
ENCODING -1
SWIDTH 480 0
DWIDTH 12 0
BBX 10 20 1 0
BITMAP
C000
6200
3700
0D80
18C0
0000
FFC0
FFC0
C000
C000
C000
C000
FC00
FC00
C000
C000
C000
C000
FFC0
FFC0
ENDCHAR
STARTCHAR LATIN
ENCODING -1
SWIDTH 480 0
DWIDTH 12 0
BBX 10 20 1 0
BITMAP
6000
3000
1800
0C00
0000
0C00
1E00
3300
6180
0000
3F00
7F80
C0C0
C0C0
FFC0
FFC0
C000
C000
7F00
3F00
ENDCHAR
STARTCHAR LATIN
ENCODING -1
SWIDTH 480 0
DWIDTH 12 0
BBX 12 20 0 0
BITMAP
03C0
13E0
3830
6C30
C6E0
00C0
7FE0
7FE0
6000
6000
6000
6000
7E00
7E00
6000
6000
6000
6000
7FE0
7FE0
ENDCHAR
STARTCHAR LATIN
ENCODING -1
SWIDTH 480 0
DWIDTH 12 0
BBX 10 20 1 0
BITMAP
3C00
3E00
0300
0300
0E00
0C00
1E00
3300
6180
0000
3F00
7F80
C0C0
C0C0
FFC0
FFC0
C000
C000
7F00
3F00
ENDCHAR
STARTCHAR LATIN
ENCODING -1
SWIDTH 480 0
DWIDTH 12 0
BBX 10 20 1 0
BITMAP
3D80
6F00
0C00
1E00
3300
6180
FFC0
FFC0
C000
C000
C000
C000
FC00
FC00
C000
C000
C000
C000
FFC0
FFC0
ENDCHAR
STARTCHAR LATIN
ENCODING -1
SWIDTH 480 0
DWIDTH 12 0
BBX 10 20 1 0
BITMAP
30C0
7CC0
CF80
C300
0000
0C00
1E00
3300
6180
0000
3F00
7F80
C0C0
C0C0
FFC0
FFC0
C000
C000
7F00
3F00
ENDCHAR
STARTCHAR LATIN
ENCODING -1
SWIDTH 480 0
DWIDTH 12 0
BBX 10 24 1 -4
BITMAP
0C00
1E00
3300
6180
0000
0000
FFC0
FFC0
C000
C000
C000
C000
FC00
FC00
C000
C000
C000
C000
FFC0
FFC0
0000
0000
0C00
0C00
ENDCHAR
STARTCHAR LATIN
ENCODING -1
SWIDTH 480 0
DWIDTH 12 0
BBX 10 20 1 -4
BITMAP
0C00
1E00
3300
6180
0000
0000
3F00
7F80
C0C0
C0C0
FFC0
FFC0
C000
C000
7F00
3F00
0000
0000
0C00
0C00
ENDCHAR
STARTCHAR LATIN
ENCODING -1
SWIDTH 480 0
DWIDTH 12 0
BBX 6 20 3 0
BITMAP
F0
F8
0C
0C
38
30
78
78
30
30
30
30
30
30
30
30
30
30
78
78
ENDCHAR
STARTCHAR LATIN
ENCODING -1
SWIDTH 480 0
DWIDTH 12 0
BBX 6 18 3 0
BITMAP
F0
F8
0C
0C
38
30
00
00
70
70
30
30
30
30
30
30
30
30
ENDCHAR
STARTCHAR LATIN
ENCODING -1
SWIDTH 480 0
DWIDTH 12 0
BBX 4 18 4 -4
BITMAP
F0
F0
60
60
60
60
60
60
60
60
60
60
E0
F0
00
00
60
60
ENDCHAR
STARTCHAR LATIN
ENCODING -1
SWIDTH 480 0
DWIDTH 12 0
BBX 3 18 4 -4
BITMAP
60
60
00
00
E0
E0
60
60
60
60
60
60
60
60
00
00
60
60
ENDCHAR
STARTCHAR LATIN
ENCODING -1
SWIDTH 480 0
DWIDTH 12 0
BBX 10 18 1 -4
BITMAP
3F00
7F80
C0C0
C0C0
C0C0
C0C0
C0C0
C0C0
C0C0
C0C0
C0C0
C0C0
7F80
3F00
0000
0000
0C00
0C00
ENDCHAR
STARTCHAR LATIN
ENCODING -1
SWIDTH 480 0
DWIDTH 12 0
BBX 10 14 1 -4
BITMAP
3F00
7F80
C0C0
C0C0
C0C0
C0C0
C0C0
C0C0
7F80
3F00
0000
0000
0C00
0C00
ENDCHAR
STARTCHAR LATIN
ENCODING -1
SWIDTH 480 0
DWIDTH 12 0
BBX 10 20 1 0
BITMAP
3C00
3E00
0300
0300
0E00
0C00
3F00
7F80
C0C0
C0C0
C0C0
C0C0
C0C0
C0C0
C0C0
C0C0
C0C0
C0C0
7F80
3F00
ENDCHAR
STARTCHAR LATIN
ENCODING -1
SWIDTH 480 0
DWIDTH 12 0
BBX 10 18 1 0
BITMAP
3C00
3E00
0300
0300
0E00
0C00
0000
0000
3F00
7F80
C0C0
C0C0
C0C0
C0C0
C0C0
C0C0
7F80
3F00
ENDCHAR
STARTCHAR LATIN
ENCODING -1
SWIDTH 480 0
DWIDTH 12 0
BBX 10 20 1 0
BITMAP
00C0
1180
3B00
6C00
C600
0000
3F00
7F80
C0C0
C0C0
C0C0
C0C0
C0C0
C0C0
C0C0
C0C0
C0C0
C0C0
7F80
3F00
ENDCHAR
STARTCHAR LATIN
ENCODING -1
SWIDTH 480 0
DWIDTH 12 0
BBX 10 20 1 0
BITMAP
0180
0300
0600
0C00
0000
0C00
1E00
3300
6180
0000
3F00
7F80
C0C0
C0C0
C0C0
C0C0
C0C0
C0C0
7F80
3F00
ENDCHAR
STARTCHAR LATIN
ENCODING -1
SWIDTH 480 0
DWIDTH 12 0
BBX 10 20 1 0
BITMAP
C000
6200
3700
0D80
18C0
0000
3F00
7F80
C0C0
C0C0
C0C0
C0C0
C0C0
C0C0
C0C0
C0C0
C0C0
C0C0
7F80
3F00
ENDCHAR
STARTCHAR LATIN
ENCODING -1
SWIDTH 480 0
DWIDTH 12 0
BBX 10 20 1 0
BITMAP
6000
3000
1800
0C00
0000
0C00
1E00
3300
6180
0000
3F00
7F80
C0C0
C0C0
C0C0
C0C0
C0C0
C0C0
7F80
3F00
ENDCHAR
STARTCHAR LATIN
ENCODING -1
SWIDTH 480 0
DWIDTH 12 0
BBX 12 20 0 0
BITMAP
03C0
13E0
3830
6C30
C6E0
00C0
1F80
3FC0
6060
6060
6060
6060
6060
6060
6060
6060
6060
6060
3FC0
1F80
ENDCHAR
STARTCHAR LATIN
ENCODING -1
SWIDTH 480 0
DWIDTH 12 0
BBX 10 20 1 0
BITMAP
3C00
3E00
0300
0300
0E00
0C00
1E00
3300
6180
0000
3F00
7F80
C0C0
C0C0
C0C0
C0C0
C0C0
C0C0
7F80
3F00
ENDCHAR
STARTCHAR LATIN
ENCODING -1
SWIDTH 480 0
DWIDTH 12 0
BBX 10 20 1 0
BITMAP
3D80
6F00
0C00
1E00
3300
6180
3F00
7F80
C0C0
C0C0
C0C0
C0C0
C0C0
C0C0
C0C0
C0C0
C0C0
C0C0
7F80
3F00
ENDCHAR
STARTCHAR LATIN
ENCODING -1
SWIDTH 480 0
DWIDTH 12 0
BBX 10 20 1 0
BITMAP
30C0
7CC0
CF80
C300
0000
0C00
1E00
3300
6180
0000
3F00
7F80
C0C0
C0C0
C0C0
C0C0
C0C0
C0C0
7F80
3F00
ENDCHAR
STARTCHAR LATIN
ENCODING -1
SWIDTH 480 0
DWIDTH 12 0
BBX 10 24 1 -4
BITMAP
0C00
1E00
3300
6180
0000
0000
3F00
7F80
C0C0
C0C0
C0C0
C0C0
C0C0
C0C0
C0C0
C0C0
C0C0
C0C0
7F80
3F00
0000
0000
0C00
0C00
ENDCHAR
STARTCHAR LATIN
ENCODING -1
SWIDTH 480 0
DWIDTH 12 0
BBX 10 20 1 -4
BITMAP
0C00
1E00
3300
6180
0000
0000
3F00
7F80
C0C0
C0C0
C0C0
C0C0
C0C0
C0C0
7F80
3F00
0000
0000
0C00
0C00
ENDCHAR
STARTCHAR LATIN
ENCODING -1
SWIDTH 480 0
DWIDTH 12 0
BBX 12 20 0 0
BITMAP
0180
0300
0600
0C00
0000
0030
3F30
7FB0
C0F0
C0E0
C0C0
C0C0
C0C0
C0C0
C0C0
C0C0
C0C0
C0C0
7F80
3F00
ENDCHAR
STARTCHAR LATIN
ENCODING -1
SWIDTH 480 0
DWIDTH 12 0
BBX 12 16 0 0
BITMAP
0180
0300
0600
0C00
0000
0030
3F30
7FB0
C0F0
C0E0
C0C0
C0C0
C0C0
C0C0
7F80
3F00
ENDCHAR
STARTCHAR LATIN
ENCODING -1
SWIDTH 480 0
DWIDTH 12 0
BBX 12 20 0 0
BITMAP
6000
3000
1800
0C00
0000
0030
3F30
7FB0
C0F0
C0E0
C0C0
C0C0
C0C0
C0C0
C0C0
C0C0
C0C0
C0C0
7F80
3F00
ENDCHAR
STARTCHAR LATIN
ENCODING -1
SWIDTH 480 0
DWIDTH 12 0
BBX 12 16 0 0
BITMAP
6000
3000
1800
0C00
0000
0030
3F30
7FB0
C0F0
C0E0
C0C0
C0C0
C0C0
C0C0
7F80
3F00
ENDCHAR
STARTCHAR LATIN
ENCODING -1
SWIDTH 480 0
DWIDTH 12 0
BBX 12 20 0 0
BITMAP
3C00
3E00
0300
0300
0E00
0C30
3F30
7FB0
C0F0
C0E0
C0C0
C0C0
C0C0
C0C0
C0C0
C0C0
C0C0
C0C0
7F80
3F00
ENDCHAR
STARTCHAR LATIN
ENCODING -1
SWIDTH 480 0
DWIDTH 12 0
BBX 12 18 0 0
BITMAP
3C00
3E00
0300
0300
0E00
0C00
0000
0030
3F30
7FB0
C0F0
C0E0
C0C0
C0C0
C0C0
C0C0
7F80
3F00
ENDCHAR
STARTCHAR LATIN
ENCODING -1
SWIDTH 480 0
DWIDTH 12 0
BBX 12 20 0 0
BITMAP
30C0
7CC0
CF80
C300
0000
0030
3F30
7FB0
C0F0
C0E0
C0C0
C0C0
C0C0
C0C0
C0C0
C0C0
C0C0
C0C0
7F80
3F00
ENDCHAR
STARTCHAR LATIN
ENCODING -1
SWIDTH 480 0
DWIDTH 12 0
BBX 12 16 0 0
BITMAP
30C0
7CC0
CF80
C300
0000
0030
3F30
7FB0
C0F0
C0E0
C0C0
C0C0
C0C0
C0C0
7F80
3F00
ENDCHAR
STARTCHAR LATIN
ENCODING -1
SWIDTH 480 0
DWIDTH 12 0
BBX 12 19 0 -4
BITMAP
0030
3F30
7FB0
C0F0
C0E0
C0C0
C0C0
C0C0
C0C0
C0C0
C0C0
C0C0
C0C0
7F80
3F00
0000
0000
0C00
0C00
ENDCHAR
STARTCHAR LATIN
ENCODING -1
SWIDTH 480 0
DWIDTH 12 0
BBX 12 15 0 -4
BITMAP
0030
3F30
7FB0
C0F0
C0E0
C0C0
C0C0
C0C0
C0C0
7F80
3F00
0000
0000
0C00
0C00
ENDCHAR
STARTCHAR LATIN
ENCODING -1
SWIDTH 480 0
DWIDTH 12 0
BBX 10 18 1 -4
BITMAP
C0C0
C0C0
C0C0
C0C0
C0C0
C0C0
C0C0
C0C0
C0C0
C0C0
C0C0
C0C0
7F80
3F00
0000
0000
0C00
0C00
ENDCHAR
STARTCHAR LATIN
ENCODING -1
SWIDTH 480 0
DWIDTH 12 0
BBX 10 14 1 -4
BITMAP
C0C0
C0C0
C0C0
C0C0
C0C0
C0C0
C0C0
C0C0
7FC0
3FC0
0000
0000
0C00
0C00
ENDCHAR
STARTCHAR LATIN
ENCODING -1
SWIDTH 480 0
DWIDTH 12 0
BBX 10 20 1 0
BITMAP
3C00
3E00
0300
0300
0E00
0C00
C0C0
C0C0
C0C0
C0C0
C0C0
C0C0
C0C0
C0C0
C0C0
C0C0
C0C0
C0C0
7F80
3F00
ENDCHAR
STARTCHAR LATIN
ENCODING -1
SWIDTH 480 0
DWIDTH 12 0
BBX 10 18 1 0
BITMAP
3C00
3E00
0300
0300
0E00
0C00
0000
0000
C0C0
C0C0
C0C0
C0C0
C0C0
C0C0
C0C0
C0C0
7FC0
3FC0
ENDCHAR
STARTCHAR LATIN
ENCODING -1
SWIDTH 480 0
DWIDTH 12 0
BBX 12 20 0 0
BITMAP
0180
0300
0600
0C00
0000
0030
C0F0
C0F0
C0F0
C0E0
C0C0
C0C0
C0C0
C0C0
C0C0
C0C0
C0C0
C0C0
7F80
3F00
ENDCHAR
STARTCHAR LATIN
ENCODING -1
SWIDTH 480 0
DWIDTH 12 0
BBX 12 16 0 0
BITMAP
0180
0300
0600
0C00
0000
0030
C0F0
C0F0
C0F0
C0E0
C0C0
C0C0
C0C0
C0C0
7FC0
3FC0
ENDCHAR
STARTCHAR LATIN
ENCODING -1
SWIDTH 480 0
DWIDTH 12 0
BBX 12 20 0 0
BITMAP
6000
3000
1800
0C00
0000
0030
C0F0
C0F0
C0F0
C0E0
C0C0
C0C0
C0C0
C0C0
C0C0
C0C0
C0C0
C0C0
7F00
3F00
ENDCHAR
STARTCHAR LATIN
ENCODING -1
SWIDTH 480 0
DWIDTH 12 0
BBX 12 16 0 0
BITMAP
6000
3000
1800
0C00
0000
0030
C0F0
C0F0
C0F0
C0E0
C0C0
C0C0
C0C0
C0C0
7FC0
3FC0
ENDCHAR
STARTCHAR LATIN
ENCODING -1
SWIDTH 480 0
DWIDTH 12 0
BBX 12 20 0 0
BITMAP
3C00
3E00
0300
0300
0E00
0C30
C0F0
C0F0
C0F0
C0E0
C0C0
C0C0
C0C0
C0C0
C0C0
C0C0
C0C0
C0C0
7F00
3F00
ENDCHAR
STARTCHAR LATIN
ENCODING -1
SWIDTH 480 0
DWIDTH 12 0
BBX 12 18 0 0
BITMAP
3C00
3E00
0300
0300
0E00
0C00
0000
0030
C0F0
C0F0
C0F0
C0E0
C0C0
C0C0
C0C0
C0C0
7FC0
3FC0
ENDCHAR
STARTCHAR LATIN
ENCODING -1
SWIDTH 480 0
DWIDTH 12 0
BBX 12 20 0 0
BITMAP
30C0
7CC0
CF80
C300
0000
0030
C0F0
C0F0
C0F0
C0E0
C0C0
C0C0
C0C0
C0C0
C0C0
C0C0
C0C0
C0C0
7F80
3F00
ENDCHAR
STARTCHAR LATIN
ENCODING -1
SWIDTH 480 0
DWIDTH 12 0
BBX 12 16 0 0
BITMAP
30C0
7CC0
CF80
C300
0000
0030
C0F0
C0F0
C0F0
C0E0
C0C0
C0C0
C0C0
C0C0
7FC0
3FC0
ENDCHAR
STARTCHAR LATIN
ENCODING -1
SWIDTH 480 0
DWIDTH 12 0
BBX 12 19 0 -4
BITMAP
0030
C0F0
C0F0
C0F0
C0E0
C0C0
C0C0
C0C0
C0C0
C0C0
C0C0
C0C0
C0C0
7F80
3F00
0000
0000
0C00
0C00
ENDCHAR
STARTCHAR LATIN
ENCODING -1
SWIDTH 480 0
DWIDTH 12 0
BBX 12 15 0 -4
BITMAP
0030
C0F0
C0F0
C0F0
C0E0
C0C0
C0C0
C0C0
C0C0
7FC0
3FC0
0000
0000
0C00
0C00
ENDCHAR
STARTCHAR LATIN
ENCODING -1
SWIDTH 480 0
DWIDTH 12 0
BBX 10 20 1 0
BITMAP
6000
3000
1800
0C00
0000
0000
C0C0
C0C0
C0C0
C0C0
6180
3300
1E00
0C00
0C00
0C00
0C00
0C00
0C00
0C00
ENDCHAR
STARTCHAR LATIN
ENCODING -1
SWIDTH 480 0
DWIDTH 12 0
BBX 10 20 1 -4
BITMAP
6000
3000
1800
0C00
0000
0000
C0C0
C0C0
C0C0
C0C0
C0C0
C0C0
C0C0
C0C0
7FC0
3FC0
00C0
00C0
1F80
1F00
ENDCHAR
STARTCHAR LATIN
ENCODING -1
SWIDTH 480 0
DWIDTH 12 0
BBX 10 18 1 -4
BITMAP
C0C0
C0C0
C0C0
C0C0
6180
3300
1E00
0C00
0C00
0C00
0C00
0C00
0C00
0C00
0000
0000
0C00
0C00
ENDCHAR
STARTCHAR LATIN
ENCODING -1
SWIDTH 480 0
DWIDTH 12 0
BBX 10 14 1 -4
BITMAP
C0C0
C0C0
C0C0
C0C0
C0C0
C0C0
7FC0
3FC0
00C0
3F80
3F00
0000
0C00
0C00
ENDCHAR
STARTCHAR LATIN
ENCODING -1
SWIDTH 480 0
DWIDTH 12 0
BBX 10 20 1 0
BITMAP
3C00
3E00
0300
0300
0E00
0C00
C0C0
C0C0
C0C0
C0C0
6180
3300
1E00
0C00
0C00
0C00
0C00
0C00
0C00
0C00
ENDCHAR
STARTCHAR LATIN
ENCODING -1
SWIDTH 480 0
DWIDTH 12 0
BBX 10 22 1 -4
BITMAP
3C00
3E00
0300
0300
0E00
0C00
0000
0000
C0C0
C0C0
C0C0
C0C0
C0C0
C0C0
C0C0
C0C0
7FC0
3FC0
00C0
00C0
3F80
3F00
ENDCHAR
STARTCHAR LATIN
ENCODING -1
SWIDTH 480 0
DWIDTH 12 0
BBX 10 20 1 0
BITMAP
30C0
7CC0
CF80
C300
0000
0000
C0C0
C0C0
C0C0
C0C0
6180
3300
1E00
0C00
0C00
0C00
0C00
0C00
0C00
0C00
ENDCHAR
STARTCHAR LATIN
ENCODING -1
SWIDTH 480 0
DWIDTH 12 0
BBX 10 20 1 -4
BITMAP
30C0
7CC0
CF80
C300
0000
0000
C0C0
C0C0
C0C0
C0C0
C0C0
C0C0
C0C0
C0C0
7FC0
3FC0
00C0
00C0
1F80
1F00
ENDCHAR
STARTCHAR HYPHEN
ENCODING -1
SWIDTH 480 0
DWIDTH 12 0
BBX 6 2 3 6
BITMAP
FC
FC
ENDCHAR
STARTCHAR NON-BREAKING
ENCODING -1
SWIDTH 480 0
DWIDTH 12 0
BBX 6 2 3 6
BITMAP
FC
FC
ENDCHAR
STARTCHAR FIGURE
ENCODING -1
SWIDTH 480 0
DWIDTH 12 0
BBX 10 2 1 6
BITMAP
FFC0
FFC0
ENDCHAR
STARTCHAR EN
ENCODING -1
SWIDTH 480 0
DWIDTH 12 0
BBX 10 2 1 6
BITMAP
FFC0
FFC0
ENDCHAR
STARTCHAR EM
ENCODING -1
SWIDTH 480 0
DWIDTH 12 0
BBX 12 2 0 6
BITMAP
FFF0
FFF0
ENDCHAR
STARTCHAR HORIZONTAL
ENCODING -1
SWIDTH 480 0
DWIDTH 12 0
BBX 12 2 0 6
BITMAP
FFF0
FFF0
ENDCHAR
STARTCHAR DOUBLE
ENCODING -1
SWIDTH 480 0
DWIDTH 12 0
BBX 6 24 3 -4
BITMAP
CC
CC
CC
CC
CC
CC
CC
CC
CC
CC
CC
CC
CC
CC
CC
CC
CC
CC
CC
CC
CC
CC
CC
CC
ENDCHAR
STARTCHAR DOUBLE
ENCODING -1
SWIDTH 480 0
DWIDTH 12 0
BBX 10 5 1 -4
BITMAP
FFC0
FFC0
0000
FFC0
FFC0
ENDCHAR
STARTCHAR LEFT
ENCODING -1
SWIDTH 480 0
DWIDTH 12 0
BBX 4 5 5 12
BITMAP
30
60
C0
C0
C0
ENDCHAR
STARTCHAR RIGHT
ENCODING -1
SWIDTH 480 0
DWIDTH 12 0
BBX 4 5 3 12
BITMAP
30
30
30
60
C0
ENDCHAR
STARTCHAR SINGLE
ENCODING -1
SWIDTH 480 0
DWIDTH 12 0
BBX 4 5 3 -3
BITMAP
30
30
30
60
C0
ENDCHAR
STARTCHAR SINGLE
ENCODING -1
SWIDTH 480 0
DWIDTH 12 0
BBX 4 5 5 12
BITMAP
C0
C0
C0
60
30
ENDCHAR
STARTCHAR LEFT
ENCODING -1
SWIDTH 480 0
DWIDTH 12 0
BBX 8 5 3 12
BITMAP
33
66
CC
CC
CC
ENDCHAR
STARTCHAR RIGHT
ENCODING -1
SWIDTH 480 0
DWIDTH 12 0
BBX 8 5 1 12
BITMAP
33
33
33
66
CC
ENDCHAR
STARTCHAR DOUBLE
ENCODING -1
SWIDTH 480 0
DWIDTH 12 0
BBX 8 5 1 -3
BITMAP
33
33
33
66
CC
ENDCHAR
STARTCHAR DOUBLE
ENCODING -1
SWIDTH 480 0
DWIDTH 12 0
BBX 8 5 3 12
BITMAP
CC
CC
CC
66
33
ENDCHAR
STARTCHAR DAGGER
ENCODING -1
SWIDTH 480 0
DWIDTH 12 0
BBX 10 16 1 0
BITMAP
0C00
0C00
0C00
0C00
FFC0
FFC0
0C00
0C00
0C00
0C00
0C00
0C00
0C00
0C00
0C00
0C00
ENDCHAR
STARTCHAR DOUBLE
ENCODING -1
SWIDTH 480 0
DWIDTH 12 0
BBX 10 16 1 0
BITMAP
0C00
0C00
0C00
0C00
FFC0
FFC0
0C00
0C00
0C00
0C00
FFC0
FFC0
0C00
0C00
0C00
0C00
ENDCHAR
STARTCHAR BULLET
ENCODING -1
SWIDTH 480 0
DWIDTH 12 0
BBX 8 8 2 4
BITMAP
3C
7E
FF
FF
FF
FF
7E
3C
ENDCHAR
STARTCHAR TRIANGULAR
ENCODING -1
SWIDTH 480 0
DWIDTH 12 0
BBX 5 9 4 3
BITMAP
80
C0
E0
F0
F8
F0
E0
C0
80
ENDCHAR
STARTCHAR ONE
ENCODING -1
SWIDTH 480 0
DWIDTH 12 0
BBX 2 2 5 0
BITMAP
C0
C0
ENDCHAR
STARTCHAR TWO
ENCODING -1
SWIDTH 480 0
DWIDTH 12 0
BBX 6 2 3 0
BITMAP
CC
CC
ENDCHAR
STARTCHAR HORIZONTAL
ENCODING -1
SWIDTH 480 0
DWIDTH 12 0
BBX 10 2 1 0
BITMAP
CCC0
CCC0
ENDCHAR
STARTCHAR HYPHENATION
ENCODING -1
SWIDTH 480 0
DWIDTH 12 0
BBX 2 2 5 6
BITMAP
C0
C0
ENDCHAR
STARTCHAR PER
ENCODING -1
SWIDTH 480 0
DWIDTH 12 0
BBX 12 14 0 0
BITMAP
3000
7800
CC00
CC40
79C0
3780
1E00
7800
ECC0
9FE0
3330
3330
1FE0
0CC0
ENDCHAR
STARTCHAR PER
ENCODING -1
SWIDTH 480 0
DWIDTH 12 0
BBX 12 14 0 0
BITMAP
3000
7800
CC00
CC40
79C0
3780
1E00
7800
F240
BFE0
6DB0
6DB0
3FE0
1240
ENDCHAR
STARTCHAR PRIME
ENCODING -1
SWIDTH 480 0
DWIDTH 12 0
BBX 6 5 3 10
BITMAP
0C
18
30
60
C0
ENDCHAR
STARTCHAR DOUBLE
ENCODING -1
SWIDTH 480 0
DWIDTH 12 0
BBX 10 5 1 10
BITMAP
0CC0
1980
3300
6600
CC00
ENDCHAR
STARTCHAR TRIPLE
ENCODING -1
SWIDTH 480 0
DWIDTH 12 0
BBX 12 5 0 10
BITMAP
0DB0
1B60
36C0
6D80
DB00
ENDCHAR
STARTCHAR REVERSED
ENCODING -1
SWIDTH 480 0
DWIDTH 12 0
BBX 6 5 6 10
BITMAP
C0
60
30
18
0C
ENDCHAR
STARTCHAR REVERSED
ENCODING -1
SWIDTH 480 0
DWIDTH 12 0
BBX 10 5 2 10
BITMAP
CC00
6600
3300
1980
0CC0
ENDCHAR
STARTCHAR REVERSED
ENCODING -1
SWIDTH 480 0
DWIDTH 12 0
BBX 12 5 0 10
BITMAP
DB00
6D80
36C0
1B60
0DB0
ENDCHAR
STARTCHAR CARET
ENCODING -1
SWIDTH 480 0
DWIDTH 12 0
BBX 10 5 1 -4
BITMAP
0C00
1E00
3300
6180
C0C0
ENDCHAR
STARTCHAR SINGLE
ENCODING -1
SWIDTH 480 0
DWIDTH 12 0
BBX 6 10 3 0
BITMAP
0C
18
30
60
C0
C0
60
30
18
0C
ENDCHAR
STARTCHAR SINGLE
ENCODING -1
SWIDTH 480 0
DWIDTH 12 0
BBX 6 10 3 0
BITMAP
C0
60
30
18
0C
0C
18
30
60
C0
ENDCHAR
STARTCHAR DOUBLE
ENCODING -1
SWIDTH 480 0
DWIDTH 12 0
BBX 6 14 3 0
BITMAP
CC
CC
CC
CC
CC
CC
CC
CC
CC
CC
00
00
CC
CC
ENDCHAR
STARTCHAR INTERROBANG
ENCODING -1
SWIDTH 480 0
DWIDTH 12 0
BBX 10 14 1 0
BITMAP
FF00
FF80
0CC0
0CC0
0CC0
0D80
0F00
0E00
0C00
0C00
0000
0000
0C00
0C00
ENDCHAR
STARTCHAR OVERLINE
ENCODING -1
SWIDTH 480 0
DWIDTH 12 0
BBX 10 2 1 16
BITMAP
FFC0
FFC0
ENDCHAR
STARTCHAR UNDERTIE
ENCODING -1
SWIDTH 480 0
DWIDTH 12 0
BBX 10 4 1 -4
BITMAP
C0C0
C0C0
7F80
3F00
ENDCHAR
STARTCHAR CHARACTER
ENCODING -1
SWIDTH 480 0
DWIDTH 12 0
BBX 10 4 1 16
BITMAP
3F00
7F80
C0C0
C0C0
ENDCHAR
STARTCHAR CARET
ENCODING -1
SWIDTH 480 0
DWIDTH 12 0
BBX 10 9 1 -4
BITMAP
00C0
0180
0300
0600
0C00
1E00
3300
6180
C0C0
ENDCHAR
STARTCHAR ASTERISM
ENCODING -1
SWIDTH 480 0
DWIDTH 12 0
BBX 12 11 0 1
BITMAP
1980
0F00
0600
0F00
1980
0000
CF30
79E0
30C0
79E0
CF30
ENDCHAR
STARTCHAR HYPHEN
ENCODING -1
SWIDTH 480 0
DWIDTH 12 0
BBX 6 4 3 4
BITMAP
FC
FC
FC
FC
ENDCHAR
STARTCHAR FRACTION
ENCODING -1
SWIDTH 480 0
DWIDTH 12 0
BBX 10 10 1 0
BITMAP
0040
00C0
0180
0300
0600
0C00
1800
3000
6000
C000
ENDCHAR
STARTCHAR LEFT
ENCODING -1
SWIDTH 480 0
DWIDTH 12 0
BBX 4 22 5 -4
BITMAP
F0
F0
C0
C0
C0
C0
C0
C0
C0
C0
F0
F0
C0
C0
C0
C0
C0
C0
C0
C0
F0
F0
ENDCHAR
STARTCHAR RIGHT
ENCODING -1
SWIDTH 480 0
DWIDTH 12 0
BBX 4 22 3 -4
BITMAP
F0
F0
30
30
30
30
30
30
30
30
F0
F0
30
30
30
30
30
30
30
30
F0
F0
ENDCHAR
STARTCHAR DOUBLE
ENCODING -1
SWIDTH 480 0
DWIDTH 12 0
BBX 12 14 0 0
BITMAP
FBC0
FDE0
0630
0630
0630
0630
0C60
18C0
3180
3180
0000
0000
3180
3180
ENDCHAR
STARTCHAR QUESTION
ENCODING -1
SWIDTH 480 0
DWIDTH 12 0
BBX 12 14 0 0
BITMAP
FE30
FF30
01B0
01B0
01B0
0330
0630
0C30
1830
1830
0000
0000
1830
1830
ENDCHAR
STARTCHAR EXCLAMATION
ENCODING -1
SWIDTH 480 0
DWIDTH 12 0
BBX 12 14 0 0
BITMAP
DFC0
DFE0
C030
C030
C030
C060
C0C0
C180
C300
C300
0000
0000
C300
C300
ENDCHAR
STARTCHAR TIRONIAN
ENCODING -1
SWIDTH 480 0
DWIDTH 12 0
BBX 10 9 1 -4
BITMAP
FFC0
FFC0
00C0
0180
0300
0600
0C00
1800
3000
ENDCHAR
STARTCHAR REVERSED
ENCODING -1
SWIDTH 480 0
DWIDTH 12 0
BBX 10 16 1 0
BITMAP
FF00
FF80
CFC0
CFC0
CFC0
CFC0
CFC0
CFC0
CF80
CF00
CC00
CC00
CC00
CC00
CC00
CC00
ENDCHAR
STARTCHAR BLACK
ENCODING -1
SWIDTH 480 0
DWIDTH 12 0
BBX 10 6 1 4
BITMAP
3EC0
7EC0
FEC0
FEC0
7EC0
3EC0
ENDCHAR
STARTCHAR BLACK
ENCODING -1
SWIDTH 480 0
DWIDTH 12 0
BBX 10 6 1 4
BITMAP
DF00
DF80
DFC0
DFC0
DF80
DF00
ENDCHAR
STARTCHAR LOW
ENCODING -1
SWIDTH 480 0
DWIDTH 12 0
BBX 10 10 1 -4
BITMAP
6180
3300
1E00
0C00
FFC0
FFC0
0C00
1E00
3300
6180
ENDCHAR
STARTCHAR REVERSED
ENCODING -1
SWIDTH 480 0
DWIDTH 12 0
BBX 4 12 5 -2
BITMAP
C0
C0
00
00
00
00
00
00
C0
C0
60
30
ENDCHAR
STARTCHAR CLOSE
ENCODING -1
SWIDTH 480 0
DWIDTH 12 0
BBX 10 24 1 -4
BITMAP
3F00
7F80
C0C0
C0C0
0000
0000
0000
0000
0000
0000
0000
0000
0000
0000
0000
0000
0000
0000
0000
0000
C0C0
C0C0
7F80
3F00
ENDCHAR
STARTCHAR TWO
ENCODING -1
SWIDTH 480 0
DWIDTH 12 0
BBX 10 22 1 -4
BITMAP
6180
3300
1E00
0C00
FFC0
FFC0
0C00
1E00
3300
6180
0000
0000
6180
3300
1E00
0C00
FFC0
FFC0
0C00
1E00
3300
6180
ENDCHAR
STARTCHAR COMMERCIAL
ENCODING -1
SWIDTH 480 0
DWIDTH 12 0
BBX 10 14 1 0
BITMAP
7000
F800
F8C0
F9C0
7380
0700
0E00
1C00
3800
7380
E7C0
C7C0
07C0
0380
ENDCHAR
STARTCHAR SWUNG
ENCODING -1
SWIDTH 480 0
DWIDTH 12 0
BBX 12 4 0 6
BITMAP
3C30
7E30
C7E0
C3C0
ENDCHAR
STARTCHAR INVERTED
ENCODING -1
SWIDTH 480 0
DWIDTH 12 0
BBX 10 4 1 -4
BITMAP
3F00
7F80
C0C0
C0C0
ENDCHAR
STARTCHAR FLOWER
ENCODING -1
SWIDTH 480 0
DWIDTH 12 0
BBX 10 14 1 0
BITMAP
0C00
0C00
CCC0
EDC0
7F80
3F00
FFC0
FFC0
3F00
7F80
EDC0
CCC0
0C00
0C00
ENDCHAR
STARTCHAR THREE
ENCODING -1
SWIDTH 480 0
DWIDTH 12 0
BBX 10 10 1 0
BITMAP
00C0
00C0
0000
0000
C000
C000
0000
0000
00C0
00C0
ENDCHAR
STARTCHAR QUADRUPLE
ENCODING -1
SWIDTH 480 0
DWIDTH 12 0
BBX 12 6 0 10
BITMAP
1B60
36D0
6DB0
DB60
B6C0
6D80
ENDCHAR
STARTCHAR FOUR
ENCODING -1
SWIDTH 480 0
DWIDTH 12 0
BBX 10 10 1 0
BITMAP
0C00
0C00
0000
0000
C0C0
C0C0
0000
0000
0C00
0C00
ENDCHAR
STARTCHAR FIVE
ENCODING -1
SWIDTH 480 0
DWIDTH 12 0
BBX 10 10 1 0
BITMAP
C0C0
C0C0
0000
0000
0C00
0C00
0000
0000
C0C0
C0C0
ENDCHAR
STARTCHAR TWO
ENCODING -1
SWIDTH 480 0
DWIDTH 12 0
BBX 2 10 5 0
BITMAP
C0
C0
00
00
00
00
00
00
C0
C0
ENDCHAR
STARTCHAR FOUR
ENCODING -1
SWIDTH 480 0
DWIDTH 12 0
BBX 10 14 1 -2
BITMAP
0C00
0C00
0000
0000
0000
0000
C0C0
C0C0
0000
0000
0000
0000
0C00
0C00
ENDCHAR
STARTCHAR DOTTED
ENCODING -1
SWIDTH 480 0
DWIDTH 12 0
BBX 10 10 1 0
BITMAP
CCC0
CCC0
0C00
0C00
FFC0
FFC0
0C00
0C00
CCC0
CCC0
ENDCHAR
STARTCHAR TRICOLON
ENCODING -1
SWIDTH 480 0
DWIDTH 12 0
BBX 2 10 5 0
BITMAP
C0
C0
00
00
C0
C0
00
00
C0
C0
ENDCHAR
STARTCHAR VERTICAL
ENCODING -1
SWIDTH 480 0
DWIDTH 12 0
BBX 2 14 5 0
BITMAP
C0
C0
00
00
C0
C0
00
00
C0
C0
00
00
C0
C0
ENDCHAR
STARTCHAR FUNCTION
ENCODING -1
SWIDTH 480 0
DWIDTH 12 0
BBX 12 18 0 -2
BITMAP
3C00
7C00
C000
C000
C140
C360
F630
F630
C630
C630
C630
C630
C630
C630
C630
C630
0360
0140
ENDCHAR
STARTCHAR INVISIBLE
ENCODING -1
SWIDTH 480 0
DWIDTH 12 0
BBX 10 10 1 2
BITMAP
4080
E1C0
7380
3F00
1E00
1E00
3F00
7380
E1C0
4080
ENDCHAR
STARTCHAR INVISIBLE
ENCODING -1
SWIDTH 480 0
DWIDTH 12 0
BBX 4 4 3 -4
BITMAP
30
30
60
C0
ENDCHAR
STARTCHAR INVISIBLE
ENCODING -1
SWIDTH 480 0
DWIDTH 12 0
BBX 10 10 1 2
BITMAP
0C00
0C00
0C00
0C00
FFC0
FFC0
0C00
0C00
0C00
0C00
ENDCHAR
STARTCHAR SUPERSCRIPT
ENCODING -1
SWIDTH 480 0
DWIDTH 12 0
BBX 10 14 1 6
BITMAP
3F00
7F80
C0C0
C0C0
C1C0
C2C0
C4C0
C8C0
D0C0
E0C0
C0C0
C0C0
7F80
3F00
ENDCHAR
STARTCHAR SUPERSCRIPT
ENCODING -1
SWIDTH 480 0
DWIDTH 12 0
BBX 3 14 4 6
BITMAP
60
60
00
00
E0
E0
60
60
60
60
60
60
60
60
ENDCHAR
STARTCHAR SUPERSCRIPT
ENCODING -1
SWIDTH 480 0
DWIDTH 12 0
BBX 10 14 1 6
BITMAP
0040
00C0
01C0
03C0
06C0
0CC0
18C0
30C0
7FC0
FFC0
00C0
00C0
00C0
00C0
ENDCHAR
STARTCHAR SUPERSCRIPT
ENCODING -1
SWIDTH 480 0
DWIDTH 12 0
BBX 10 14 1 6
BITMAP
FFC0
FFC0
C000
C000
FF00
FF80
00C0
00C0
00C0
00C0
00C0
00C0
FF80
FF00
ENDCHAR
STARTCHAR SUPERSCRIPT
ENCODING -1
SWIDTH 480 0
DWIDTH 12 0
BBX 10 14 1 6
BITMAP
3F00
7F00
C000
C000
FF00
FF80
C0C0
C0C0
C0C0
C0C0
C0C0
C0C0
7F80
3F00
ENDCHAR
STARTCHAR SUPERSCRIPT
ENCODING -1
SWIDTH 480 0
DWIDTH 12 0
BBX 10 14 1 6
BITMAP
FFC0
FFC0
00C0
00C0
00C0
0180
0300
0600
0C00
0C00
0C00
0C00
0C00
0C00
ENDCHAR
STARTCHAR SUPERSCRIPT
ENCODING -1
SWIDTH 480 0
DWIDTH 12 0
BBX 10 14 1 6
BITMAP
3F00
7F80
C0C0
C0C0
C0C0
C0C0
7F80
7F80
C0C0
C0C0
C0C0
C0C0
7F80
3F00
ENDCHAR
STARTCHAR SUPERSCRIPT
ENCODING -1
SWIDTH 480 0
DWIDTH 12 0
BBX 10 14 1 6
BITMAP
3F00
7F80
C0C0
C0C0
C0C0
C0C0
C0C0
C0C0
7FC0
3FC0
00C0
00C0
3F80
3F00
ENDCHAR
STARTCHAR SUPERSCRIPT
ENCODING -1
SWIDTH 480 0
DWIDTH 12 0
BBX 10 10 1 8
BITMAP
0C00
0C00
0C00
0C00
FFC0
FFC0
0C00
0C00
0C00
0C00
ENDCHAR
STARTCHAR SUPERSCRIPT
ENCODING -1
SWIDTH 480 0
DWIDTH 12 0
BBX 10 2 1 12
BITMAP
FFC0
FFC0
ENDCHAR
STARTCHAR SUPERSCRIPT
ENCODING -1
SWIDTH 480 0
DWIDTH 12 0
BBX 10 6 1 10
BITMAP
FFC0
FFC0
0000
0000
FFC0
FFC0
ENDCHAR
STARTCHAR SUPERSCRIPT
ENCODING -1
SWIDTH 480 0
DWIDTH 12 0
BBX 4 14 5 6
BITMAP
30
60
C0
C0
C0
C0
C0
C0
C0
C0
C0
C0
60
30
ENDCHAR
STARTCHAR SUPERSCRIPT
ENCODING -1
SWIDTH 480 0
DWIDTH 12 0
BBX 4 14 3 6
BITMAP
C0
60
30
30
30
30
30
30
30
30
30
30
60
C0
ENDCHAR
STARTCHAR SUBSCRIPT
ENCODING -1
SWIDTH 480 0
DWIDTH 12 0
BBX 10 14 1 -4
BITMAP
3F00
7F80
C0C0
C0C0
C1C0
C2C0
C4C0
C8C0
D0C0
E0C0
C0C0
C0C0
7F80
3F00
ENDCHAR
STARTCHAR SUBSCRIPT
ENCODING -1
SWIDTH 480 0
DWIDTH 12 0
BBX 6 14 3 -4
BITMAP
04
0C
1C
3C
6C
CC
0C
0C
0C
0C
0C
0C
0C
0C
ENDCHAR
STARTCHAR SUBSCRIPT
ENCODING -1
SWIDTH 480 0
DWIDTH 12 0
BBX 10 14 1 -4
BITMAP
FF00
FF80
00C0
00C0
00C0
00C0
0180
0300
0600
0C00
1800
3000
7FC0
FFC0
ENDCHAR
STARTCHAR SUBSCRIPT
ENCODING -1
SWIDTH 480 0
DWIDTH 12 0
BBX 10 14 1 -4
BITMAP
FF00
FF80
00C0
00C0
00C0
00C0
0F80
0F80
00C0
00C0
00C0
00C0
FF80
FF00
ENDCHAR
STARTCHAR SUBSCRIPT
ENCODING -1
SWIDTH 480 0
DWIDTH 12 0
BBX 10 14 1 -4
BITMAP
0040
00C0
01C0
03C0
06C0
0CC0
18C0
30C0
7FC0
FFC0
00C0
00C0
00C0
00C0
ENDCHAR
STARTCHAR SUBSCRIPT
ENCODING -1
SWIDTH 480 0
DWIDTH 12 0
BBX 10 14 1 -4
BITMAP
FFC0
FFC0
C000
C000
FF00
FF80
00C0
00C0
00C0
00C0
00C0
00C0
FF80
FF00
ENDCHAR
STARTCHAR SUBSCRIPT
ENCODING -1
SWIDTH 480 0
DWIDTH 12 0
BBX 10 14 1 -4
BITMAP
3F00
7F00
C000
C000
FF00
FF80
C0C0
C0C0
C0C0
C0C0
C0C0
C0C0
7F80
3F00
ENDCHAR
STARTCHAR SUBSCRIPT
ENCODING -1
SWIDTH 480 0
DWIDTH 12 0
BBX 10 14 1 -4
BITMAP
FFC0
FFC0
00C0
00C0
00C0
0180
0300
0600
0C00
0C00
0C00
0C00
0C00
0C00
ENDCHAR
STARTCHAR SUBSCRIPT
ENCODING -1
SWIDTH 480 0
DWIDTH 12 0
BBX 10 14 1 -4
BITMAP
3F00
7F80
C0C0
C0C0
C0C0
C0C0
7F80
7F80
C0C0
C0C0
C0C0
C0C0
7F80
3F00
ENDCHAR
STARTCHAR SUBSCRIPT
ENCODING -1
SWIDTH 480 0
DWIDTH 12 0
BBX 10 14 1 -4
BITMAP
3F00
7F80
C0C0
C0C0
C0C0
C0C0
C0C0
C0C0
7FC0
3FC0
00C0
00C0
3F80
3F00
ENDCHAR
STARTCHAR SUBSCRIPT
ENCODING -1
SWIDTH 480 0
DWIDTH 12 0
BBX 10 10 1 -2
BITMAP
0C00
0C00
0C00
0C00
FFC0
FFC0
0C00
0C00
0C00
0C00
ENDCHAR
STARTCHAR SUBSCRIPT
ENCODING -1
SWIDTH 480 0
DWIDTH 12 0
BBX 10 2 1 2
BITMAP
FFC0
FFC0
ENDCHAR
STARTCHAR SUBSCRIPT
ENCODING -1
SWIDTH 480 0
DWIDTH 12 0
BBX 10 6 1 0
BITMAP
FFC0
FFC0
0000
0000
FFC0
FFC0
ENDCHAR
STARTCHAR SUBSCRIPT
ENCODING -1
SWIDTH 480 0
DWIDTH 12 0
BBX 4 14 5 -4
BITMAP
30
60
C0
C0
C0
C0
C0
C0
C0
C0
C0
C0
60
30
ENDCHAR
STARTCHAR SUBSCRIPT
ENCODING -1
SWIDTH 480 0
DWIDTH 12 0
BBX 4 14 3 -4
BITMAP
C0
60
30
30
30
30
30
30
30
30
30
30
60
C0
ENDCHAR
STARTCHAR LATIN
ENCODING -1
SWIDTH 480 0
DWIDTH 12 0
BBX 10 10 1 -4
BITMAP
3F00
3F80
00C0
00C0
3FC0
7FC0
C0C0
C0C0
7FC0
3FC0
ENDCHAR
STARTCHAR LATIN
ENCODING -1
SWIDTH 480 0
DWIDTH 12 0
BBX 10 10 1 -4
BITMAP
3F00
7F80
C0C0
C0C0
FFC0
FFC0
C000
C000
7F00
3F00
ENDCHAR
STARTCHAR LATIN
ENCODING -1
SWIDTH 480 0
DWIDTH 12 0
BBX 10 10 1 -4
BITMAP
3F00
7F80
C0C0
C0C0
C0C0
C0C0
C0C0
C0C0
7F80
3F00
ENDCHAR
STARTCHAR LATIN
ENCODING -1
SWIDTH 480 0
DWIDTH 12 0
BBX 10 10 1 -4
BITMAP
C0C0
6180
3300
1E00
0C00
0C00
1E00
3300
6180
C0C0
ENDCHAR
STARTCHAR LATIN
ENCODING -1
SWIDTH 480 0
DWIDTH 12 0
BBX 10 10 1 -4
BITMAP
3F00
3F80
00C0
00C0
FFC0
FFC0
C0C0
C0C0
7F80
3F00
ENDCHAR
STARTCHAR LATIN
ENCODING -1
SWIDTH 480 0
DWIDTH 12 0
BBX 10 14 2 -4
BITMAP
C000
C000
C000
C000
C000
FF00
FF80
C0C0
C0C0
C0C0
C0C0
C0C0
C0C0
C0C0
ENDCHAR
STARTCHAR LATIN
ENCODING -1
SWIDTH 480 0
DWIDTH 12 0
BBX 8 14 2 -4
BITMAP
C0
C0
C0
C0
C3
C6
CC
D8
F0
F0
D8
CC
C6
C3
ENDCHAR
STARTCHAR LATIN
ENCODING -1
SWIDTH 480 0
DWIDTH 12 0
BBX 6 14 3 -4
BITMAP
C0
C0
C0
C0
C0
C0
C0
C0
C0
C0
C0
C0
7C
3C
ENDCHAR
STARTCHAR LATIN
ENCODING -1
SWIDTH 480 0
DWIDTH 12 0
BBX 10 10 1 -4
BITMAP
F300
FF80
CCC0
CCC0
CCC0
CCC0
CCC0
CCC0
C0C0
C0C0
ENDCHAR
STARTCHAR LATIN
ENCODING -1
SWIDTH 480 0
DWIDTH 12 0
BBX 10 10 1 -4
BITMAP
FF00
FF80
C0C0
C0C0
C0C0
C0C0
C0C0
C0C0
C0C0
C0C0
ENDCHAR
STARTCHAR LATIN
ENCODING -1
SWIDTH 480 0
DWIDTH 12 0
BBX 10 10 1 -4
BITMAP
FF00
FF80
C0C0
C0C0
C0C0
FF80
FF00
C000
C000
C000
ENDCHAR
STARTCHAR LATIN
ENCODING -1
SWIDTH 480 0
DWIDTH 12 0
BBX 10 10 1 -4
BITMAP
3FC0
7FC0
C000
C000
7F00
3F80
00C0
00C0
FF80
FF00
ENDCHAR
STARTCHAR LATIN
ENCODING -1
SWIDTH 480 0
DWIDTH 12 0
BBX 8 14 2 -4
BITMAP
30
30
30
30
30
FC
FC
30
30
30
30
30
1F
0F
ENDCHAR
STARTCHAR COLON
ENCODING -1
SWIDTH 480 0
DWIDTH 12 0
BBX 10 18 1 -2
BITMAP
0CC0
0CC0
3FC0
7FC0
CCC0
CCC0
D980
D980
D980
D980
D980
D980
F300
F300
7FC0
3FC0
3300
3300
ENDCHAR
STARTCHAR MILL
ENCODING -1
SWIDTH 480 0
DWIDTH 12 0
BBX 10 18 1 -4
BITMAP
0300
0300
0300
0300
F700
FF80
CEC0
CEC0
CCC0
CCC0
DCC0
DCC0
DCC0
D8C0
3000
3000
3000
3000
ENDCHAR
STARTCHAR NAIRA
ENCODING -1
SWIDTH 480 0
DWIDTH 12 0
BBX 10 14 1 0
BITMAP
C0C0
C0C0
C0C0
FFC0
FFC0
D8C0
CCC0
C6C0
C3C0
FFC0
FFC0
C0C0
C0C0
C0C0
ENDCHAR
STARTCHAR RUPEE
ENCODING -1
SWIDTH 480 0
DWIDTH 12 0
BBX 10 14 1 0
BITMAP
FFC0
FFC0
0300
0300
FFC0
FFC0
0600
0C00
1800
3000
1800
0C00
0600
0300
ENDCHAR
STARTCHAR WON
ENCODING -1
SWIDTH 480 0
DWIDTH 12 0
BBX 10 14 1 0
BITMAP
C0C0
C0C0
C0C0
C0C0
FFC0
FFC0
C0C0
C0C0
CCC0
DEC0
F3C0
E1C0
C0C0
8040
ENDCHAR
STARTCHAR NEW
ENCODING -1
SWIDTH 480 0
DWIDTH 12 0
BBX 10 10 1 0
BITMAP
F0C0
F8C0
CCC0
CCC0
CCC0
CCC0
CCC0
CCC0
C7C0
C3C0
ENDCHAR
STARTCHAR DONG
ENCODING -1
SWIDTH 480 0
DWIDTH 12 0
BBX 11 20 1 -4
BITMAP
00C0
00C0
1FE0
1FE0
00C0
00C0
3FC0
7FC0
C0C0
C0C0
C0C0
C0C0
C0C0
C0C0
7FC0
3FC0
0000
0000
FFC0
FFC0
ENDCHAR
STARTCHAR EURO
ENCODING -1
SWIDTH 480 0
DWIDTH 12 0
BBX 10 14 1 0
BITMAP
1FC0
3FC0
6000
6000
FF00
FE00
6000
6000
FE00
FC00
6000
6000
3FC0
1FC0
ENDCHAR
STARTCHAR KIP
ENCODING -1
SWIDTH 480 0
DWIDTH 12 0
BBX 10 14 1 0
BITMAP
C0C0
C180
C300
C600
CC00
D800
FF00
FF00
D800
CC00
C600
C300
C180
C0C0
ENDCHAR
STARTCHAR TUGRIK
ENCODING -1
SWIDTH 480 0
DWIDTH 12 0
BBX 10 14 1 0
BITMAP
FFC0
FFC0
0C00
0C00
0F00
0F00
3C00
3C00
0F00
0F00
3C00
3C00
0C00
0C00
ENDCHAR
STARTCHAR DRACHMA
ENCODING -1
SWIDTH 480 0
DWIDTH 12 0
BBX 12 18 0 -4
BITMAP
F800
FC00
C600
C600
C7C0
C7E0
C630
C630
C630
C630
C630
C630
FFE0
FFC0
0600
0600
0600
0600
ENDCHAR
STARTCHAR PESO
ENCODING -1
SWIDTH 480 0
DWIDTH 12 0
BBX 10 14 1 0
BITMAP
FF00
FF80
C0C0
C0C0
FFC0
FFC0
C0C0
C0C0
FF80
FF00
C000
C000
C000
C000
ENDCHAR
STARTCHAR GUARANI
ENCODING -1
SWIDTH 480 0
DWIDTH 12 0
BBX 10 18 1 -2
BITMAP
0C00
0C00
3FC0
7FC0
CC00
CC00
CC00
CC00
CFC0
CFC0
CCC0
CCC0
CCC0
CCC0
7FC0
3FC0
0C00
0C00
ENDCHAR
STARTCHAR HRYVNIA
ENCODING -1
SWIDTH 480 0
DWIDTH 12 0
BBX 10 14 1 0
BITMAP
FF00
FF80
00C0
00C0
FFC0
FFC0
7F80
7F80
FFC0
FFC0
C000
C000
7FC0
3FC0
ENDCHAR
STARTCHAR CEDI
ENCODING -1
SWIDTH 480 0
DWIDTH 12 0
BBX 10 18 1 -2
BITMAP
0C00
0C00
3FC0
7FC0
CC00
CC00
CC00
CC00
CC00
CC00
CC00
CC00
CC00
CC00
7FC0
3FC0
0C00
0C00
ENDCHAR
STARTCHAR TENGE
ENCODING -1
SWIDTH 480 0
DWIDTH 12 0
BBX 10 14 1 0
BITMAP
FFC0
FFC0
0000
0000
FFC0
FFC0
0C00
0C00
0C00
0C00
0C00
0C00
0C00
0C00
ENDCHAR
STARTCHAR INDIAN
ENCODING -1
SWIDTH 480 0
DWIDTH 12 0
BBX 10 14 1 0
BITMAP
FFC0
FFC0
0300
0300
FFC0
FFC0
0600
0C00
1800
3000
1800
0C00
0600
0300
ENDCHAR
STARTCHAR TURKISH
ENCODING -1
SWIDTH 480 0
DWIDTH 12 0
BBX 10 14 1 0
BITMAP
3000
3000
3300
3F00
3C00
F000
F300
3F00
3C00
F000
F000
30C0
3F80
3F00
ENDCHAR
STARTCHAR MANAT
ENCODING -1
SWIDTH 480 0
DWIDTH 12 0
BBX 10 14 1 0
BITMAP
0C00
0C00
3F00
7F80
CCC0
CCC0
CCC0
CCC0
CCC0
CCC0
CCC0
CCC0
C0C0
C0C0
ENDCHAR
STARTCHAR RUBLE
ENCODING -1
SWIDTH 480 0
DWIDTH 12 0
BBX 10 14 1 0
BITMAP
FF00
FF80
C0C0
C0C0
C0C0
C0C0
FF80
FF00
C000
C000
FF00
FF00
C000
C000
ENDCHAR
STARTCHAR NUMERO
ENCODING -1
SWIDTH 480 0
DWIDTH 12 0
BBX 12 14 0 0
BITMAP
C600
C600
C600
C600
C640
E6E0
F7B0
DFB0
CFB0
C6E0
C640
C600
C7F0
C7F0
ENDCHAR
STARTCHAR TRADE
ENCODING -1
SWIDTH 480 0
DWIDTH 12 0
BBX 12 8 0 12
BITMAP
FE10
FF30
33F0
33F0
3330
3330
3330
3330
ENDCHAR
STARTCHAR ANGSTROM
ENCODING -1
SWIDTH 480 0
DWIDTH 12 0
BBX 10 20 1 0
BITMAP
0C00
1E00
3300
1E00
0C00
0000
3F00
7F80
C0C0
C0C0
C0C0
C0C0
C0C0
C0C0
FFC0
FFC0
C0C0
C0C0
C0C0
C0C0
ENDCHAR
STARTCHAR LEFTWARDS
ENCODING -1
SWIDTH 480 0
DWIDTH 12 0
BBX 12 10 0 2
BITMAP
0C00
1800
3000
6000
FFF0
FFF0
6000
3000
1800
0C00
ENDCHAR
STARTCHAR UPWARDS
ENCODING -1
SWIDTH 480 0
DWIDTH 12 0
BBX 12 15 0 0
BITMAP
0600
0F00
1F80
36C0
6660
C630
0600
0600
0600
0600
0600
0600
0600
0600
0600
ENDCHAR
STARTCHAR RIGHTWARDS
ENCODING -1
SWIDTH 480 0
DWIDTH 12 0
BBX 12 10 0 2
BITMAP
0300
0180
00C0
0060
FFF0
FFF0
0060
00C0
0180
0300
ENDCHAR
STARTCHAR DOWNWARDS
ENCODING -1
SWIDTH 480 0
DWIDTH 12 0
BBX 12 15 0 0
BITMAP
0600
0600
0600
0600
0600
0600
0600
0600
0600
C630
6660
36C0
1F80
0F00
0600
ENDCHAR
STARTCHAR LEFT
ENCODING -1
SWIDTH 480 0
DWIDTH 12 0
BBX 12 10 0 2
BITMAP
0900
1980
30C0
6060
FFF0
FFF0
6060
30C0
1980
0900
ENDCHAR
STARTCHAR UP
ENCODING -1
SWIDTH 480 0
DWIDTH 12 0
BBX 10 15 1 0
BITMAP
0C00
1E00
3F00
6D80
CCC0
0C00
0C00
0C00
0C00
0C00
CCC0
6D80
3F00
1E00
0C00
ENDCHAR
STARTCHAR NORTH
ENCODING -1
SWIDTH 480 0
DWIDTH 12 0
BBX 12 12 0 0
BITMAP
FF00
FF00
F000
F800
DC00
CE00
C700
C380
01C0
00E0
0070
0020
ENDCHAR
STARTCHAR SOUTH
ENCODING -1
SWIDTH 480 0
DWIDTH 12 0
BBX 12 12 0 0
BITMAP
4000
E000
7000
3800
1C30
0E30
0730
03B0
01F0
00F0
0FF0
0FF0
ENDCHAR
STARTCHAR LEFTWARDS
ENCODING -1
SWIDTH 480 0
DWIDTH 12 0
BBX 12 10 0 2
BITMAP
0C30
1830
3030
6030
FFF0
FFF0
6030
3030
1830
0C30
ENDCHAR
STARTCHAR RIGHTWARDS
ENCODING -1
SWIDTH 480 0
DWIDTH 12 0
BBX 12 10 0 2
BITMAP
C300
C180
C0C0
C060
FFF0
FFF0
C060
C0C0
C180
C300
ENDCHAR
STARTCHAR UP
ENCODING -1
SWIDTH 480 0
DWIDTH 12 0
BBX 10 17 1 -2
BITMAP
0C00
1E00
3F00
6D80
CCC0
0C00
0C00
0C00
0C00
0C00
CCC0
6D80
3F00
1E00
0C00
FFC0
FFC0
ENDCHAR
STARTCHAR LEFTWARDS
ENCODING -1
SWIDTH 480 0
DWIDTH 12 0
BBX 12 10 0 0
BITMAP
0C40
1860
3030
6030
FFE0
FFC0
6000
3000
1800
0C00
ENDCHAR
STARTCHAR DOWNWARDS
ENCODING -1
SWIDTH 480 0
DWIDTH 12 0
BBX 12 14 0 0
BITMAP
0030
0030
0030
0030
0C30
1830
3030
6030
FFE0
FFC0
6000
3000
1800
0C00
ENDCHAR
STARTCHAR NORTH
ENCODING -1
SWIDTH 480 0
DWIDTH 12 0
BBX 12 15 0 -1
BITMAP
FFF0
FFF0
0000
FF00
FF00
F000
F800
DC00
CE00
C700
C380
01C0
00E0
0070
0020
ENDCHAR
STARTCHAR LEFTWARDS
ENCODING -1
SWIDTH 480 0
DWIDTH 12 0
BBX 12 16 0 -2
BITMAP
0300
C600
CC00
D800
FFF0
FFF0
D800
CE30
C730
01B0
FFF0
FFF0
01B0
0330
0630
0C00
ENDCHAR
STARTCHAR LEFTWARDS
ENCODING -1
SWIDTH 480 0
DWIDTH 12 0
BBX 12 16 0 -2
BITMAP
0C00
1800
3000
6000
FFF0
FFF0
6000
3180
18C0
0060
FFF0
FFF0
0060
00C0
0180
0300
ENDCHAR
STARTCHAR LEFTWARDS
ENCODING -1
SWIDTH 480 0
DWIDTH 12 0
BBX 12 10 0 2
BITMAP
0C00
1800
3FF0
7FF0
C000
C000
7FF0
3FF0
1800
0C00
ENDCHAR
STARTCHAR UPWARDS
ENCODING -1
SWIDTH 480 0
DWIDTH 12 0
BBX 12 15 0 0
BITMAP
0600
0F00
1980
39C0
79E0
D9B0
1980
1980
1980
1980
1980
1980
1980
1980
1980
ENDCHAR
STARTCHAR RIGHTWARDS
ENCODING -1
SWIDTH 480 0
DWIDTH 12 0
BBX 12 10 0 2
BITMAP
0300
0180
FFC0
FFE0
0030
0030
FFE0
FFC0
0180
0300
ENDCHAR
STARTCHAR DOWNWARDS
ENCODING -1
SWIDTH 480 0
DWIDTH 12 0
BBX 12 15 0 0
BITMAP
1980
1980
1980
1980
1980
1980
1980
1980
1980
D9B0
79E0
39C0
1980
0F00
0600
ENDCHAR
STARTCHAR LEFT
ENCODING -1
SWIDTH 480 0
DWIDTH 12 0
BBX 12 10 0 2
BITMAP
0900
1980
3FC0
7FE0
C030
C030
7FE0
3FC0
1980
0900
ENDCHAR
STARTCHAR UP
ENCODING -1
SWIDTH 480 0
DWIDTH 12 0
BBX 10 15 1 0
BITMAP
0C00
1E00
3300
7380
F3C0
3300
3300
3300
3300
3300
F3C0
7380
3300
1E00
0C00
ENDCHAR
STARTCHAR UPWARDS
ENCODING -1
SWIDTH 480 0
DWIDTH 12 0
BBX 12 15 0 0
BITMAP
0600
0F00
1F80
36C0
6660
C630
0600
0600
3FC0
3FC0
0600
3FC0
3FC0
0600
0600
ENDCHAR
STARTCHAR DOWNWARDS
ENCODING -1
SWIDTH 480 0
DWIDTH 12 0
BBX 12 15 0 0
BITMAP
0600
0600
3FC0
3FC0
0600
3FC0
3FC0
0600
0600
C630
6660
36C0
1F80
0F00
0600
ENDCHAR
STARTCHAR LEFTWARDS
ENCODING -1
SWIDTH 480 0
DWIDTH 12 0
BBX 12 10 0 2
BITMAP
C300
C600
CC00
D800
FFF0
FFF0
D800
CC00
C600
C300
ENDCHAR
STARTCHAR RIGHTWARDS
ENCODING -1
SWIDTH 480 0
DWIDTH 12 0
BBX 12 10 0 2
BITMAP
0C30
0630
0330
01B0
FFF0
FFF0
01B0
0330
0630
0C30
ENDCHAR
STARTCHAR UPWARDS
ENCODING -1
SWIDTH 480 0
DWIDTH 12 0
BBX 12 14 0 0
BITMAP
0600
0F00
1980
30C0
6060
C030
F9F0
F9F0
1980
1980
1980
1980
1F80
1F80
ENDCHAR
STARTCHAR UPWARDS
ENCODING -1
SWIDTH 480 0
DWIDTH 12 0
BBX 12 16 0 -2
BITMAP
0600
0F00
1980
30C0
6060
C030
F9F0
F9F0
1980
1980
1980
1F80
1F80
1980
1F80
1F80
ENDCHAR
STARTCHAR NORTH
ENCODING -1
SWIDTH 480 0
DWIDTH 12 0
BBX 12 12 0 0
BITMAP
FFE0
FFE0
C000
C000
CFE0
CFE0
CF00
CF80
CDC0
CCE0
CC70
0020
ENDCHAR
STARTCHAR SOUTH
ENCODING -1
SWIDTH 480 0
DWIDTH 12 0
BBX 12 12 0 0
BITMAP
4000
E330
7330
3B30
1F30
0F30
7F30
7F30
0030
0030
7FF0
7FF0
ENDCHAR
STARTCHAR THERE
ENCODING -1
SWIDTH 480 0
DWIDTH 12 0
BBX 10 14 1 0
BITMAP
FFC0
FFC0
00C0
00C0
00C0
00C0
0FC0
0FC0
00C0
00C0
00C0
00C0
FFC0
FFC0
ENDCHAR
STARTCHAR EMPTY
ENCODING -1
SWIDTH 480 0
DWIDTH 12 0
BBX 12 12 0 0
BITMAP
1FB0
3FF0
60E0
C1F0
C3B0
C730
CE30
DC30
F830
7060
FFC0
DF80
ENDCHAR
STARTCHAR ELEMENT
ENCODING -1
SWIDTH 480 0
DWIDTH 12 0
BBX 10 10 1 0
BITMAP
3FC0
7FC0
C000
C000
FFC0
FFC0
C000
C000
7FC0
3FC0
ENDCHAR
STARTCHAR RIGHT
ENCODING -1
SWIDTH 480 0
DWIDTH 12 0
BBX 10 10 1 0
BITMAP
C000
C000
C000
C000
C000
C000
C000
C000
FFC0
FFC0
ENDCHAR
STARTCHAR LOGICAL
ENCODING -1
SWIDTH 480 0
DWIDTH 12 0
BBX 10 10 1 0
BITMAP
0C00
0C00
1E00
1E00
3300
3300
6180
6180
C0C0
C0C0
ENDCHAR
STARTCHAR LOGICAL
ENCODING -1
SWIDTH 480 0
DWIDTH 12 0
BBX 10 10 1 0
BITMAP
C0C0
C0C0
6180
6180
3300
3300
1E00
1E00
0C00
0C00
ENDCHAR
STARTCHAR UNION
ENCODING -1
SWIDTH 480 0
DWIDTH 12 0
BBX 10 12 1 0
BITMAP
C0C0
C0C0
C0C0
C0C0
C0C0
C0C0
C0C0
C0C0
C0C0
C0C0
7F80
3F00
ENDCHAR
STARTCHAR NOT
ENCODING -1
SWIDTH 480 0
DWIDTH 12 0
BBX 10 10 1 2
BITMAP
00C0
0180
FFC0
FFC0
0E00
1C00
FFC0
FFC0
6000
C000
ENDCHAR
STARTCHAR CIRCLED
ENCODING -1
SWIDTH 480 0
DWIDTH 12 0
BBX 10 12 1 0
BITMAP
3F00
7F80
C0C0
C0C0
C0C0
FFC0
FFC0
C0C0
C0C0
C0C0
7F80
3F00
ENDCHAR
STARTCHAR CIRCLED
ENCODING -1
SWIDTH 480 0
DWIDTH 12 0
BBX 10 13 1 0
BITMAP
3F00
7F80
C0C0
E1C0
F3C0
DEC0
CCC0
DEC0
F3C0
E1C0
C0C0
7F80
3F00
ENDCHAR
STARTCHAR CIRCLED
ENCODING -1
SWIDTH 480 0
DWIDTH 12 0
BBX 10 12 1 0
BITMAP
3F00
7F80
C0C0
C0C0
C0C0
FFC0
FFC0
C0C0
C0C0
C0C0
7F80
3F00
ENDCHAR
STARTCHAR HOUSE
ENCODING -1
SWIDTH 480 0
DWIDTH 12 0
BBX 10 14 1 0
BITMAP
0C00
1E00
3300
6180
C0C0
C0C0
C0C0
C0C0
C0C0
C0C0
C0C0
C0C0
FFC0
FFC0
ENDCHAR
STARTCHAR UP
ENCODING -1
SWIDTH 480 0
DWIDTH 12 0
BBX 10 5 1 9
BITMAP
0C00
1E00
3300
6180
C0C0
ENDCHAR
STARTCHAR PROJECTIVE
ENCODING -1
SWIDTH 480 0
DWIDTH 12 0
BBX 10 8 1 6
BITMAP
FFC0
FFC0
0000
0C00
1E00
3300
6180
C0C0
ENDCHAR
STARTCHAR PLACE
ENCODING -1
SWIDTH 480 0
DWIDTH 12 0
BBX 12 12 0 0
BITMAP
70E0
D9B0
8910
DFB0
7FE0
1980
1980
7FE0
DFB0
8910
D9B0
70E0
ENDCHAR
STARTCHAR UP
ENCODING -1
SWIDTH 480 0
DWIDTH 12 0
BBX 10 7 1 7
BITMAP
F3C0
E1C0
0C00
1E00
3300
6180
C0C0
ENDCHAR
STARTCHAR OPTION
ENCODING -1
SWIDTH 480 0
DWIDTH 12 0
BBX 12 9 0 1
BITMAP
E3F0
F1F0
1800
0C00
0600
0300
0180
00F0
0070
ENDCHAR
STARTCHAR ERASE
ENCODING -1
SWIDTH 480 0
DWIDTH 12 0
BBX 12 9 0 1
BITMAP
FF00
FF80
CCC0
E1E0
F3F0
E1E0
CCC0
FF80
FF00
ENDCHAR
STARTCHAR KEYBOARD
ENCODING -1
SWIDTH 480 0
DWIDTH 12 0
BBX 11 10 1 0
BITMAP
DB60
DB60
0000
0000
6D80
6D80
0000
0000
7F80
7F80
ENDCHAR
STARTCHAR ERASE
ENCODING -1
SWIDTH 480 0
DWIDTH 12 0
BBX 12 9 0 1
BITMAP
0FF0
1FF0
3330
7870
FCF0
7870
3330
1FF0
0FF0
ENDCHAR
STARTCHAR APL
ENCODING -1
SWIDTH 480 0
DWIDTH 12 0
BBX 10 18 1 -4
BITMAP
0C00
0C00
0C00
0C00
3F00
7F80
CCC0
CCC0
CCC0
CCC0
CCC0
CCC0
7F80
3F00
0C00
0C00
0C00
0C00
ENDCHAR
STARTCHAR INSERTION
ENCODING -1
SWIDTH 480 0
DWIDTH 12 0
BBX 10 17 1 -1
BITMAP
1E00
1F00
0180
0180
1F80
3F80
6180
6180
3F80
1F80
0000
0000
C0C0
6180
3300
1E00
0C00
ENDCHAR
STARTCHAR COMPOSITION
ENCODING -1
SWIDTH 480 0
DWIDTH 12 0
BBX 12 10 0 0
BITMAP
FBC0
F7E0
CC30
CC30
CC30
CC30
CC30
CC30
F7E0
FBC0
ENDCHAR
STARTCHAR ENTER
ENCODING -1
SWIDTH 480 0
DWIDTH 12 0
BBX 12 10 0 0
BITMAP
0C30
1830
3030
6030
FFF0
FFF0
6000
3000
1800
0C00
ENDCHAR
STARTCHAR ALTERNATIVE
ENCODING -1
SWIDTH 480 0
DWIDTH 12 0
BBX 12 9 0 1
BITMAP
0070
00F0
0180
0300
0600
0C00
1800
F1F0
E3F0
ENDCHAR
STARTCHAR HELM
ENCODING -1
SWIDTH 480 0
DWIDTH 12 0
BBX 12 16 0 -3
BITMAP
0600
C630
6660
36C0
1F80
3FC0
6660
6660
6660
6660
3FC0
1F80
36C0
6660
C630
0600
ENDCHAR
STARTCHAR BROKEN
ENCODING -1
SWIDTH 480 0
DWIDTH 12 0
BBX 12 12 0 0
BITMAP
FC00
FC00
F1C0
F8E0
DC30
CE30
0730
2230
3030
3030
1FE0
0FC0
ENDCHAR
STARTCHAR HORIZONTAL
ENCODING -1
SWIDTH 480 0
DWIDTH 12 0
BBX 12 3 0 17
BITMAP
FFF0
FFF0
FFF0
ENDCHAR
STARTCHAR HORIZONTAL
ENCODING -1
SWIDTH 480 0
DWIDTH 12 0
BBX 12 3 0 12
BITMAP
FFF0
FFF0
FFF0
ENDCHAR
STARTCHAR HORIZONTAL
ENCODING -1
SWIDTH 480 0
DWIDTH 12 0
BBX 12 3 0 1
BITMAP
FFF0
FFF0
FFF0
ENDCHAR
STARTCHAR HORIZONTAL
ENCODING -1
SWIDTH 480 0
DWIDTH 12 0
BBX 12 3 0 -4
BITMAP
FFF0
FFF0
FFF0
ENDCHAR
STARTCHAR RETURN
ENCODING -1
SWIDTH 480 0
DWIDTH 12 0
BBX 12 16 0 -2
BITMAP
03F0
03F0
0330
0330
0330
0330
0330
0F30
1B30
3330
6030
C030
63E0
33C0
1B00
0F00
ENDCHAR
STARTCHAR EJECT
ENCODING -1
SWIDTH 480 0
DWIDTH 12 0
BBX 10 10 1 0
BITMAP
0C00
1E00
3F00
7F80
FFC0
FFC0
0000
0000
FFC0
FFC0
ENDCHAR
STARTCHAR SYMBOL
ENCODING -1
SWIDTH 480 0
DWIDTH 12 0
BBX 12 23 0 -4
BITMAP
C300
E300
F300
DB00
CF00
C700
C300
0000
30C0
30C0
30C0
30C0
30C0
1F80
0F00
0000
0C00
0C00
0C00
0C00
0C00
0FF0
0FF0
ENDCHAR
STARTCHAR SYMBOL
ENCODING -1
SWIDTH 480 0
DWIDTH 12 0
BBX 12 23 0 -4
BITMAP
7F00
FF00
C000
7E00
0300
FF00
FE00
0000
0F00
1F80
30C0
30C0
30C0
1F80
0F00
0000
0C30
0C30
0C30
0FF0
0C30
0C30
0C30
ENDCHAR
STARTCHAR SYMBOL
ENCODING -1
SWIDTH 480 0
DWIDTH 12 0
BBX 12 23 0 -4
BITMAP
7F00
FF00
C000
7E00
0300
FF00
FE00
0000
3FC0
3FC0
0600
0600
0600
0600
0600
0000
0C30
0C30
0C30
0FF0
0C30
0C30
0C30
ENDCHAR
STARTCHAR SYMBOL
ENCODING -1
SWIDTH 480 0
DWIDTH 12 0
BBX 12 23 0 -4
BITMAP
FF00
FF00
C000
F800
C000
FF00
FF00
0000
3FC0
3FC0
0600
0600
0600
0600
0600
0000
0C30
0660
03C0
0180
03C0
0620
0C30
ENDCHAR
ENDFONT
